<svg xmlns="http://www.w3.org/2000/svg" width="111" height="32" viewBox="0 0 111 32" fill="none">
    <path fill-rule="evenodd" clip-rule="evenodd" d="M20.3267 2.20996V30.3088H18.9671V2.20996H20.3267Z" fill="white"/>
    <path fill-rule="evenodd" clip-rule="evenodd" d="M41.9062 18.2968L0.664337 21.4693L0.560059 20.1136L41.8019 16.9412L41.9062 18.2968Z" fill="white"/>
    <path fill-rule="evenodd" clip-rule="evenodd" d="M30.2544 24.588L10.3133 15.9771L10.8523 14.7289L30.7934 23.3398L30.2544 24.588Z" fill="white"/>
    <path fill-rule="evenodd" clip-rule="evenodd" d="M19.0491 19.108L24.9408 8.23107L26.1363 8.87864L20.2446 19.7556L19.0491 19.108Z" fill="white"/>
    <path fill-rule="evenodd" clip-rule="evenodd" d="M19.4972 18.7687L33.5466 15.5963L33.846 16.9225L19.7966 20.0949L19.4972 18.7687Z" fill="white"/>
    <path d="M49.3249 20.5759V9.60859H50.9796V19.1514H55.9492V20.5759H49.3249ZM57.4067 20.5759V12.3504H59.0079V20.5759H57.4067ZM58.2153 11.0812C57.9369 11.0812 57.6977 10.9884 57.4978 10.8028C57.3014 10.6136 57.2032 10.3887 57.2032 10.128C57.2032 9.86385 57.3014 9.63894 57.4978 9.4533C57.6977 9.26408 57.9369 9.16947 58.2153 9.16947C58.4938 9.16947 58.7312 9.26408 58.9276 9.4533C59.1275 9.63894 59.2275 9.86385 59.2275 10.128C59.2275 10.3887 59.1275 10.6136 58.9276 10.8028C58.7312 10.9884 58.4938 11.0812 58.2153 11.0812ZM60.8604 20.5759V12.3504H62.3973V13.6892H62.4991C62.6704 13.2358 62.9507 12.8824 63.3398 12.6289C63.729 12.3718 64.1949 12.2433 64.7375 12.2433C65.2873 12.2433 65.7478 12.3718 66.1191 12.6289C66.494 12.8859 66.7707 13.2394 66.9492 13.6892H67.0348C67.2312 13.2501 67.5436 12.9002 67.972 12.6396C68.4004 12.3754 68.9109 12.2433 69.5036 12.2433C70.2497 12.2433 70.8584 12.4771 71.3296 12.9448C71.8045 13.4125 72.0419 14.1176 72.0419 15.0601V20.5759H70.4407V15.21C70.4407 14.6531 70.289 14.2497 69.9855 13.9998C69.6821 13.7499 69.3197 13.6249 68.8984 13.6249C68.3772 13.6249 67.972 13.7856 67.6828 14.1069C67.3936 14.4246 67.2491 14.8334 67.2491 15.3332V20.5759H65.6532V15.1083C65.6532 14.662 65.514 14.3032 65.2355 14.0319C64.9571 13.7606 64.5947 13.6249 64.1484 13.6249C63.845 13.6249 63.5647 13.7053 63.3077 13.8659C63.0542 14.023 62.8489 14.2426 62.6918 14.5246C62.5383 14.8066 62.4616 15.1333 62.4616 15.5046V20.5759H60.8604ZM73.8863 20.5759V12.3504H75.4875V20.5759H73.8863ZM74.695 11.0812C74.4165 11.0812 74.1773 10.9884 73.9774 10.8028C73.781 10.6136 73.6828 10.3887 73.6828 10.128C73.6828 9.86385 73.781 9.63894 73.9774 9.4533C74.1773 9.26408 74.4165 9.16947 74.695 9.16947C74.9734 9.16947 75.2108 9.26408 75.4072 9.4533C75.6071 9.63894 75.7071 9.86385 75.7071 10.128C75.7071 10.3887 75.6071 10.6136 75.4072 10.8028C75.2108 10.9884 74.9734 11.0812 74.695 11.0812ZM81.1796 12.3504V13.6356H76.6867V12.3504H81.1796ZM77.8916 10.3797H79.4928V18.1607C79.4928 18.4713 79.5392 18.7051 79.632 18.8622C79.7248 19.0157 79.8444 19.1211 79.9908 19.1782C80.1407 19.2317 80.3032 19.2585 80.4781 19.2585C80.6066 19.2585 80.7191 19.2496 80.8155 19.2317C80.9119 19.2139 80.9868 19.1996 81.0404 19.1889L81.3296 20.5116C81.2367 20.5473 81.1047 20.583 80.9333 20.6187C80.7619 20.658 80.5477 20.6794 80.2907 20.683C79.8694 20.6901 79.4767 20.6151 79.1126 20.4581C78.7484 20.301 78.4539 20.0582 78.229 19.7298C78.004 19.4013 77.8916 18.989 77.8916 18.4927V10.3797ZM84.4271 9.60859V20.5759H82.826V9.60859H84.4271ZM89.8247 20.7419C89.0143 20.7419 88.3164 20.5687 87.7309 20.2224C87.1489 19.8726 86.6991 19.3817 86.3814 18.7498C86.0672 18.1143 85.9101 17.3699 85.9101 16.5167C85.9101 15.6742 86.0672 14.9316 86.3814 14.289C86.6991 13.6463 87.1418 13.1448 87.7094 12.7842C88.2807 12.4236 88.9483 12.2433 89.7123 12.2433C90.1764 12.2433 90.6262 12.3201 91.0617 12.4736C91.4973 12.6271 91.8882 12.8681 92.2345 13.1965C92.5808 13.525 92.8539 13.9516 93.0538 14.4764C93.2538 14.9976 93.3537 15.6313 93.3537 16.3775V16.9451H86.8151V15.7456H91.7847C91.7847 15.3243 91.699 14.9512 91.5276 14.6263C91.3563 14.2979 91.1153 14.0391 90.8047 13.8498C90.4977 13.6606 90.1371 13.566 89.723 13.566C89.2731 13.566 88.8804 13.6767 88.5448 13.898C88.2128 14.1158 87.9558 14.4014 87.7737 14.7549C87.5952 15.1047 87.5059 15.4849 87.5059 15.8955V16.8326C87.5059 17.3824 87.6023 17.8501 87.7951 18.2357C87.9915 18.6213 88.2646 18.9158 88.6145 19.1193C88.9643 19.3192 89.3731 19.4192 89.8408 19.4192C90.1442 19.4192 90.4209 19.3763 90.6708 19.2906C90.9207 19.2014 91.1367 19.0693 91.3188 18.8944C91.5009 18.7194 91.6401 18.5034 91.7365 18.2464L93.252 18.5195C93.1306 18.9658 92.9128 19.3567 92.5987 19.6923C92.2881 20.0243 91.8971 20.2831 91.4259 20.4688C90.9582 20.6508 90.4245 20.7419 89.8247 20.7419ZM100.992 14.3586L99.5412 14.6156C99.4805 14.43 99.3841 14.2533 99.252 14.0855C99.1235 13.9177 98.9486 13.7802 98.7272 13.6731C98.5059 13.566 98.2292 13.5125 97.8972 13.5125C97.4438 13.5125 97.0653 13.6142 96.7619 13.8177C96.4584 14.0176 96.3067 14.2765 96.3067 14.5942C96.3067 14.8691 96.4084 15.0904 96.6119 15.2582C96.8154 15.426 97.1439 15.5635 97.5973 15.6706L98.9039 15.9705C99.6608 16.1454 100.225 16.4149 100.596 16.7791C100.967 17.1432 101.153 17.6163 101.153 18.1982C101.153 18.6909 101.01 19.13 100.725 19.5156C100.443 19.8976 100.048 20.1974 99.5412 20.4152C99.0378 20.633 98.4541 20.7419 97.7901 20.7419C96.869 20.7419 96.1175 20.5455 95.5356 20.1528C94.9536 19.7565 94.5966 19.1942 94.4645 18.466L96.0122 18.2303C96.1086 18.6337 96.3067 18.939 96.6066 19.1461C96.9065 19.3495 97.2974 19.4513 97.7794 19.4513C98.3042 19.4513 98.7236 19.3424 99.0378 19.1246C99.352 18.9033 99.5091 18.6337 99.5091 18.316C99.5091 18.059 99.4127 17.843 99.2199 17.668C99.0307 17.4931 98.7397 17.361 98.347 17.2718L96.9547 16.9665C96.1871 16.7916 95.6195 16.5131 95.2517 16.1311C94.8876 15.7491 94.7055 15.2654 94.7055 14.6799C94.7055 14.1944 94.8412 13.7695 95.1125 13.4054C95.3838 13.0412 95.7587 12.7574 96.2371 12.5539C96.7155 12.3468 97.2635 12.2433 97.8811 12.2433C98.7701 12.2433 99.4698 12.4361 99.9803 12.8217C100.491 13.2037 100.828 13.716 100.992 14.3586ZM108.776 14.3586L107.324 14.6156C107.264 14.43 107.167 14.2533 107.035 14.0855C106.907 13.9177 106.732 13.7802 106.51 13.6731C106.289 13.566 106.012 13.5125 105.68 13.5125C105.227 13.5125 104.849 13.6142 104.545 13.8177C104.242 14.0176 104.09 14.2765 104.09 14.5942C104.09 14.8691 104.192 15.0904 104.395 15.2582C104.599 15.426 104.927 15.5635 105.381 15.6706L106.687 15.9705C107.444 16.1454 108.008 16.4149 108.379 16.7791C108.751 17.1432 108.936 17.6163 108.936 18.1982C108.936 18.6909 108.794 19.13 108.508 19.5156C108.226 19.8976 107.831 20.1974 107.324 20.4152C106.821 20.633 106.237 20.7419 105.573 20.7419C104.652 20.7419 103.901 20.5455 103.319 20.1528C102.737 19.7565 102.38 19.1942 102.248 18.466L103.795 18.2303C103.892 18.6337 104.09 18.939 104.39 19.1461C104.69 19.3495 105.081 19.4513 105.563 19.4513C106.087 19.4513 106.507 19.3424 106.821 19.1246C107.135 18.9033 107.292 18.6337 107.292 18.316C107.292 18.059 107.196 17.843 107.003 17.668C106.814 17.4931 106.523 17.361 106.13 17.2718L104.738 16.9665C103.97 16.7916 103.403 16.5131 103.035 16.1311C102.671 15.7491 102.489 15.2654 102.489 14.6799C102.489 14.1944 102.624 13.7695 102.896 13.4054C103.167 13.0412 103.542 12.7574 104.02 12.5539C104.499 12.3468 105.047 12.2433 105.664 12.2433C106.553 12.2433 107.253 12.4361 107.764 12.8217C108.274 13.2037 108.611 13.716 108.776 14.3586Z" fill="white"/>
</svg>