<svg xmlns="http://www.w3.org/2000/svg" width="172" height="32" viewBox="0 0 172 32" fill="none">
    <path fill-rule="evenodd" clip-rule="evenodd" d="M28.469 1.59961V30.6965H27.0611V1.59961H28.469Z" fill="#E0E0E0"/>
    <path fill-rule="evenodd" clip-rule="evenodd" d="M50.8149 18.2578L8.10823 21.543L8.00024 20.1392L50.7069 16.8541L50.8149 18.2578Z" fill="#E0E0E0"/>
    <path fill-rule="evenodd" clip-rule="evenodd" d="M38.7492 24.7725L18.0999 15.8557L18.658 14.5632L39.3074 23.4799L38.7492 24.7725Z" fill="#E0E0E0"/>
    <path fill-rule="evenodd" clip-rule="evenodd" d="M27.146 19.0979L33.247 7.83458L34.4849 8.50515L28.384 19.7684L27.146 19.0979Z" fill="#E0E0E0"/>
    <path fill-rule="evenodd" clip-rule="evenodd" d="M27.61 18.7465L42.1584 15.4614L42.4685 16.8347L27.9201 20.1198L27.61 18.7465Z" fill="#E0E0E0"/>
    <path d="M57.2784 21.5V9.86363H59.0341V19.9886H64.3068V21.5H57.2784ZM65.8533 21.5V12.7727H67.5522V21.5H65.8533ZM66.7113 11.4261C66.4158 11.4261 66.162 11.3276 65.9499 11.1307C65.7416 10.9299 65.6374 10.6913 65.6374 10.4148C65.6374 10.1345 65.7416 9.89583 65.9499 9.69886C66.162 9.4981 66.4158 9.39773 66.7113 9.39773C67.0067 9.39773 67.2586 9.4981 67.4669 9.69886C67.6791 9.89583 67.7851 10.1345 67.7851 10.4148C67.7851 10.6913 67.6791 10.9299 67.4669 11.1307C67.2586 11.3276 67.0067 11.4261 66.7113 11.4261ZM69.5177 21.5V12.7727H71.1484V14.1932H71.2563C71.4381 13.7121 71.7355 13.3371 72.1484 13.0682C72.5612 12.7955 73.0556 12.6591 73.6313 12.6591C74.2146 12.6591 74.7033 12.7955 75.0972 13.0682C75.4949 13.3409 75.7885 13.7159 75.9779 14.1932H76.0688C76.2771 13.7273 76.6086 13.3561 77.0631 13.0795C77.5177 12.7992 78.0593 12.6591 78.6881 12.6591C79.4798 12.6591 80.1256 12.9072 80.6256 13.4034C81.1294 13.8996 81.3813 14.6477 81.3813 15.6477V21.5H79.6824V15.8068C79.6824 15.2159 79.5215 14.7879 79.1995 14.5227C78.8775 14.2576 78.4931 14.125 78.0461 14.125C77.4931 14.125 77.0631 14.2955 76.7563 14.6364C76.4495 14.9735 76.2961 15.4072 76.2961 15.9375V21.5H74.6029V15.6989C74.6029 15.2254 74.4552 14.8447 74.1597 14.5568C73.8643 14.2689 73.4798 14.125 73.0063 14.125C72.6843 14.125 72.387 14.2102 72.1143 14.3807C71.8453 14.5473 71.6275 14.7803 71.4609 15.0795C71.298 15.3788 71.2165 15.7254 71.2165 16.1193V21.5H69.5177ZM83.3383 21.5V12.7727H85.0372V21.5H83.3383ZM84.1963 11.4261C83.9008 11.4261 83.647 11.3276 83.4349 11.1307C83.2266 10.9299 83.1224 10.6913 83.1224 10.4148C83.1224 10.1345 83.2266 9.89583 83.4349 9.69886C83.647 9.4981 83.9008 9.39773 84.1963 9.39773C84.4917 9.39773 84.7436 9.4981 84.9519 9.69886C85.1641 9.89583 85.2701 10.1345 85.2701 10.4148C85.2701 10.6913 85.1641 10.9299 84.9519 11.1307C84.7436 11.3276 84.4917 11.4261 84.1963 11.4261ZM91.0765 12.7727V14.1364H86.3095V12.7727H91.0765ZM87.5879 10.6818H89.2868V18.9375C89.2868 19.267 89.336 19.5152 89.4345 19.6818C89.533 19.8447 89.6599 19.9564 89.8152 20.017C89.9743 20.0739 90.1466 20.1023 90.3322 20.1023C90.4686 20.1023 90.5879 20.0928 90.6902 20.0739C90.7924 20.0549 90.872 20.0398 90.9288 20.0284L91.2356 21.4318C91.1371 21.4697 90.997 21.5076 90.8152 21.5455C90.6334 21.5871 90.4061 21.6098 90.1334 21.6136C89.6864 21.6212 89.2697 21.5417 88.8834 21.375C88.497 21.2083 88.1845 20.9508 87.9459 20.6023C87.7072 20.2538 87.5879 19.8163 87.5879 19.2898V10.6818ZM94.5222 9.86363V21.5H92.8233V9.86363H94.5222ZM100.249 21.6761C99.3892 21.6761 98.6487 21.4924 98.0274 21.125C97.41 20.7538 96.9328 20.233 96.5956 19.5625C96.2623 18.8883 96.0956 18.0985 96.0956 17.1932C96.0956 16.2992 96.2623 15.5114 96.5956 14.8295C96.9328 14.1477 97.4024 13.6155 98.0047 13.233C98.6108 12.8504 99.3191 12.6591 100.13 12.6591C100.622 12.6591 101.099 12.7405 101.562 12.9034C102.024 13.0663 102.438 13.322 102.806 13.6705C103.173 14.0189 103.463 14.4716 103.675 15.0284C103.887 15.5814 103.993 16.2538 103.993 17.0455V17.6477H97.0559V16.375H102.329C102.329 15.928 102.238 15.5322 102.056 15.1875C101.874 14.839 101.618 14.5644 101.289 14.3636C100.963 14.1629 100.58 14.0625 100.141 14.0625C99.6638 14.0625 99.2471 14.1799 98.8911 14.4148C98.5388 14.6458 98.2661 14.9489 98.0729 15.3239C97.8835 15.6951 97.7888 16.0985 97.7888 16.5341V17.5284C97.7888 18.1117 97.8911 18.608 98.0956 19.017C98.304 19.4261 98.5937 19.7386 98.9649 19.9545C99.3362 20.1667 99.7699 20.2727 100.266 20.2727C100.588 20.2727 100.882 20.2273 101.147 20.1364C101.412 20.0417 101.641 19.9015 101.834 19.7159C102.027 19.5303 102.175 19.3011 102.277 19.0284L103.885 19.3182C103.757 19.7917 103.526 20.2064 103.192 20.5625C102.863 20.9148 102.448 21.1894 101.948 21.3864C101.452 21.5795 100.885 21.6761 100.249 21.6761ZM112.098 14.9034L110.558 15.1761C110.494 14.9792 110.392 14.7917 110.251 14.6136C110.115 14.4356 109.93 14.2898 109.695 14.1761C109.46 14.0625 109.166 14.0057 108.814 14.0057C108.333 14.0057 107.931 14.1136 107.609 14.3295C107.287 14.5417 107.126 14.8163 107.126 15.1534C107.126 15.4451 107.234 15.6799 107.45 15.858C107.666 16.036 108.015 16.1818 108.496 16.2955L109.882 16.6136C110.685 16.7992 111.284 17.0852 111.678 17.4716C112.072 17.858 112.269 18.3598 112.269 18.9773C112.269 19.5 112.117 19.9659 111.814 20.375C111.515 20.7803 111.096 21.0985 110.558 21.3295C110.024 21.5606 109.405 21.6761 108.7 21.6761C107.723 21.6761 106.926 21.4678 106.308 21.0511C105.691 20.6307 105.312 20.0341 105.172 19.2614L106.814 19.0114C106.916 19.4394 107.126 19.7633 107.445 19.983C107.763 20.1989 108.178 20.3068 108.689 20.3068C109.246 20.3068 109.691 20.1913 110.024 19.9602C110.358 19.7254 110.524 19.4394 110.524 19.1023C110.524 18.8295 110.422 18.6004 110.217 18.4148C110.017 18.2292 109.708 18.089 109.291 17.9943L107.814 17.6705C107 17.4848 106.397 17.1894 106.007 16.7841C105.621 16.3788 105.428 15.8655 105.428 15.2443C105.428 14.7292 105.572 14.2784 105.859 13.892C106.147 13.5057 106.545 13.2045 107.053 12.9886C107.56 12.7689 108.142 12.6591 108.797 12.6591C109.74 12.6591 110.483 12.8636 111.024 13.2727C111.566 13.678 111.924 14.2216 112.098 14.9034ZM120.356 14.9034L118.816 15.1761C118.752 14.9792 118.65 14.7917 118.51 14.6136C118.373 14.4356 118.188 14.2898 117.953 14.1761C117.718 14.0625 117.424 14.0057 117.072 14.0057C116.591 14.0057 116.19 14.1136 115.868 14.3295C115.546 14.5417 115.385 14.8163 115.385 15.1534C115.385 15.4451 115.493 15.6799 115.708 15.858C115.924 16.036 116.273 16.1818 116.754 16.2955L118.14 16.6136C118.943 16.7992 119.542 17.0852 119.936 17.4716C120.33 17.858 120.527 18.3598 120.527 18.9773C120.527 19.5 120.375 19.9659 120.072 20.375C119.773 20.7803 119.354 21.0985 118.816 21.3295C118.282 21.5606 117.663 21.6761 116.958 21.6761C115.981 21.6761 115.184 21.4678 114.566 21.0511C113.949 20.6307 113.57 20.0341 113.43 19.2614L115.072 19.0114C115.174 19.4394 115.385 19.7633 115.703 19.983C116.021 20.1989 116.436 20.3068 116.947 20.3068C117.504 20.3068 117.949 20.1913 118.282 19.9602C118.616 19.7254 118.782 19.4394 118.782 19.1023C118.782 18.8295 118.68 18.6004 118.476 18.4148C118.275 18.2292 117.966 18.089 117.549 17.9943L116.072 17.6705C115.258 17.4848 114.655 17.1894 114.265 16.7841C113.879 16.3788 113.686 15.8655 113.686 15.2443C113.686 14.7292 113.83 14.2784 114.118 13.892C114.405 13.5057 114.803 13.2045 115.311 12.9886C115.818 12.7689 116.4 12.6591 117.055 12.6591C117.998 12.6591 118.741 12.8636 119.282 13.2727C119.824 13.678 120.182 14.2216 120.356 14.9034Z" fill="#E0E0E0"/>
</svg>