<svg xmlns="http://www.w3.org/2000/svg" width="216" height="54" viewBox="0 0 216 54" fill="none">
    <path d="M216 10H0V54H216V10Z" fill="#DA9B50"/>
    <path opacity="0.2" d="M200 0H16L0 8H216L200 0Z" fill="#DA9B50"/>
    <g clip-path="url(#clip0_110_13555)">
        <path d="M111.712 39.0222C113.868 36.3867 117.537 35.6139 120.775 36.1221L121.452 36.2282L121.038 36.7744C118.976 39.4995 115.171 40.3449 111.947 39.6831L111.282 39.5471L111.712 39.0222Z" fill="white"/>
        <path d="M112.552 19.6291C114.823 21.4547 116.179 24.4818 115.616 27.3928L115.492 28.0312L114.97 27.6448C112.642 25.9225 111.069 22.7255 111.901 19.8352L112.072 19.243L112.552 19.6291Z" fill="white"/>
        <path d="M121.909 28.9993C121.463 32.1666 119.188 35.3808 115.944 36.0964L115.343 36.2294L115.453 35.6229C116.03 32.4454 118.245 29.5415 121.38 28.5515L122 28.3555L121.909 28.9993Z" fill="white"/>
        <path d="M118.528 22.0404C119.73 24.814 119.365 28.1694 117.511 30.5706L117.075 31.1343L116.806 30.4748C115.673 27.6914 115.956 24.3503 117.828 21.9516L118.253 21.4073L118.528 22.0404Z" fill="white"/>
        <path d="M98.1713 21.9517C100.044 24.3504 100.326 27.6915 99.1933 30.4749L98.9245 31.1346L98.4891 30.571C96.6352 28.1693 96.2703 24.8142 97.4721 22.0403L97.7468 21.4072L98.1713 21.9517Z" fill="white"/>
        <path d="M104.054 39.683C100.829 40.3449 97.0245 39.4996 94.9621 36.7742L94.5485 36.228L95.2253 36.1219C98.4639 35.6137 102.132 36.3865 104.289 39.022L104.718 39.5467L104.054 39.683Z" fill="white"/>
        <path d="M104.099 19.8355C104.931 22.7256 103.359 25.9227 101.031 27.6449L100.508 28.0313L100.385 27.3929C99.8217 24.4816 101.178 21.4546 103.448 19.6292L103.929 19.2434L104.099 19.8355Z" fill="white"/>
        <path d="M94.6202 28.5516C97.7545 29.5417 99.9703 32.4454 100.548 35.623L100.658 36.2294L100.056 36.0965C96.8116 35.3808 94.5366 32.1667 94.0907 28.9994L94 28.3553L94.6202 28.5516Z" fill="white"/>
        <path d="M110.275 41.9633C110.803 42.5244 111.352 43.0646 111.985 43.4916L112.42 43.7844L112.03 44.1361C111.868 44.2811 111.709 44.4273 111.55 44.5748L111.354 44.7571L111.108 44.6508C109.6 43.9995 109.171 42.3794 108 41.6153C106.829 42.3794 106.401 43.9995 104.892 44.6512L104.646 44.7576L104.45 44.575C104.291 44.4272 104.132 44.2813 103.971 44.1365L103.58 43.7849L104.016 43.492C104.649 43.065 105.198 42.5249 105.725 41.9638C105.002 42.3216 104.285 42.7341 103.461 42.8884C101.991 43.1354 100.418 43.2235 99.0206 42.6137L98.345 42.3194L98.9517 41.9008C100.334 40.9476 101.817 40.0592 103.536 39.9225C104.888 39.8483 106.26 39.8816 107.586 40.1871L107.603 40.1911L107.62 40.197C107.87 40.2779 108.131 40.2779 108.382 40.197L108.398 40.1911L108.416 40.1871C109.741 39.8816 111.113 39.8483 112.47 39.9225C114.185 40.0592 115.668 40.9479 117.049 41.9008L117.656 42.3194L116.98 42.6137C115.583 43.2238 114.009 43.1353 112.536 42.8878C111.714 42.7335 110.997 42.3213 110.275 41.9635L110.275 41.9633Z" fill="white"/>
        <path d="M107.302 30.1619C107.517 30.1806 107.746 30.1806 107.988 30.1619C108.231 30.1432 108.455 30.0919 108.66 30.0079C108.875 29.9146 109.048 29.7839 109.178 29.6159C109.318 29.4479 109.388 29.2239 109.388 28.9439C109.388 28.5239 109.248 28.2019 108.968 27.9779C108.688 27.7539 108.366 27.6419 108.002 27.6419C107.498 27.6419 107.116 27.8099 106.854 28.1459C106.602 28.4726 106.481 28.8879 106.49 29.3919H104.6C104.619 28.8879 104.708 28.4306 104.866 28.0199C105.034 27.5999 105.263 27.2406 105.552 26.9419C105.851 26.6432 106.206 26.4146 106.616 26.2559C107.027 26.0879 107.484 26.0039 107.988 26.0039C108.38 26.0039 108.772 26.0646 109.164 26.1859C109.556 26.2979 109.906 26.4706 110.214 26.7039C110.532 26.9372 110.788 27.2219 110.984 27.5579C111.18 27.8939 111.278 28.2812 111.278 28.7199C111.278 29.1959 111.162 29.6159 110.928 29.9799C110.704 30.3439 110.364 30.5912 109.906 30.7219V30.7499C110.448 30.8712 110.872 31.1326 111.18 31.5339C111.488 31.9352 111.642 32.4159 111.642 32.9759C111.642 33.4892 111.54 33.9466 111.334 34.3479C111.138 34.7492 110.872 35.0852 110.536 35.3559C110.2 35.6266 109.813 35.8319 109.374 35.9719C108.936 36.1119 108.478 36.1819 108.002 36.1819C107.452 36.1819 106.948 36.1026 106.49 35.9439C106.042 35.7852 105.66 35.5566 105.342 35.2579C105.025 34.9499 104.778 34.5766 104.6 34.1379C104.432 33.6992 104.353 33.1952 104.362 32.6259H106.252C106.262 32.8872 106.304 33.1392 106.378 33.3819C106.453 33.6152 106.56 33.8206 106.7 33.9979C106.84 34.1659 107.013 34.3012 107.218 34.4039C107.433 34.5066 107.685 34.5579 107.974 34.5579C108.422 34.5579 108.8 34.4226 109.108 34.1519C109.416 33.8719 109.57 33.4939 109.57 33.0179C109.57 32.6446 109.496 32.3599 109.346 32.1639C109.206 31.9679 109.024 31.8279 108.8 31.7439C108.576 31.6506 108.329 31.5992 108.058 31.5899C107.797 31.5712 107.545 31.5619 107.302 31.5619V30.1619Z" fill="white"/>
    </g>
    <defs>
        <clipPath id="clip0_110_13555">
            <rect width="28" height="28" fill="white" transform="translate(94 18)"/>
        </clipPath>
    </defs>
</svg>