<svg width="24" height="24" viewBox="0 0 24 24" fill="none" xmlns="http://www.w3.org/2000/svg">
<path d="M12 12H12.01" stroke="currentColor" stroke-width="2" stroke-linecap="round" stroke-linejoin="round"/>
<path d="M15.9999 6.00391V4.00391C15.9999 3.47347 15.7892 2.96477 15.4141 2.58969C15.039 2.21462 14.5303 2.00391 13.9999 2.00391H9.99988C9.46944 2.00391 8.96074 2.21462 8.58566 2.58969C8.21059 2.96477 7.99988 3.47347 7.99988 4.00391V6.00391" stroke="currentColor" stroke-width="2" stroke-linecap="round" stroke-linejoin="round"/>
<path d="M21.9999 12.9961C19.0327 14.9551 15.5554 15.9994 11.9999 15.9994C8.44433 15.9994 4.96709 14.9551 1.99988 12.9961" stroke="currentColor" stroke-width="2" stroke-linecap="round" stroke-linejoin="round"/>
<path d="M20.0001 6H4.00006C2.89549 6 2.00006 6.89543 2.00006 8V18C2.00006 19.1046 2.89549 20 4.00006 20H20.0001C21.1046 20 22.0001 19.1046 22.0001 18V8C22.0001 6.89543 21.1046 6 20.0001 6Z" stroke="currentColor" stroke-width="2" stroke-linecap="round" stroke-linejoin="round"/>
</svg>
