<svg width="24" height="24" viewBox="0 0 24 24" fill="none" xmlns="http://www.w3.org/2000/svg">
<path d="M16.8307 14.0029V2.00293" stroke="currentColor" stroke-width="2" stroke-linecap="round" stroke-linejoin="round"/>
<path d="M8.82983 18.121L9.82983 14.001H3.99983C3.68934 14.001 3.38312 13.9287 3.10541 13.7898C2.8277 13.651 2.58613 13.4494 2.39983 13.201C2.21354 12.9526 2.08764 12.6642 2.03209 12.3587C1.97655 12.0533 1.9929 11.739 2.07983 11.441L4.40983 3.44098C4.531 3.02555 4.78364 2.66062 5.12983 2.40098C5.47603 2.14133 5.89709 2.00098 6.32983 2.00098L19.8298 2.00098C20.3603 2.00098 20.869 2.21169 21.244 2.58676C21.6191 2.96184 21.8298 3.47054 21.8298 4.00098L21.8298 12.001C21.8298 12.5314 21.6191 13.0401 21.244 13.4152C20.869 13.7903 20.3603 14.001 19.8298 14.001H17.0698C16.6977 14.0012 16.3331 14.1052 16.0169 14.3013C15.7007 14.4973 15.4454 14.7778 15.2798 15.111L11.8298 22.001C11.3583 21.9951 10.8941 21.8828 10.472 21.6724C10.05 21.462 9.68091 21.1589 9.39243 20.7858C9.10395 20.4127 8.90352 19.9792 8.8061 19.5178C8.70868 19.0563 8.71679 18.5788 8.82983 18.121Z" stroke="currentColor" stroke-width="2" stroke-linecap="round" stroke-linejoin="round"/>
</svg>
