
<svg width="188" height="68" viewBox="0 0 188 68" fill="none" xmlns="http://www.w3.org/2000/svg">
<path d="M149.08 0C149.606 0 150 0.474247 150 1C150 4.31371 152.686 7 156 7C159.314 7 162 4.31371 162 1C162 0.474247 162.394 0 162.92 0H176C182.627 0 188 5.37258 188 12V56C188 62.6274 182.627 68 176 68H162.92C162.394 68 162 67.5257 162 67C162 63.6863 159.314 61 156 61C152.686 61 150 63.6863 150 67C150 67.5257 149.606 68 149.08 68H12C5.37258 68 1.61069e-07 62.6274 0 56V12C0 5.37258 5.37258 0 12 0H149.08Z" fill="#97EE2B"/>
<path d="M156.5 54.4629V55.5H155.5V54.4629H156.5ZM156.5 50.3125V52.3877H155.5V50.3125H156.5ZM156.5 46.1621V48.2373H155.5V46.1621H156.5ZM156.5 42.0127V44.0879H155.5V42.0127H156.5ZM156.5 37.8623V39.9375H155.5V37.8623H156.5ZM156.5 33.7129V35.7871H155.5V33.7129H156.5ZM156.5 29.5625V31.6377H155.5V29.5625H156.5ZM156.5 25.4121V27.4873H155.5V25.4121H156.5ZM156.5 21.2627V23.3379H155.5V21.2627H156.5ZM156.5 17.1123V19.1875H155.5V17.1123H156.5ZM156.5 14V15.0371H155.5V14H156.5Z" fill="black"/>
<path fill-rule="evenodd" clip-rule="evenodd" d="M166.562 46.818L176.772 46.818V47.312L166.563 47.312L166.562 46.818Z" fill="#030712"/>
<path fill-rule="evenodd" clip-rule="evenodd" d="M172.407 38.9773L173.56 53.9621L173.068 54L171.915 39.0152L172.407 38.9773Z" fill="#030712"/>
<path fill-rule="evenodd" clip-rule="evenodd" d="M174.693 43.2109L171.565 50.4563L171.111 50.2604L174.24 43.015L174.693 43.2109Z" fill="#030712"/>
<path fill-rule="evenodd" clip-rule="evenodd" d="M172.702 47.2822L168.75 45.1415L168.985 44.7071L172.938 46.8478L172.702 47.2822Z" fill="#030712"/>
<path fill-rule="evenodd" clip-rule="evenodd" d="M172.579 47.1194L171.426 42.0147L171.908 41.9059L173.061 47.0106L172.579 47.1194Z" fill="#030712"/>
<path d="M174.282 36.7093H170.199L170.199 36.0933H173.751L173.751 34.2432H174.282V36.7093Z" fill="#030712"/>
<path d="M174.282 33.7006H171.219V33.1045H174.282V33.7006ZM170.747 33.3996C170.747 33.5032 170.712 33.5923 170.643 33.6667C170.573 33.7398 170.489 33.7764 170.392 33.7764C170.294 33.7764 170.21 33.7398 170.141 33.6667C170.07 33.5923 170.035 33.5032 170.035 33.3996C170.035 33.2959 170.07 33.2075 170.141 33.1344C170.21 33.06 170.294 33.0228 170.392 33.0228C170.489 33.0228 170.573 33.06 170.643 33.1344C170.712 33.2075 170.747 33.2959 170.747 33.3996Z" fill="#030712"/>
<path d="M174.282 32.4149H171.219V31.8427H171.718V31.8048C171.549 31.741 171.417 31.6367 171.323 31.4918C171.227 31.3469 171.179 31.1735 171.179 30.9715C171.179 30.7668 171.227 30.5953 171.323 30.4571C171.419 30.3176 171.55 30.2146 171.718 30.1481V30.1162C171.554 30.0431 171.424 29.9268 171.327 29.7673C171.229 29.6078 171.179 29.4178 171.179 29.1972C171.179 28.9194 171.267 28.6928 171.441 28.5173C171.615 28.3406 171.877 28.2522 172.228 28.2522H174.282V28.8483H172.284C172.077 28.8483 171.926 28.9048 171.833 29.0177C171.74 29.1307 171.694 29.2656 171.694 29.4224C171.694 29.6165 171.754 29.7673 171.873 29.875C171.992 29.9826 172.144 30.0365 172.33 30.0365H174.282V30.6306H172.246C172.08 30.6306 171.946 30.6824 171.845 30.7861C171.744 30.8897 171.694 31.0246 171.694 31.1908C171.694 31.3037 171.724 31.4081 171.784 31.5038C171.842 31.5981 171.924 31.6746 172.029 31.733C172.134 31.7902 172.255 31.8188 172.394 31.8188H174.282V32.4149Z" fill="#030712"/>
<path d="M174.282 27.5655H171.219V26.9694H174.282V27.5655ZM170.747 27.2645C170.747 27.3681 170.712 27.4572 170.643 27.5316C170.573 27.6047 170.489 27.6413 170.392 27.6413C170.294 27.6413 170.21 27.6047 170.141 27.5316C170.07 27.4572 170.035 27.3681 170.035 27.2645C170.035 27.1608 170.07 27.0724 170.141 26.9993C170.21 26.9249 170.294 26.8877 170.392 26.8877C170.489 26.8877 170.573 26.9249 170.643 26.9993C170.712 27.0724 170.747 27.1608 170.747 27.2645Z" fill="#030712"/>
<path d="M171.219 24.8503H171.698V26.523H171.219L171.219 24.8503ZM170.486 26.0744L170.486 25.4783H173.382C173.498 25.4783 173.585 25.4611 173.644 25.4265C173.701 25.3919 173.74 25.3474 173.761 25.2929C173.781 25.2371 173.791 25.1766 173.791 25.1115C173.791 25.0637 173.788 25.0218 173.781 24.9859C173.775 24.95 173.769 24.9221 173.765 24.9022L174.258 24.7945C174.271 24.8291 174.284 24.8783 174.298 24.942C174.312 25.0058 174.32 25.0856 174.321 25.1813C174.324 25.3381 174.296 25.4843 174.238 25.6199C174.179 25.7554 174.089 25.8651 173.967 25.9488C173.844 26.0326 173.691 26.0744 173.506 26.0744H170.486Z" fill="#030712"/>
<path d="M170.199 23.6413H174.282V24.2374H170.199L170.199 23.6413Z" fill="#030712"/>
<path d="M174.343 21.6319C174.343 21.9336 174.279 22.1935 174.15 22.4114C174.02 22.6281 173.837 22.7955 173.602 22.9138C173.365 23.0308 173.088 23.0893 172.77 23.0893C172.457 23.0893 172.18 23.0308 171.941 22.9138C171.702 22.7955 171.515 22.6307 171.381 22.4194C171.247 22.2067 171.179 21.9582 171.179 21.6738C171.179 21.501 171.208 21.3335 171.265 21.1714C171.322 21.0092 171.412 20.8637 171.534 20.7348C171.657 20.6059 171.815 20.5042 172.011 20.4298C172.205 20.3553 172.441 20.3181 172.719 20.3181H172.93L172.93 22.7523H172.483L172.483 20.9023C172.326 20.9023 172.188 20.9342 172.067 20.9979C171.944 21.0617 171.848 21.1515 171.778 21.2671C171.707 21.3814 171.672 21.5156 171.672 21.6698C171.672 21.8373 171.713 21.9835 171.796 22.1084C171.877 22.232 171.983 22.3277 172.115 22.3955C172.245 22.4619 172.386 22.4952 172.539 22.4952H172.888C173.093 22.4952 173.267 22.4593 173.41 22.3875C173.554 22.3144 173.664 22.2127 173.739 22.0825C173.814 21.9522 173.851 21.8 173.851 21.6259C173.851 21.513 173.835 21.41 173.803 21.3169C173.77 21.2239 173.721 21.1435 173.656 21.0757C173.59 21.0079 173.51 20.9561 173.414 20.9202L173.516 20.356C173.682 20.4012 173.828 20.4823 173.953 20.5992C174.076 20.7149 174.173 20.8604 174.242 21.0358C174.309 21.2099 174.343 21.4086 174.343 21.6319Z" fill="#030712"/>
<path d="M171.967 17.4744L172.063 18.0146C171.994 18.0372 171.928 18.0731 171.865 18.1223C171.803 18.1701 171.752 18.2353 171.712 18.3177C171.672 18.4001 171.652 18.5031 171.652 18.6267C171.652 18.7955 171.69 18.9364 171.766 19.0493C171.84 19.1623 171.936 19.2188 172.055 19.2188C172.157 19.2188 172.239 19.1809 172.302 19.1051C172.364 19.0294 172.416 18.9071 172.455 18.7383L172.567 18.2519C172.632 17.9701 172.733 17.7601 172.868 17.6219C173.004 17.4837 173.18 17.4146 173.396 17.4146C173.58 17.4146 173.743 17.4677 173.887 17.574C174.029 17.679 174.141 17.8259 174.222 18.0146C174.303 18.202 174.343 18.4193 174.343 18.6666C174.343 19.0095 174.27 19.2892 174.124 19.5059C173.977 19.7225 173.767 19.8554 173.496 19.9046L173.408 19.3284C173.559 19.2925 173.672 19.2188 173.749 19.1071C173.825 18.9955 173.863 18.85 173.863 18.6705C173.863 18.4752 173.822 18.319 173.741 18.202C173.659 18.0851 173.559 18.0266 173.44 18.0266C173.345 18.0266 173.264 18.0625 173.199 18.1343C173.134 18.2047 173.085 18.313 173.052 18.4592L172.938 18.9776C172.873 19.2633 172.769 19.4746 172.627 19.6115C172.485 19.7471 172.305 19.8149 172.087 19.8149C171.906 19.8149 171.748 19.7644 171.612 19.6634C171.477 19.5624 171.371 19.4228 171.295 19.2447C171.218 19.0666 171.179 18.8626 171.179 18.6327C171.179 18.3017 171.251 18.0412 171.395 17.8512C171.537 17.6611 171.728 17.5355 171.967 17.4744Z" fill="#030712"/>
<path d="M171.967 14.5768L172.063 15.117C171.994 15.1396 171.928 15.1755 171.865 15.2247C171.803 15.2726 171.752 15.3377 171.712 15.4201C171.672 15.5025 171.652 15.6055 171.652 15.7291C171.652 15.8979 171.69 16.0388 171.766 16.1517C171.84 16.2647 171.936 16.3212 172.055 16.3212C172.157 16.3212 172.239 16.2833 172.302 16.2076C172.364 16.1318 172.416 16.0095 172.455 15.8407L172.567 15.3543C172.632 15.0725 172.733 14.8625 172.868 14.7243C173.004 14.5861 173.18 14.517 173.396 14.517C173.58 14.517 173.743 14.5701 173.887 14.6765C174.029 14.7815 174.141 14.9283 174.222 15.117C174.303 15.3044 174.343 15.5218 174.343 15.769C174.343 16.1119 174.27 16.3916 174.124 16.6083C173.977 16.8249 173.767 16.9578 173.496 17.007L173.408 16.4308C173.559 16.395 173.672 16.3212 173.749 16.2096C173.825 16.0979 173.863 15.9524 173.863 15.7729C173.863 15.5776 173.822 15.4214 173.741 15.3044C173.659 15.1875 173.559 15.129 173.44 15.129C173.345 15.129 173.264 15.1649 173.199 15.2367C173.134 15.3071 173.085 15.4154 173.052 15.5616L172.938 16.08C172.873 16.3657 172.769 16.577 172.627 16.7139C172.485 16.8495 172.305 16.9173 172.087 16.9173C171.906 16.9173 171.748 16.8668 171.612 16.7658C171.477 16.6648 171.371 16.5252 171.295 16.3471C171.218 16.169 171.179 15.965 171.179 15.7351C171.179 15.4041 171.251 15.1436 171.395 14.9536C171.537 14.7635 171.728 14.6379 171.967 14.5768Z" fill="#030712"/>
</svg>
