<svg width="374" height="188" viewBox="0 0 374 188" fill="none" xmlns="http://www.w3.org/2000/svg">
<g clip-path="url(#clip0_109_45371)">
<path d="M0 8C0 3.58172 3.58172 0 8 0H365.333C369.752 0 373.333 3.58172 373.333 8V180C373.333 184.418 369.752 188 365.333 188H8C3.58173 188 0 184.418 0 180V8Z" fill="url(#paint0_linear_109_45371)"/>
<g style="mix-blend-mode:soft-light">
<path d="M250.334 -16L273.501 7.16667M273.501 7.16667L296.667 30.3333M273.501 7.16667L250.334 30.3333M273.501 7.16667L296.667 -16M250.334 76.6667L273.501 99.8333M273.501 99.8333L296.667 123M273.501 99.8333L250.334 123M273.501 99.8333L296.667 76.6667M343.001 -16L366.167 7.16667M366.167 7.16667L389.334 30.3333M366.167 7.16667L343.001 30.3333M366.167 7.16667L389.334 -16M343.001 76.6667L366.167 99.8333M366.167 99.8333L389.334 123M366.167 99.8333L343.001 123M366.167 99.8333L389.334 76.6667" stroke="white" stroke-width="2"/>
</g>
</g>
<defs>
<linearGradient id="paint0_linear_109_45371" x1="373.333" y1="-4.90198e-05" x2="170.972" y2="169.233" gradientUnits="userSpaceOnUse">
<stop stop-color="#753379"/>
<stop offset="1" stop-color="#010101"/>
</linearGradient>
<clipPath id="clip0_109_45371">
<path d="M0 8C0 3.58172 3.58172 0 8 0H365.333C369.752 0 373.333 3.58172 373.333 8V180C373.333 184.418 369.752 188 365.333 188H8C3.58173 188 0 184.418 0 180V8Z" fill="white"/>
</clipPath>
</defs>
</svg>
