<svg width="374" height="188" viewBox="0 0 374 188" fill="none" xmlns="http://www.w3.org/2000/svg">
<g clip-path="url(#clip0_109_45369)">
<path d="M0.666992 8C0.666992 3.58172 4.24871 0 8.66699 0H366C370.419 0 374 3.58172 374 8V180C374 184.418 370.419 188 366 188H8.667C4.24872 188 0.666992 184.418 0.666992 180V8Z" fill="url(#paint0_linear_109_45369)"/>
<g style="mix-blend-mode:soft-light">
<path d="M364.699 51.0004C364.699 97.7957 345.732 135.731 322.334 135.731C298.936 135.731 279.969 97.7957 279.969 51.0004C279.969 4.20501 298.936 -33.7301 322.334 -33.7301C345.732 -33.7301 364.699 4.20501 364.699 51.0004Z" stroke="white" stroke-width="2"/>
<path d="M322.334 93.3656C275.539 93.3656 237.604 74.398 237.604 51.0004C237.604 27.6027 275.539 8.63512 322.334 8.63511C369.129 8.63511 407.064 27.6027 407.064 51.0003C407.064 74.398 369.129 93.3656 322.334 93.3656Z" stroke="white" stroke-width="2"/>
</g>
</g>
<defs>
<linearGradient id="paint0_linear_109_45369" x1="374" y1="-4.90198e-05" x2="171.639" y2="169.233" gradientUnits="userSpaceOnUse">
<stop stop-color="#2C69A3"/>
<stop offset="1" stop-color="#010101"/>
</linearGradient>
<clipPath id="clip0_109_45369">
<path d="M0.666992 8C0.666992 3.58172 4.24871 0 8.66699 0H366C370.419 0 374 3.58172 374 8V180C374 184.418 370.419 188 366 188H8.667C4.24872 188 0.666992 184.418 0.666992 180V8Z" fill="white"/>
</clipPath>
</defs>
</svg>
