<svg width="374" height="188" viewBox="0 0 374 188" fill="none" xmlns="http://www.w3.org/2000/svg">
<g clip-path="url(#clip0_592_31928)">
<path d="M0.333008 8C0.333008 3.58172 3.91473 0 8.33301 0H365.666C370.085 0 373.666 3.58172 373.666 8V180C373.666 184.418 370.085 188 365.666 188H8.33301C3.91474 188 0.333008 184.418 0.333008 180V8Z" fill="url(#paint0_linear_592_31928)"/>
<g style="mix-blend-mode:soft-light">
<path d="M320.166 -44.7871V-12.0245M320.166 -12.0245V20.7381M320.166 -12.0245H287.403M320.166 -12.0245H352.929M254.641 20.7381V53.5007M254.641 53.5007V86.2633M254.641 53.5007H221.878M254.641 53.5007H287.403M385.691 20.7381V53.5007M385.691 53.5007V86.2633M385.691 53.5007H352.929M385.691 53.5007H418.454M320.166 86.2633V119.026M320.166 119.026V151.789M320.166 119.026H287.403M320.166 119.026H352.929" stroke="white" stroke-width="2"/>
</g>
</g>
<defs>
<linearGradient id="paint0_linear_592_31928" x1="373.666" y1="-4.90198e-05" x2="171.305" y2="169.233" gradientUnits="userSpaceOnUse">
<stop stop-color="#5041A3"/>
<stop offset="1" stop-color="#010101"/>
</linearGradient>
<clipPath id="clip0_592_31928">
<path d="M0.333008 8C0.333008 3.58172 3.91473 0 8.33301 0H365.666C370.085 0 373.666 3.58172 373.666 8V180C373.666 184.418 370.085 188 365.666 188H8.33301C3.91474 188 0.333008 184.418 0.333008 180V8Z" fill="white"/>
</clipPath>
</defs>
</svg>
