<svg width="374" height="188" viewBox="0 0 374 188" fill="none" xmlns="http://www.w3.org/2000/svg">
<g clip-path="url(#clip0_204_69466)">
<path d="M0 8C0 3.58172 3.58172 0 8 0H365.333C369.752 0 373.333 3.58172 373.333 8V180C373.333 184.418 369.752 188 365.333 188H8.00001C3.58173 188 0 184.418 0 180V8Z" fill="url(#paint0_linear_204_69466)"/>
<g style="mix-blend-mode:soft-light">
<path d="M266.415 -16L318.5 36.0851L370.585 -16M370.585 125L318.5 72.9149L266.415 125M389 2.41491L336.915 54.5L389 106.585M248 106.585L300.085 54.5001L248 2.41502" stroke="white" stroke-width="2"/>
</g>
</g>
<path d="M1 8C1 4.13401 4.13401 1 8 1H365.333C369.199 1 372.333 4.13401 372.333 8V180C372.333 183.866 369.199 187 365.333 187H8.00001C4.13401 187 1 183.866 1 180V8Z" stroke="#5041A3" stroke-opacity="0.25" stroke-width="2"/>
<defs>
<linearGradient id="paint0_linear_204_69466" x1="373.333" y1="-4.90198e-05" x2="170.972" y2="169.233" gradientUnits="userSpaceOnUse">
<stop stop-color="#5041A3"/>
<stop offset="1" stop-color="#010101"/>
</linearGradient>
<clipPath id="clip0_204_69466">
<path d="M0 8C0 3.58172 3.58172 0 8 0H365.333C369.752 0 373.333 3.58172 373.333 8V180C373.333 184.418 369.752 188 365.333 188H8.00001C3.58173 188 0 184.418 0 180V8Z" fill="white"/>
</clipPath>
</defs>
</svg>
