<svg width="374" height="188" viewBox="0 0 374 188" fill="none" xmlns="http://www.w3.org/2000/svg">
<g clip-path="url(#clip0_109_45365)">
<path d="M0.333008 8C0.333008 3.58172 3.91473 0 8.33301 0H365.666C370.085 0 373.666 3.58172 373.666 8V180C373.666 184.418 370.085 188 365.666 188H8.33301C3.91473 188 0.333008 184.418 0.333008 180V8Z" fill="url(#paint0_linear_109_45365)"/>
<g style="mix-blend-mode:soft-light">
<path d="M290.709 117.271L237.209 24.6068M306.708 -15.5182C332.296 -30.2918 365.016 -21.5245 379.79 4.06414C394.564 29.6528 385.796 62.3729 360.208 77.1465C334.619 91.9201 301.899 83.1528 287.125 57.5641C272.352 31.9755 281.119 -0.744608 306.708 -15.5182Z" stroke="white" stroke-width="2"/>
</g>
</g>
<defs>
<linearGradient id="paint0_linear_109_45365" x1="373.666" y1="-4.90198e-05" x2="171.305" y2="169.233" gradientUnits="userSpaceOnUse">
<stop stop-color="#A34924"/>
<stop offset="1" stop-color="#010101"/>
</linearGradient>
<clipPath id="clip0_109_45365">
<path d="M0.333008 8C0.333008 3.58172 3.91473 0 8.33301 0H365.666C370.085 0 373.666 3.58172 373.666 8V180C373.666 184.418 370.085 188 365.666 188H8.33301C3.91473 188 0.333008 184.418 0.333008 180V8Z" fill="white"/>
</clipPath>
</defs>
</svg>
