<svg width="374" height="188" viewBox="0 0 374 188" fill="none" xmlns="http://www.w3.org/2000/svg">
<g clip-path="url(#clip0_204_69468)">
<path d="M0.333984 8C0.333984 3.58172 3.91571 0 8.33398 0H365.667C370.086 0 373.667 3.58172 373.667 8V180C373.667 184.418 370.086 188 365.667 188H8.33399C3.91571 188 0.333984 184.418 0.333984 180V8Z" fill="url(#paint0_linear_204_69468)"/>
<g style="mix-blend-mode:soft-light">
<path d="M288.5 51C269.998 51 255 36.0015 255 17.5C255 -1.00155 269.998 -16 288.5 -16C307.002 -16 322 -1.00154 322 17.5M288.5 51C307.002 51 322 36.0015 322 17.5M288.5 51C288.5 69.5015 303.498 84.5 322 84.5M288.5 51C288.5 32.4985 303.498 17.5 322 17.5M322 17.5C340.502 17.5 355.5 32.4985 355.5 51M322 84.5C340.502 84.5 355.5 69.5015 355.5 51M322 84.5C322 103.002 336.998 118 355.5 118C374.002 118 389 103.002 389 84.5C389 65.9985 374.002 51 355.5 51M322 84.5C322 65.9985 336.998 51 355.5 51" stroke="white" stroke-width="2"/>
</g>
</g>
<path d="M1.33398 8C1.33398 4.13401 4.46799 1 8.33398 1H365.667C369.533 1 372.667 4.13401 372.667 8V180C372.667 183.866 369.533 187 365.667 187H8.33399C4.468 187 1.33398 183.866 1.33398 180V8Z" stroke="#B04F50" stroke-opacity="0.25" stroke-width="2"/>
<defs>
<linearGradient id="paint0_linear_204_69468" x1="373.667" y1="-4.90198e-05" x2="171.306" y2="169.233" gradientUnits="userSpaceOnUse">
<stop stop-color="#B04F50"/>
<stop offset="1" stop-color="#010101"/>
</linearGradient>
<clipPath id="clip0_204_69468">
<path d="M0.333984 8C0.333984 3.58172 3.91571 0 8.33398 0H365.667C370.086 0 373.667 3.58172 373.667 8V180C373.667 184.418 370.086 188 365.667 188H8.33399C3.91571 188 0.333984 184.418 0.333984 180V8Z" fill="white"/>
</clipPath>
</defs>
</svg>
