<svg width="374" height="188" viewBox="0 0 374 188" fill="none" xmlns="http://www.w3.org/2000/svg">
<g clip-path="url(#clip0_109_45367)">
<path d="M0 8C0 3.58172 3.58172 0 8 0H365.333C369.752 0 373.333 3.58172 373.333 8V180C373.333 184.418 369.752 188 365.333 188H8C3.58173 188 0 184.418 0 180V8Z" fill="url(#paint0_linear_109_45367)"/>
<g style="mix-blend-mode:soft-light">
<path d="M321.666 84.5C321.666 103.002 306.668 118 288.166 118C269.664 118 254.666 103.002 254.666 84.5C254.666 65.9985 269.664 51 288.166 51M321.666 84.5C321.666 65.9985 306.668 51 288.166 51M321.666 84.5C340.168 84.5 355.166 69.5015 355.166 51M321.666 84.5C303.164 84.5 288.166 69.5015 288.166 51M288.166 51C288.166 32.4985 303.164 17.5 321.666 17.5M355.166 51C355.166 32.4985 340.168 17.5 321.666 17.5M355.166 51C373.668 51 388.666 36.0015 388.666 17.5C388.666 -1.00154 373.668 -16 355.166 -16C336.664 -16 321.666 -1.00154 321.666 17.5M355.166 51C336.664 51 321.666 36.0015 321.666 17.5" stroke="white" stroke-width="2"/>
</g>
</g>
<defs>
<linearGradient id="paint0_linear_109_45367" x1="373.333" y1="-4.90198e-05" x2="170.972" y2="169.233" gradientUnits="userSpaceOnUse">
<stop stop-color="#C28732"/>
<stop offset="1" stop-color="#010101"/>
</linearGradient>
<clipPath id="clip0_109_45367">
<path d="M0 8C0 3.58172 3.58172 0 8 0H365.333C369.752 0 373.333 3.58172 373.333 8V180C373.333 184.418 369.752 188 365.333 188H8C3.58173 188 0 184.418 0 180V8Z" fill="white"/>
</clipPath>
</defs>
</svg>
