<svg width="374" height="188" viewBox="0 0 374 188" fill="none" xmlns="http://www.w3.org/2000/svg">
<g clip-path="url(#clip0_109_45361)">
<path d="M0 8C0 3.58172 3.58172 0 8 0H365.333C369.752 0 373.333 3.58172 373.333 8V180C373.333 184.418 369.752 188 365.333 188H8C3.58173 188 0 184.418 0 180V8Z" fill="url(#paint0_linear_109_45361)"/>
<g style="mix-blend-mode:soft-light">
<path d="M351.957 21.0432C385.046 54.1326 398.458 94.3688 381.913 110.913C365.369 127.458 325.133 114.046 292.043 80.9567C258.954 47.8674 245.542 7.63116 262.087 -8.9135C278.631 -25.4582 318.867 -12.0461 351.957 21.0432Z" stroke="white" stroke-width="2"/>
<path d="M351.957 80.9568C318.867 114.046 278.631 127.458 262.087 110.913C245.542 94.3688 258.954 54.1326 292.043 21.0433C325.133 -12.046 365.369 -25.4581 381.913 -8.91348C398.458 7.63117 385.046 47.8674 351.957 80.9568Z" stroke="white" stroke-width="2"/>
</g>
</g>
<defs>
<linearGradient id="paint0_linear_109_45361" x1="373.333" y1="-4.90198e-05" x2="170.972" y2="169.233" gradientUnits="userSpaceOnUse">
<stop stop-color="#822E25"/>
<stop offset="1" stop-color="#010101"/>
</linearGradient>
<clipPath id="clip0_109_45361">
<path d="M0 8C0 3.58172 3.58172 0 8 0H365.333C369.752 0 373.333 3.58172 373.333 8V180C373.333 184.418 369.752 188 365.333 188H8C3.58173 188 0 184.418 0 180V8Z" fill="white"/>
</clipPath>
</defs>
</svg>
