<svg width="374" height="188" viewBox="0 0 374 188" fill="none" xmlns="http://www.w3.org/2000/svg">
<g clip-path="url(#clip0_204_69482)">
<path d="M0.666016 8C0.666016 3.58172 4.24774 0 8.66602 0H365.999C370.418 0 373.999 3.58172 373.999 8V180C373.999 184.418 370.418 188 365.999 188H8.66602C4.24774 188 0.666016 184.418 0.666016 180V8Z" fill="url(#paint0_linear_204_69482)"/>
<g style="mix-blend-mode:soft-light">
<path d="M251 -16L274.167 7.16667M274.167 7.16667L297.333 30.3333M274.167 7.16667L251 30.3333M274.167 7.16667L297.333 -16M251 76.6667L274.167 99.8333M274.167 99.8333L297.333 123M274.167 99.8333L251 123M274.167 99.8333L297.333 76.6667M343.667 -16L366.833 7.16667M366.833 7.16667L390 30.3333M366.833 7.16667L343.667 30.3333M366.833 7.16667L390 -16M343.667 76.6667L366.833 99.8333M366.833 99.8333L390 123M366.833 99.8333L343.667 123M366.833 99.8333L390 76.6667" stroke="white" stroke-width="2"/>
</g>
</g>
<path d="M1.66602 8C1.66602 4.13401 4.80002 1 8.66602 1H365.999C369.865 1 372.999 4.13401 372.999 8V180C372.999 183.866 369.865 187 365.999 187H8.66602C4.80003 187 1.66602 183.866 1.66602 180V8Z" stroke="#753379" stroke-opacity="0.25" stroke-width="2"/>
<defs>
<linearGradient id="paint0_linear_204_69482" x1="373.999" y1="-4.90198e-05" x2="171.638" y2="169.233" gradientUnits="userSpaceOnUse">
<stop stop-color="#753379"/>
<stop offset="1" stop-color="#010101"/>
</linearGradient>
<clipPath id="clip0_204_69482">
<path d="M0.666016 8C0.666016 3.58172 4.24774 0 8.66602 0H365.999C370.418 0 373.999 3.58172 373.999 8V180C373.999 184.418 370.418 188 365.999 188H8.66602C4.24774 188 0.666016 184.418 0.666016 180V8Z" fill="white"/>
</clipPath>
</defs>
</svg>
