<svg width="374" height="188" viewBox="0 0 374 188" fill="none" xmlns="http://www.w3.org/2000/svg">
<g clip-path="url(#clip0_109_45357)">
<path d="M0 8C0 3.58172 3.58172 0 8 0H365.333C369.752 0 373.333 3.58172 373.333 8V180C373.333 184.418 369.752 188 365.333 188H8C3.58173 188 0 184.418 0 180V8Z" fill="url(#paint0_linear_109_45357)"/>
<g style="mix-blend-mode:soft-light">
<path d="M288.167 51C269.665 51 254.667 36.0015 254.667 17.5C254.667 -1.00155 269.665 -16 288.167 -16C306.669 -16 321.667 -1.00154 321.667 17.5M288.167 51C306.669 51 321.667 36.0015 321.667 17.5M288.167 51C288.167 69.5015 303.165 84.5 321.667 84.5M288.167 51C288.167 32.4985 303.165 17.5 321.667 17.5M321.667 17.5C340.169 17.5 355.167 32.4985 355.167 51M321.667 84.5C340.169 84.5 355.167 69.5015 355.167 51M321.667 84.5C321.667 103.002 336.665 118 355.167 118C373.669 118 388.667 103.002 388.667 84.5C388.667 65.9985 373.669 51 355.167 51M321.667 84.5C321.667 65.9985 336.665 51 355.167 51" stroke="white" stroke-width="2"/>
</g>
</g>
<defs>
<linearGradient id="paint0_linear_109_45357" x1="373.333" y1="-4.90198e-05" x2="170.972" y2="169.233" gradientUnits="userSpaceOnUse">
<stop stop-color="#B04F50"/>
<stop offset="1" stop-color="#010101"/>
</linearGradient>
<clipPath id="clip0_109_45357">
<path d="M0 8C0 3.58172 3.58172 0 8 0H365.333C369.752 0 373.333 3.58172 373.333 8V180C373.333 184.418 369.752 188 365.333 188H8C3.58173 188 0 184.418 0 180V8Z" fill="white"/>
</clipPath>
</defs>
</svg>
