<svg width="374" height="188" viewBox="0 0 374 188" fill="none" xmlns="http://www.w3.org/2000/svg">
<g clip-path="url(#clip0_204_69474)">
<path d="M0.333984 8C0.333984 3.58172 3.91571 0 8.33398 0H365.667C370.086 0 373.667 3.58172 373.667 8V180C373.667 184.418 370.086 188 365.667 188H8.33399C3.91571 188 0.333984 184.418 0.333984 180V8Z" fill="url(#paint0_linear_204_69474)"/>
<g style="mix-blend-mode:soft-light">
<path d="M395.709 120.545L252.874 -22.2907M306.437 102.69L377.855 31.2726M270.728 66.9815L342.146 -4.43629" stroke="white" stroke-width="2"/>
</g>
</g>
<path d="M1.33398 8C1.33398 4.13401 4.46799 1 8.33398 1H365.667C369.533 1 372.667 4.13401 372.667 8V180C372.667 183.866 369.533 187 365.667 187H8.33399C4.468 187 1.33398 183.866 1.33398 180V8Z" stroke="#275D38" stroke-opacity="0.25" stroke-width="2"/>
<defs>
<linearGradient id="paint0_linear_204_69474" x1="373.667" y1="-4.90198e-05" x2="171.306" y2="169.233" gradientUnits="userSpaceOnUse">
<stop stop-color="#275D38"/>
<stop offset="1" stop-color="#010101"/>
</linearGradient>
<clipPath id="clip0_204_69474">
<path d="M0.333984 8C0.333984 3.58172 3.91571 0 8.33398 0H365.667C370.086 0 373.667 3.58172 373.667 8V180C373.667 184.418 370.086 188 365.667 188H8.33399C3.91571 188 0.333984 184.418 0.333984 180V8Z" fill="white"/>
</clipPath>
</defs>
</svg>
