<svg xmlns="http://www.w3.org/2000/svg" width="16" height="16" viewBox="0 0 16 16" fill="none">
    <g clip-path="url(#clip0_1017_222244)">
        <mask id="mask0_1017_222244" style="mask-type:luminance" maskUnits="userSpaceOnUse" x="0" y="0" width="16" height="16">
            <path d="M8 16C3.58144 16 0 12.4186 0 8C0 3.58144 3.58144 0 8 0C12.4186 0 16 3.58144 16 8C16 12.4186 12.4186 16 8 16Z" fill="white"/>
        </mask>
        <g mask="url(#mask0_1017_222244)">
            <path fill-rule="evenodd" clip-rule="evenodd" d="M8.00001 7.99992L-3.31519 7.93016L-3.30495 7.51416L8.00001 7.99992Z" fill="#FEFEFF"/>
            <path fill-rule="evenodd" clip-rule="evenodd" d="M8.00003 8.00009L-3.30685 7.58345L-3.28957 7.23657L8.00003 8.00009Z" fill="#FDFEFF"/>
            <path fill-rule="evenodd" clip-rule="evenodd" d="M8.00001 7.99996L-3.29343 7.3062L-3.26783 6.95996L8.00001 7.99996Z" fill="#FCFDFF"/>
            <path fill-rule="evenodd" clip-rule="evenodd" d="M8.00001 8.00007L-3.27295 7.02919L-3.23903 6.68359L8.00001 8.00007Z" fill="#FBFCFF"/>
            <path fill-rule="evenodd" clip-rule="evenodd" d="M8.00002 8.00013L-3.24542 6.75277L-3.20318 6.40845L8.00002 8.00013Z" fill="#FAFCFF"/>
            <path fill-rule="evenodd" clip-rule="evenodd" d="M8 8.00003L-3.21152 6.47747L-3.16096 6.13379L8 8.00003Z" fill="#F9FBFF"/>
            <path fill-rule="evenodd" clip-rule="evenodd" d="M8.00003 8.00012L-3.17053 6.20236L-3.11165 5.8606L8.00003 8.00012Z" fill="#F8FAFF"/>
            <path fill-rule="evenodd" clip-rule="evenodd" d="M8 7.9999L-3.1232 5.92886L-3.056 5.58838L8 7.9999Z" fill="#F7FAFF"/>
            <path fill-rule="evenodd" clip-rule="evenodd" d="M8.00001 8.00011L-3.06943 5.65707L-2.99327 5.31787L8.00001 8.00011Z" fill="#F6F9FF"/>
            <path fill-rule="evenodd" clip-rule="evenodd" d="M8 8.00011L-3.00864 5.38571L-2.92416 5.04907L8 8.00011Z" fill="#F5F8FF"/>
            <path fill-rule="evenodd" clip-rule="evenodd" d="M8 8.00005L-2.9408 5.11621L-2.84864 4.78149L8 8.00005Z" fill="#F4F8FF"/>
            <path fill-rule="evenodd" clip-rule="evenodd" d="M8.00001 8.00012L-2.86719 4.84876L-2.76607 4.5166L8.00001 8.00012Z" fill="#F3F7FF"/>
            <path fill-rule="evenodd" clip-rule="evenodd" d="M8 7.99998L-2.78656 4.58302L-2.67712 4.25342L8 7.99998Z" fill="#F2F6FF"/>
            <path fill-rule="evenodd" clip-rule="evenodd" d="M8.00003 8.00011L-2.69949 4.31947L-2.58237 3.99243L8.00003 8.00011Z" fill="#F1F6FF"/>
            <path fill-rule="evenodd" clip-rule="evenodd" d="M8 8.00013L-2.60544 4.05773L-2.48064 3.73389L8 8.00013Z" fill="#F0F5FF"/>
            <path fill-rule="evenodd" clip-rule="evenodd" d="M8.00002 8.00002L-2.50558 3.79842L-2.3731 3.47778L8.00002 8.00002Z" fill="#EFF4FF"/>
            <path fill-rule="evenodd" clip-rule="evenodd" d="M8.00001 7.99989L-2.39935 3.54165L-2.25855 3.22485L8.00001 7.99989Z" fill="#EEF3FF"/>
            <path fill-rule="evenodd" clip-rule="evenodd" d="M8.00001 8.00013L-2.28671 3.28845L-2.13823 2.97485L8.00001 8.00013Z" fill="#EDF3FF"/>
            <path fill-rule="evenodd" clip-rule="evenodd" d="M8.00002 8.00001L-2.1683 3.03745L-2.01214 2.72705L8.00002 8.00001Z" fill="#ECF2FF"/>
            <path fill-rule="evenodd" clip-rule="evenodd" d="M8 7.99995L-2.04352 2.78907L-1.87968 2.48315L8 7.99995Z" fill="#EBF1FF"/>
            <path fill-rule="evenodd" clip-rule="evenodd" d="M8.00003 8.00002L-1.91229 2.54466L-1.74141 2.24194L8.00003 8.00002Z" fill="#EAF1FF"/>
            <path fill-rule="evenodd" clip-rule="evenodd" d="M8 8.00001L-1.77536 2.30273L-1.5968 2.00513L8 8.00001Z" fill="#E9F0FF"/>
            <path fill-rule="evenodd" clip-rule="evenodd" d="M8.00001 8.00012L-1.63263 2.06476L-1.44703 1.771L8.00001 8.00012Z" fill="#E8EFFF"/>
            <path fill-rule="evenodd" clip-rule="evenodd" d="M8.00003 7.9999L-1.48413 1.82966L-1.29085 1.54102L8.00003 7.9999Z" fill="#E7EFFF"/>
            <path fill-rule="evenodd" clip-rule="evenodd" d="M8.00002 7.99999L-1.3299 1.59871L-1.13022 1.31519L8.00002 7.99999Z" fill="#E6EEFF"/>
            <path fill-rule="evenodd" clip-rule="evenodd" d="M8.00003 7.9999L-1.16989 1.37206L-0.963171 1.09302L8.00003 7.9999Z" fill="#E5EDFF"/>
            <path fill-rule="evenodd" clip-rule="evenodd" d="M8.00001 8.00012L-1.00479 1.14892L-0.791031 0.875L8.00001 8.00012Z" fill="#E4EDFF"/>
            <path fill-rule="evenodd" clip-rule="evenodd" d="M8.00003 8.0001L-0.833893 0.930025L-0.613733 0.661865L8.00003 8.0001Z" fill="#E3ECFF"/>
            <path fill-rule="evenodd" clip-rule="evenodd" d="M8.00002 7.99991L-0.657257 0.715433L-0.430697 0.452393L8.00002 7.99991Z" fill="#E2EBFF"/>
            <path fill-rule="evenodd" clip-rule="evenodd" d="M8.00002 8.00012L-0.476135 0.505083L-0.243175 0.247803L8.00002 8.00012Z" fill="#E1EBFF"/>
            <path fill-rule="evenodd" clip-rule="evenodd" d="M8 8.0001L-0.289917 0.299616L-0.050557 0.0480957L8 8.0001Z" fill="#E0EAFF"/>
            <path fill-rule="evenodd" clip-rule="evenodd" d="M8.00002 7.99998L-0.0985413 0.0985432L0.147219 -0.147217L8.00002 7.99998Z" fill="#DFE9FF"/>
            <path fill-rule="evenodd" clip-rule="evenodd" d="M8.00001 8.00012L0.0985718 -0.0984382L0.349452 -0.337158L8.00001 8.00012Z" fill="#DEE9FF"/>
            <path fill-rule="evenodd" clip-rule="evenodd" d="M8.00001 7.99993L0.29953 -0.289989L0.55681 -0.522949L8.00001 7.99993Z" fill="#DDE8FF"/>
            <path fill-rule="evenodd" clip-rule="evenodd" d="M8.00001 8.00008L0.504974 -0.476077L0.768014 -0.702637L8.00001 8.00008Z" fill="#DCE7FF"/>
            <path fill-rule="evenodd" clip-rule="evenodd" d="M8.00003 8L0.715546 -0.657281L0.983706 -0.877441L8.00003 8Z" fill="#DBE7FF"/>
            <path fill-rule="evenodd" clip-rule="evenodd" d="M8.00001 7.99992L0.929932 -0.833999L1.20385 -1.04712L8.00001 7.99992Z" fill="#DAE6FF"/>
            <path fill-rule="evenodd" clip-rule="evenodd" d="M8 8.00009L1.1488 -1.00471L1.42784 -1.21143L8 8.00009Z" fill="#D9E5FF"/>
            <path fill-rule="evenodd" clip-rule="evenodd" d="M8 7.99997L1.37216 -1.16995L1.65568 -1.36963L8 7.99997Z" fill="#D8E5FF"/>
            <path fill-rule="evenodd" clip-rule="evenodd" d="M8 8.0001L1.59872 -1.32982L1.88736 -1.52246L8 8.0001Z" fill="#D7E4FF"/>
            <path fill-rule="evenodd" clip-rule="evenodd" d="M8.00001 8.00008L1.82977 -1.48408L2.12353 -1.66968L8.00001 8.00008Z" fill="#D6E3FF"/>
            <path fill-rule="evenodd" clip-rule="evenodd" d="M8.00003 7.99992L2.06467 -1.63272L2.36227 -1.81128L8.00003 7.99992Z" fill="#D5E3FF"/>
            <path fill-rule="evenodd" clip-rule="evenodd" d="M8.00001 7.99995L2.30273 -1.77541L2.60481 -1.94629L8.00001 7.99995Z" fill="#D4E2FF"/>
            <path fill-rule="evenodd" clip-rule="evenodd" d="M8.00001 7.99999L2.54465 -1.91233L2.85057 -2.07617L8.00001 7.99999Z" fill="#D3E1FF"/>
            <path fill-rule="evenodd" clip-rule="evenodd" d="M8 8.00006L2.78912 -2.04345L3.09952 -2.19897L8 8.00006Z" fill="#D2E0FF"/>
            <path fill-rule="evenodd" clip-rule="evenodd" d="M8.00001 8L3.03745 -2.16832L3.35104 -2.31616L8.00001 8Z" fill="#D1E0FF"/>
            <path fill-rule="evenodd" clip-rule="evenodd" d="M8.00001 8.00003L3.28833 -2.28669L3.60577 -2.42749L8.00001 8.00003Z" fill="#D0DFFF"/>
            <path fill-rule="evenodd" clip-rule="evenodd" d="M8.00002 8.00001L3.54178 -2.39935L3.86306 -2.53247L8.00002 8.00001Z" fill="#CFDEFF"/>
            <path fill-rule="evenodd" clip-rule="evenodd" d="M8 8.00003L3.7984 -2.50557L4.12288 -2.63037L8 8.00003Z" fill="#CEDEFF"/>
            <path fill-rule="evenodd" clip-rule="evenodd" d="M8.00002 7.9999L4.05762 -2.60554L4.38466 -2.72266L8.00002 7.9999Z" fill="#CDDDFF"/>
            <path fill-rule="evenodd" clip-rule="evenodd" d="M8.00001 8.00006L4.31937 -2.69946L4.64897 -2.80762L8.00001 8.00006Z" fill="#CCDCFF"/>
            <path fill-rule="evenodd" clip-rule="evenodd" d="M8.00003 8.00008L4.58307 -2.78648L4.91523 -2.88696L8.00003 8.00008Z" fill="#CBDCFF"/>
            <path fill-rule="evenodd" clip-rule="evenodd" d="M8.00002 8.00013L4.84866 -2.86707L5.18338 -2.95923L8.00002 8.00013Z" fill="#CADBFF"/>
            <path fill-rule="evenodd" clip-rule="evenodd" d="M8.00002 8.00013L5.11618 -2.94067L5.45282 -3.02515L8.00002 8.00013Z" fill="#C9DAFF"/>
            <path fill-rule="evenodd" clip-rule="evenodd" d="M8.00002 7.99993L5.38562 -3.00871L5.72418 -3.08423L8.00002 7.99993Z" fill="#C8DAFF"/>
            <path fill-rule="evenodd" clip-rule="evenodd" d="M8.00002 7.99992L5.65698 -3.06952L5.99682 -3.13672L8.00002 7.99992Z" fill="#C7D9FF"/>
            <path fill-rule="evenodd" clip-rule="evenodd" d="M8.00003 8.0001L5.92899 -3.1231L6.27075 -3.18262L8.00003 8.0001Z" fill="#C6D8FF"/>
            <path fill-rule="evenodd" clip-rule="evenodd" d="M8 8.00008L6.20224 -3.17048L6.54592 -3.22168L8 8.00008Z" fill="#C5D8FF"/>
            <path fill-rule="evenodd" clip-rule="evenodd" d="M8.00001 8.0001L6.47745 -3.21142L6.82177 -3.25366L8.00001 8.0001Z" fill="#C4D7FF"/>
            <path fill-rule="evenodd" clip-rule="evenodd" d="M8.00002 8.00006L6.75266 -3.24538L7.09826 -3.2793L8.00002 8.00006Z" fill="#C3D6FF"/>
            <path fill-rule="evenodd" clip-rule="evenodd" d="M8.00002 7.99998L7.02914 -3.27298L7.37538 -3.29858L8.00002 7.99998Z" fill="#C2D6FF"/>
            <path fill-rule="evenodd" clip-rule="evenodd" d="M8 8.00002L7.30624 -3.29342L7.65312 -3.31006L8 8.00002Z" fill="#C1D5FF"/>
            <path fill-rule="evenodd" clip-rule="evenodd" d="M8.00001 8.00001L7.58337 -3.30687L7.93025 -3.31519L8.00001 8.00001Z" fill="#C0D4FF"/>
            <path fill-rule="evenodd" clip-rule="evenodd" d="M8.00002 7.99996L7.86115 -3.31396H8.20802L8.00002 7.99996Z" fill="#BFD4FF"/>
            <path fill-rule="evenodd" clip-rule="evenodd" d="M8 7.99996L8.13888 -3.31396L8.48576 -3.30501L8 7.99996Z" fill="#BED3FF"/>
            <path fill-rule="evenodd" clip-rule="evenodd" d="M8 8L8.41664 -3.30688L8.76288 -3.2896L8 8Z" fill="#BDD2FF"/>
            <path fill-rule="evenodd" clip-rule="evenodd" d="M8 7.99998L8.69376 -3.29346L9.04 -3.26786L8 7.99998Z" fill="#BCD2FF"/>
            <path fill-rule="evenodd" clip-rule="evenodd" d="M8 8.00001L8.97088 -3.27295L9.31648 -3.23903L8 8.00001Z" fill="#BBD1FF"/>
            <path fill-rule="evenodd" clip-rule="evenodd" d="M8 8.00008L9.24672 -3.24536L9.59168 -3.20312L8 8.00008Z" fill="#BAD0FF"/>
            <path fill-rule="evenodd" clip-rule="evenodd" d="M8 8.00009L9.52256 -3.21143L9.86624 -3.16087L8 8.00009Z" fill="#B9D0FF"/>
            <path fill-rule="evenodd" clip-rule="evenodd" d="M8 7.99991L9.79712 -3.17065L10.1395 -3.11177L8 7.99991Z" fill="#B8CFFF"/>
            <path fill-rule="evenodd" clip-rule="evenodd" d="M8 7.99991L10.071 -3.12329L10.4115 -3.05609L8 7.99991Z" fill="#B7CEFF"/>
            <path fill-rule="evenodd" clip-rule="evenodd" d="M8 8.0001L10.343 -3.06934L10.6822 -2.99318L8 8.0001Z" fill="#B6CDFF"/>
            <path fill-rule="evenodd" clip-rule="evenodd" d="M8 8.0001L10.6144 -3.00854L10.951 -2.92406L8 8.0001Z" fill="#B5CDFF"/>
            <path fill-rule="evenodd" clip-rule="evenodd" d="M8 8.00013L10.8838 -2.94067L11.2179 -2.84851L8 8.00013Z" fill="#B4CCFF"/>
            <path fill-rule="evenodd" clip-rule="evenodd" d="M8 8.00001L11.1514 -2.86719L11.4835 -2.76607L8 8.00001Z" fill="#B3CBFF"/>
            <path fill-rule="evenodd" clip-rule="evenodd" d="M8 7.99994L11.417 -2.78662L11.7466 -2.67718L8 7.99994Z" fill="#B2CBFF"/>
            <path fill-rule="evenodd" clip-rule="evenodd" d="M8 8.00006L11.6806 -2.69946L12.0077 -2.58234L8 8.00006Z" fill="#B1CAFF"/>
            <path fill-rule="evenodd" clip-rule="evenodd" d="M8 7.99997L11.9424 -2.60547L12.2662 -2.48067L8 7.99997Z" fill="#B0C9FF"/>
            <path fill-rule="evenodd" clip-rule="evenodd" d="M8 7.99999L12.201 -2.50562L12.5222 -2.37314L8 7.99999Z" fill="#AFC9FF"/>
            <path fill-rule="evenodd" clip-rule="evenodd" d="M8 7.99995L12.4576 -2.39941L12.775 -2.25861L8 7.99995Z" fill="#AEC8FF"/>
            <path fill-rule="evenodd" clip-rule="evenodd" d="M8 8.0001L12.7117 -2.28662L13.0253 -2.13814L8 8.0001Z" fill="#ADC7FF"/>
            <path fill-rule="evenodd" clip-rule="evenodd" d="M8 8.00011L12.9626 -2.16821L13.273 -2.01205L8 8.00011Z" fill="#ACC7FF"/>
            <path fill-rule="evenodd" clip-rule="evenodd" d="M8 8.00006L13.2109 -2.04346L13.5168 -1.87962L8 8.00006Z" fill="#ABC6FF"/>
            <path fill-rule="evenodd" clip-rule="evenodd" d="M8 7.99997L13.4554 -1.91235L13.7581 -1.74147L8 7.99997Z" fill="#AAC5FF"/>
            <path fill-rule="evenodd" clip-rule="evenodd" d="M8 7.99997L13.6973 -1.77539L13.9949 -1.59683L8 7.99997Z" fill="#A9C5FF"/>
            <path fill-rule="evenodd" clip-rule="evenodd" d="M8 8.00007L13.9354 -1.63257L14.2285 -1.44697L8 8.00007Z" fill="#A8C4FF"/>
            <path fill-rule="evenodd" clip-rule="evenodd" d="M8 8.00003L14.1702 -1.48413L14.4589 -1.29085L8 8.00003Z" fill="#A7C3FF"/>
            <path fill-rule="evenodd" clip-rule="evenodd" d="M8 8.00009L14.4013 -1.32983L14.6848 -1.13015L8 8.00009Z" fill="#A6C3FF"/>
            <path fill-rule="evenodd" clip-rule="evenodd" d="M8 8L14.6278 -1.16992L14.9069 -0.963202L8 8Z" fill="#A5C2FF"/>
            <path fill-rule="evenodd" clip-rule="evenodd" d="M8 7.99992L14.8512 -1.00488L15.1245 -0.791123L8 7.99992Z" fill="#A4C1FF"/>
            <path fill-rule="evenodd" clip-rule="evenodd" d="M8 7.99994L15.0701 -0.833984L15.3382 -0.613824L8 7.99994Z" fill="#A3C1FF"/>
            <path fill-rule="evenodd" clip-rule="evenodd" d="M8 8.00005L15.2845 -0.657227L15.5475 -0.430667L8 8.00005Z" fill="#A2C0FF"/>
            <path fill-rule="evenodd" clip-rule="evenodd" d="M8 8.00009L15.495 -0.476074L15.7523 -0.243114L8 8.00009Z" fill="#A1BFFF"/>
            <path fill-rule="evenodd" clip-rule="evenodd" d="M8 8.00012L15.7005 -0.289795L15.952 -0.0504349L8 8.00012Z" fill="#A0BFFF"/>
            <path fill-rule="evenodd" clip-rule="evenodd" d="M8 7.99993L15.9014 -0.0986328L16.1472 0.147127L8 7.99993Z" fill="#9FBEFF"/>
            <path fill-rule="evenodd" clip-rule="evenodd" d="M8 8.00007L16.0979 0.0986328L16.3373 0.349513L8 8.00007Z" fill="#9EBDFF"/>
            <path fill-rule="evenodd" clip-rule="evenodd" d="M8 8.00004L16.2899 0.299561L16.5229 0.556841L8 8.00004Z" fill="#9DBDFF"/>
            <path fill-rule="evenodd" clip-rule="evenodd" d="M8 7.99992L16.4762 0.504883L16.7027 0.767923L8 7.99992Z" fill="#9CBCFF"/>
            <path fill-rule="evenodd" clip-rule="evenodd" d="M8 8.00006L16.6573 0.715576L16.8774 0.983736L8 8.00006Z" fill="#9BBBFF"/>
            <path fill-rule="evenodd" clip-rule="evenodd" d="M8 8.00001L16.8339 0.929932L17.047 1.20385L8 8.00001Z" fill="#9ABAFF"/>
            <path fill-rule="evenodd" clip-rule="evenodd" d="M8 8.00013L17.0048 1.14893L17.2115 1.42797L8 8.00013Z" fill="#99BAFF"/>
            <path fill-rule="evenodd" clip-rule="evenodd" d="M8 7.99991L17.1699 1.37207L17.3696 1.65559L8 7.99991Z" fill="#98B9FF"/>
            <path fill-rule="evenodd" clip-rule="evenodd" d="M8 7.99991L17.3299 1.59863L17.5226 1.88727L8 7.99991Z" fill="#97B8FF"/>
            <path fill-rule="evenodd" clip-rule="evenodd" d="M8 8.00007L17.4842 1.82983L17.6698 2.12359L8 8.00007Z" fill="#96B8FF"/>
            <path fill-rule="evenodd" clip-rule="evenodd" d="M8 8.00006L17.6326 2.0647L17.8112 2.3623L8 8.00006Z" fill="#95B7FF"/>
            <path fill-rule="evenodd" clip-rule="evenodd" d="M8 8.00001L17.7754 2.30273L17.9462 2.60481L8 8.00001Z" fill="#94B6FF"/>
            <path fill-rule="evenodd" clip-rule="evenodd" d="M8 8.00004L17.9123 2.54468L18.0755 2.8506L8 8.00004Z" fill="#93B6FF"/>
            <path fill-rule="evenodd" clip-rule="evenodd" d="M8 7.99994L18.0429 2.78906L18.199 3.09946L8 7.99994Z" fill="#92B5FF"/>
            <path fill-rule="evenodd" clip-rule="evenodd" d="M8 7.99991L18.1683 3.03735L18.3162 3.35095L8 7.99991Z" fill="#91B4FF"/>
            <path fill-rule="evenodd" clip-rule="evenodd" d="M8 8.00001L18.2867 3.28833L18.4275 3.60577L8 8.00001Z" fill="#90B4FF"/>
            <path fill-rule="evenodd" clip-rule="evenodd" d="M8 7.99999L18.3994 3.54175L18.5318 3.86303L8 7.99999Z" fill="#8FB3FF"/>
            <path fill-rule="evenodd" clip-rule="evenodd" d="M8 7.99994L18.5056 3.79834L18.6304 4.12282L8 7.99994Z" fill="#8EB2FF"/>
            <path fill-rule="evenodd" clip-rule="evenodd" d="M8 8.00002L18.6054 4.05762L18.7226 4.38466L8 8.00002Z" fill="#8DB2FF"/>
            <path fill-rule="evenodd" clip-rule="evenodd" d="M8 7.99998L18.6989 4.31934L18.8077 4.64894L8 7.99998Z" fill="#8CB1FF"/>
            <path fill-rule="evenodd" clip-rule="evenodd" d="M8 7.99997L18.7859 4.58301L18.887 4.91517L8 7.99997Z" fill="#8BB0FF"/>
            <path fill-rule="evenodd" clip-rule="evenodd" d="M8 7.99999L18.8666 4.84863L18.9594 5.18335L8 7.99999Z" fill="#8AB0FF"/>
            <path fill-rule="evenodd" clip-rule="evenodd" d="M8 8.00005L18.9408 5.11621L19.0253 5.45285L8 8.00005Z" fill="#89AFFF"/>
            <path fill-rule="evenodd" clip-rule="evenodd" d="M8 7.9999L19.0086 5.3855L19.0842 5.72406L8 7.9999Z" fill="#88AEFF"/>
            <path fill-rule="evenodd" clip-rule="evenodd" d="M8 8.00002L19.0688 5.65698L19.1366 5.99682L8 8.00002Z" fill="#87AEFF"/>
            <path fill-rule="evenodd" clip-rule="evenodd" d="M8 7.99999L19.1232 5.92896L19.1827 6.27071L8 7.99999Z" fill="#86ADFF"/>
            <path fill-rule="evenodd" clip-rule="evenodd" d="M8 7.99991L19.1706 6.20215L19.2218 6.54583L8 7.99991Z" fill="#85ACFF"/>
            <path fill-rule="evenodd" clip-rule="evenodd" d="M8 8.0001L19.2115 6.47754L19.2538 6.82186L8 8.0001Z" fill="#84ACFF"/>
            <path fill-rule="evenodd" clip-rule="evenodd" d="M8 8.00005L19.2454 6.75269L19.2794 7.09829L8 8.00005Z" fill="#83ABFF"/>
            <path fill-rule="evenodd" clip-rule="evenodd" d="M8 7.99993L19.273 7.02905L19.2986 7.37529L8 7.99993Z" fill="#82AAFF"/>
            <path fill-rule="evenodd" clip-rule="evenodd" d="M8 7.99991L19.2934 7.30615L19.3101 7.65303L8 7.99991Z" fill="#81AAFF"/>
            <path fill-rule="evenodd" clip-rule="evenodd" d="M8 8.00014L19.3069 7.5835L19.3152 7.93038L8 8.00014Z" fill="#80A9FF"/>
            <path fill-rule="evenodd" clip-rule="evenodd" d="M8 7.99996L19.3133 7.86108V8.20796L8 7.99996Z" fill="#7FA8FF"/>
            <path fill-rule="evenodd" clip-rule="evenodd" d="M8 8L19.3133 8.13888L19.305 8.48576L8 8Z" fill="#7EA7FF"/>
            <path fill-rule="evenodd" clip-rule="evenodd" d="M8 8L19.3069 8.41664L19.2896 8.76288L8 8Z" fill="#7DA7FF"/>
            <path fill-rule="evenodd" clip-rule="evenodd" d="M8 8L19.2934 8.69376L19.2678 9.04L8 8Z" fill="#7CA6FF"/>
            <path fill-rule="evenodd" clip-rule="evenodd" d="M8 8L19.273 8.97088L19.239 9.31648L8 8Z" fill="#7BA5FF"/>
            <path fill-rule="evenodd" clip-rule="evenodd" d="M8 8L19.2454 9.24672L19.2032 9.59168L8 8Z" fill="#7AA5FF"/>
            <path fill-rule="evenodd" clip-rule="evenodd" d="M8 8L19.2115 9.52256L19.1603 9.86624L8 8Z" fill="#79A4FF"/>
            <path fill-rule="evenodd" clip-rule="evenodd" d="M8 8L19.1706 9.79712L19.1117 10.1395L8 8Z" fill="#78A3FF"/>
            <path fill-rule="evenodd" clip-rule="evenodd" d="M8 8L19.1232 10.071L19.0554 10.4115L8 8Z" fill="#77A3FF"/>
            <path fill-rule="evenodd" clip-rule="evenodd" d="M8 8L19.0688 10.343L18.9933 10.6822L8 8Z" fill="#76A2FF"/>
            <path fill-rule="evenodd" clip-rule="evenodd" d="M8 8L19.0086 10.6144L18.9242 10.951L8 8Z" fill="#75A1FF"/>
            <path fill-rule="evenodd" clip-rule="evenodd" d="M8 8L18.9408 10.8838L18.8486 11.2179L8 8Z" fill="#74A1FF"/>
            <path fill-rule="evenodd" clip-rule="evenodd" d="M8 8L18.8666 11.1514L18.7661 11.4835L8 8Z" fill="#73A0FF"/>
            <path fill-rule="evenodd" clip-rule="evenodd" d="M8 8L18.7859 11.417L18.6771 11.7466L8 8Z" fill="#729FFF"/>
            <path fill-rule="evenodd" clip-rule="evenodd" d="M8 8L18.6989 11.6806L18.5824 12.0077L8 8Z" fill="#719FFF"/>
            <path fill-rule="evenodd" clip-rule="evenodd" d="M8 8L18.6054 11.9424L18.4806 12.2662L8 8Z" fill="#709EFF"/>
            <path fill-rule="evenodd" clip-rule="evenodd" d="M8 8L18.5056 12.201L18.3725 12.5222L8 8Z" fill="#6F9DFF"/>
            <path fill-rule="evenodd" clip-rule="evenodd" d="M8 8L18.3994 12.4576L18.2586 12.775L8 8Z" fill="#6E9DFF"/>
            <path fill-rule="evenodd" clip-rule="evenodd" d="M8 8L18.2867 12.7117L18.1382 13.0253L8 8Z" fill="#6D9CFF"/>
            <path fill-rule="evenodd" clip-rule="evenodd" d="M8 8L18.1683 12.9626L18.0122 13.273L8 8Z" fill="#6C9BFF"/>
            <path fill-rule="evenodd" clip-rule="evenodd" d="M8 8L18.0429 13.2109L17.8797 13.5168L8 8Z" fill="#6B9BFF"/>
            <path fill-rule="evenodd" clip-rule="evenodd" d="M8 8L17.9123 13.4554L17.7414 13.7581L8 8Z" fill="#6A9AFF"/>
            <path fill-rule="evenodd" clip-rule="evenodd" d="M8 8L17.7754 13.6973L17.5968 13.9949L8 8Z" fill="#6999FF"/>
            <path fill-rule="evenodd" clip-rule="evenodd" d="M8 8L17.6326 13.9354L17.447 14.2285L8 8Z" fill="#6899FF"/>
            <path fill-rule="evenodd" clip-rule="evenodd" d="M8 8L17.4842 14.1702L17.2909 14.4589L8 8Z" fill="#6798FF"/>
            <path fill-rule="evenodd" clip-rule="evenodd" d="M8 8L17.3299 14.4013L17.1302 14.6848L8 8Z" fill="#6697FF"/>
            <path fill-rule="evenodd" clip-rule="evenodd" d="M8 8L17.1699 14.6278L16.9632 14.9069L8 8Z" fill="#6597FF"/>
            <path fill-rule="evenodd" clip-rule="evenodd" d="M8 8L17.0048 14.8512L16.791 15.1245L8 8Z" fill="#6496FF"/>
            <path fill-rule="evenodd" clip-rule="evenodd" d="M8 8L16.8339 15.0701L16.6138 15.3382L8 8Z" fill="#6395FF"/>
            <path fill-rule="evenodd" clip-rule="evenodd" d="M8 8L16.6573 15.2845L16.4307 15.5475L8 8Z" fill="#6294FF"/>
            <path fill-rule="evenodd" clip-rule="evenodd" d="M8 8L16.4762 15.495L16.2432 15.7523L8 8Z" fill="#6194FF"/>
            <path fill-rule="evenodd" clip-rule="evenodd" d="M8 8L16.2899 15.7005L16.0506 15.952L8 8Z" fill="#6093FF"/>
            <path fill-rule="evenodd" clip-rule="evenodd" d="M8 8L16.0979 15.9014L15.8528 16.1472L8 8Z" fill="#5F92FF"/>
            <path fill-rule="evenodd" clip-rule="evenodd" d="M8 8L15.9014 16.0979L15.6506 16.3373L8 8Z" fill="#5E92FF"/>
            <path fill-rule="evenodd" clip-rule="evenodd" d="M8 8L15.7005 16.2899L15.4432 16.5229L8 8Z" fill="#5D91FF"/>
            <path fill-rule="evenodd" clip-rule="evenodd" d="M8 8L15.495 16.4762L15.232 16.7027L8 8Z" fill="#5C90FF"/>
            <path fill-rule="evenodd" clip-rule="evenodd" d="M8 8L15.2845 16.6573L15.0163 16.8774L8 8Z" fill="#5B90FF"/>
            <path fill-rule="evenodd" clip-rule="evenodd" d="M8 8L15.0701 16.8339L14.7962 17.047L8 8Z" fill="#5A8FFF"/>
            <path fill-rule="evenodd" clip-rule="evenodd" d="M8 8L14.8512 17.0048L14.5722 17.2115L8 8Z" fill="#598EFF"/>
            <path fill-rule="evenodd" clip-rule="evenodd" d="M8 8L14.6278 17.1699L14.3443 17.3696L8 8Z" fill="#588EFF"/>
            <path fill-rule="evenodd" clip-rule="evenodd" d="M8 8L14.4013 17.3299L14.112 17.5226L8 8Z" fill="#578DFF"/>
            <path fill-rule="evenodd" clip-rule="evenodd" d="M8 8L14.1702 17.4842L13.8765 17.6698L8 8Z" fill="#568CFF"/>
            <path fill-rule="evenodd" clip-rule="evenodd" d="M8 8L13.9354 17.6326L13.6378 17.8112L8 8Z" fill="#558CFF"/>
            <path fill-rule="evenodd" clip-rule="evenodd" d="M8 8L13.6973 17.7754L13.3952 17.9462L8 8Z" fill="#548BFF"/>
            <path fill-rule="evenodd" clip-rule="evenodd" d="M8 8L13.4554 17.9123L13.1494 18.0755L8 8Z" fill="#538AFF"/>
            <path fill-rule="evenodd" clip-rule="evenodd" d="M8 8L13.2109 18.0429L12.9005 18.199L8 8Z" fill="#528AFF"/>
            <path fill-rule="evenodd" clip-rule="evenodd" d="M8 8L12.9626 18.1683L12.649 18.3162L8 8Z" fill="#5189FF"/>
            <path fill-rule="evenodd" clip-rule="evenodd" d="M8 8L12.7117 18.2867L12.3942 18.4275L8 8Z" fill="#5088FF"/>
            <path fill-rule="evenodd" clip-rule="evenodd" d="M8 8L12.4576 18.3994L12.137 18.5318L8 8Z" fill="#4F88FF"/>
            <path fill-rule="evenodd" clip-rule="evenodd" d="M8 8L12.201 18.5056L11.8771 18.6304L8 8Z" fill="#4E87FF"/>
            <path fill-rule="evenodd" clip-rule="evenodd" d="M8 8L11.9424 18.6054L11.6154 18.7226L8 8Z" fill="#4D86FF"/>
            <path fill-rule="evenodd" clip-rule="evenodd" d="M8 8L11.6806 18.6989L11.351 18.8077L8 8Z" fill="#4C86FF"/>
            <path fill-rule="evenodd" clip-rule="evenodd" d="M8 8L11.417 18.7859L11.0848 18.887L8 8Z" fill="#4B85FF"/>
            <path fill-rule="evenodd" clip-rule="evenodd" d="M8 8L11.1514 18.8666L10.8166 18.9594L8 8Z" fill="#4A84FF"/>
            <path fill-rule="evenodd" clip-rule="evenodd" d="M8 8L10.8838 18.9408L10.5466 19.0253L8 8Z" fill="#4984FF"/>
            <path fill-rule="evenodd" clip-rule="evenodd" d="M8 8L10.6144 19.0086L10.2758 19.0842L8 8Z" fill="#4883FF"/>
            <path fill-rule="evenodd" clip-rule="evenodd" d="M8 8L10.343 19.0688L10.0026 19.1366L8 8Z" fill="#4782FF"/>
            <path fill-rule="evenodd" clip-rule="evenodd" d="M8 8L10.071 19.1232L9.72928 19.1827L8 8Z" fill="#4681FF"/>
            <path fill-rule="evenodd" clip-rule="evenodd" d="M8 8L9.79712 19.1706L9.45408 19.2218L8 8Z" fill="#4581FF"/>
            <path fill-rule="evenodd" clip-rule="evenodd" d="M8 8L9.52256 19.2115L9.17824 19.2538L8 8Z" fill="#4480FF"/>
            <path fill-rule="evenodd" clip-rule="evenodd" d="M8 8L9.24672 19.2454L8.90176 19.2794L8 8Z" fill="#437FFF"/>
            <path fill-rule="evenodd" clip-rule="evenodd" d="M8 8L8.97088 19.273L8.62464 19.2986L8 8Z" fill="#427FFF"/>
            <path fill-rule="evenodd" clip-rule="evenodd" d="M8 8L8.69376 19.2934L8.34688 19.3101L8 8Z" fill="#417EFF"/>
            <path fill-rule="evenodd" clip-rule="evenodd" d="M8 8L8.41664 19.3069L8.06912 19.3152L8 8Z" fill="#407DFF"/>
            <path fill-rule="evenodd" clip-rule="evenodd" d="M8.00002 8L8.1389 19.3133H7.79138L8.00002 8Z" fill="#3F7DFF"/>
            <path fill-rule="evenodd" clip-rule="evenodd" d="M8.00001 8L7.86113 19.3133L7.51425 19.305L8.00001 8Z" fill="#3E7CFF"/>
            <path fill-rule="evenodd" clip-rule="evenodd" d="M8 8L7.58336 19.3069L7.23648 19.2896L8 8Z" fill="#3D7BFF"/>
            <path fill-rule="evenodd" clip-rule="evenodd" d="M8.00002 8L7.30626 19.2934L6.96002 19.2678L8.00002 8Z" fill="#3C7BFF"/>
            <path fill-rule="evenodd" clip-rule="evenodd" d="M8.00001 8L7.02913 19.273L6.68353 19.239L8.00001 8Z" fill="#3B7AFF"/>
            <path fill-rule="evenodd" clip-rule="evenodd" d="M8.00001 8L6.75265 19.2454L6.40833 19.2032L8.00001 8Z" fill="#3A79FF"/>
            <path fill-rule="evenodd" clip-rule="evenodd" d="M8.00003 8L6.47747 19.2115L6.13379 19.1603L8.00003 8Z" fill="#3979FF"/>
            <path fill-rule="evenodd" clip-rule="evenodd" d="M8.00002 8L6.20226 19.1706L5.8605 19.1117L8.00002 8Z" fill="#3878FF"/>
            <path fill-rule="evenodd" clip-rule="evenodd" d="M8.00002 8L5.92898 19.1232L5.5885 19.0554L8.00002 8Z" fill="#3777FF"/>
            <path fill-rule="evenodd" clip-rule="evenodd" d="M8.00002 8L5.65698 19.0688L5.31778 18.9933L8.00002 8Z" fill="#3677FF"/>
            <path fill-rule="evenodd" clip-rule="evenodd" d="M8.00002 8L5.38562 19.0086L5.04898 18.9242L8.00002 8Z" fill="#3576FF"/>
            <path fill-rule="evenodd" clip-rule="evenodd" d="M8.00002 8L5.11618 18.9408L4.78146 18.8486L8.00002 8Z" fill="#3475FF"/>
            <path fill-rule="evenodd" clip-rule="evenodd" d="M8 8L4.84864 18.8666L4.51648 18.7661L8 8Z" fill="#3375FF"/>
            <path fill-rule="evenodd" clip-rule="evenodd" d="M8.00001 8L4.58305 18.7859L4.25345 18.6771L8.00001 8Z" fill="#3274FF"/>
            <path fill-rule="evenodd" clip-rule="evenodd" d="M8.00002 8L4.31938 18.6989L3.99234 18.5824L8.00002 8Z" fill="#3173FF"/>
            <path fill-rule="evenodd" clip-rule="evenodd" d="M8 8L4.0576 18.6054L3.73376 18.4806L8 8Z" fill="#3073FF"/>
            <path fill-rule="evenodd" clip-rule="evenodd" d="M8.00002 8L3.79842 18.5056L3.47778 18.3725L8.00002 8Z" fill="#2F72FF"/>
            <path fill-rule="evenodd" clip-rule="evenodd" d="M8.00002 8L3.54178 18.3994L3.22498 18.2586L8.00002 8Z" fill="#2E71FF"/>
            <path fill-rule="evenodd" clip-rule="evenodd" d="M8.00001 8L3.28833 18.2867L2.97473 18.1382L8.00001 8Z" fill="#2D71FF"/>
            <path fill-rule="evenodd" clip-rule="evenodd" d="M8.00001 8L3.03745 18.1683L2.72705 18.0122L8.00001 8Z" fill="#2C70FF"/>
            <path fill-rule="evenodd" clip-rule="evenodd" d="M8.00002 8L2.78914 18.0429L2.48322 17.8797L8.00002 8Z" fill="#2B6FFF"/>
            <path fill-rule="evenodd" clip-rule="evenodd" d="M8.00002 8L2.54466 17.9123L2.24194 17.7414L8.00002 8Z" fill="#2A6EFF"/>
            <path fill-rule="evenodd" clip-rule="evenodd" d="M8.00001 8L2.30273 17.7754L2.00513 17.5968L8.00001 8Z" fill="#296EFF"/>
            <path fill-rule="evenodd" clip-rule="evenodd" d="M8.00002 8L2.06466 17.6326L1.7709 17.447L8.00002 8Z" fill="#286DFF"/>
            <path fill-rule="evenodd" clip-rule="evenodd" d="M8.00002 8L1.82978 17.4842L1.54114 17.2909L8.00002 8Z" fill="#276CFF"/>
            <path fill-rule="evenodd" clip-rule="evenodd" d="M8.00002 8L1.59874 17.3299L1.31522 17.1302L8.00002 8Z" fill="#266CFF"/>
            <path fill-rule="evenodd" clip-rule="evenodd" d="M8.00002 8L1.37218 17.1699L1.09314 16.9632L8.00002 8Z" fill="#256BFF"/>
            <path fill-rule="evenodd" clip-rule="evenodd" d="M8.00003 8L1.14883 17.0048L0.874908 16.791L8.00003 8Z" fill="#246AFF"/>
            <path fill-rule="evenodd" clip-rule="evenodd" d="M8.00001 8L0.929934 16.8339L0.661774 16.6138L8.00001 8Z" fill="#236AFF"/>
            <path fill-rule="evenodd" clip-rule="evenodd" d="M8 8L0.715524 16.6573L0.452484 16.4307L8 8Z" fill="#2269FF"/>
            <path fill-rule="evenodd" clip-rule="evenodd" d="M8 8L0.504961 16.4762L0.247681 16.2432L8 8Z" fill="#2168FF"/>
            <path fill-rule="evenodd" clip-rule="evenodd" d="M8 8L0.299524 16.2899L0.0480042 16.0506L8 8Z" fill="#2068FF"/>
            <path fill-rule="evenodd" clip-rule="evenodd" d="M8.00001 8L0.0985737 16.0979L-0.147186 15.8528L8.00001 8Z" fill="#1F67FF"/>
            <path fill-rule="evenodd" clip-rule="evenodd" d="M8 8L-0.0985603 15.9014L-0.33728 15.6506L8 8Z" fill="#1E66FF"/>
            <path fill-rule="evenodd" clip-rule="evenodd" d="M8.00002 8L-0.289898 15.7005L-0.522858 15.4432L8.00002 8Z" fill="#1D66FF"/>
            <path fill-rule="evenodd" clip-rule="evenodd" d="M8.00002 8L-0.476138 15.495L-0.702698 15.232L8.00002 8Z" fill="#1C65FF"/>
            <path fill-rule="evenodd" clip-rule="evenodd" d="M8.00003 8L-0.657251 15.2845L-0.877411 15.0163L8.00003 8Z" fill="#1B64FF"/>
            <path fill-rule="evenodd" clip-rule="evenodd" d="M8.00001 8L-0.833908 15.0701L-1.04703 14.7962L8.00001 8Z" fill="#1A64FF"/>
            <path fill-rule="evenodd" clip-rule="evenodd" d="M8 8L-1.0048 14.8512L-1.21152 14.5722L8 8Z" fill="#1963FF"/>
            <path fill-rule="evenodd" clip-rule="evenodd" d="M8 8L-1.16992 14.6278L-1.3696 14.3443L8 8Z" fill="#1862FF"/>
            <path fill-rule="evenodd" clip-rule="evenodd" d="M8.00001 8L-1.32991 14.4013L-1.52255 14.112L8.00001 8Z" fill="#1762FF"/>
            <path fill-rule="evenodd" clip-rule="evenodd" d="M8.00002 8L-1.48414 14.1702L-1.66974 13.8765L8.00002 8Z" fill="#1661FF"/>
            <path fill-rule="evenodd" clip-rule="evenodd" d="M8.00001 8L-1.63263 13.9354L-1.81119 13.6378L8.00001 8Z" fill="#1560FF"/>
            <path fill-rule="evenodd" clip-rule="evenodd" d="M8.00001 8L-1.77535 13.6973L-1.94623 13.3952L8.00001 8Z" fill="#1460FF"/>
            <path fill-rule="evenodd" clip-rule="evenodd" d="M8.00002 8L-1.9123 13.4554L-2.07614 13.1494L8.00002 8Z" fill="#135FFF"/>
            <path fill-rule="evenodd" clip-rule="evenodd" d="M8 8L-2.04352 13.2109L-2.19904 12.9005L8 8Z" fill="#125EFF"/>
            <path fill-rule="evenodd" clip-rule="evenodd" d="M8.00003 8L-2.16829 12.9626L-2.31613 12.649L8.00003 8Z" fill="#115EFF"/>
            <path fill-rule="evenodd" clip-rule="evenodd" d="M8 8L-2.28672 12.7117L-2.42752 12.3942L8 8Z" fill="#105DFF"/>
            <path fill-rule="evenodd" clip-rule="evenodd" d="M8.00001 8L-2.39935 12.4576L-2.53247 12.137L8.00001 8Z" fill="#0F5CFF"/>
            <path fill-rule="evenodd" clip-rule="evenodd" d="M8.00003 8L-2.50557 12.201L-2.63037 11.8771L8.00003 8Z" fill="#0E5BFF"/>
            <path fill-rule="evenodd" clip-rule="evenodd" d="M8.00003 8L-2.60541 11.9424L-2.72253 11.6154L8.00003 8Z" fill="#0D5BFF"/>
            <path fill-rule="evenodd" clip-rule="evenodd" d="M8 8L-2.69952 11.6806L-2.80768 11.351L8 8Z" fill="#0C5AFF"/>
            <path fill-rule="evenodd" clip-rule="evenodd" d="M8.00002 8L-2.78654 11.417L-2.88702 11.0848L8.00002 8Z" fill="#0B59FF"/>
            <path fill-rule="evenodd" clip-rule="evenodd" d="M8.00001 8L-2.86719 11.1514L-2.95935 10.8166L8.00001 8Z" fill="#0A59FF"/>
            <path fill-rule="evenodd" clip-rule="evenodd" d="M8.00001 8L-2.94079 10.8838L-3.02527 10.5466L8.00001 8Z" fill="#0958FF"/>
            <path fill-rule="evenodd" clip-rule="evenodd" d="M8.00002 8L-3.00862 10.6144L-3.08414 10.2758L8.00002 8Z" fill="#0857FF"/>
            <path fill-rule="evenodd" clip-rule="evenodd" d="M8.00001 8L-3.06943 10.343L-3.13663 10.0026L8.00001 8Z" fill="#0757FF"/>
            <path fill-rule="evenodd" clip-rule="evenodd" d="M8.00001 8L-3.12319 10.071L-3.18271 9.72928L8.00001 8Z" fill="#0656FF"/>
            <path fill-rule="evenodd" clip-rule="evenodd" d="M8.00002 8L-3.17054 9.79712L-3.22174 9.45408L8.00002 8Z" fill="#0555FF"/>
            <path fill-rule="evenodd" clip-rule="evenodd" d="M8.00001 8L-3.21151 9.52256L-3.25375 9.17824L8.00001 8Z" fill="#0455FF"/>
            <path fill-rule="evenodd" clip-rule="evenodd" d="M8 8L-3.24544 9.24672L-3.27936 8.90176L8 8Z" fill="#0354FF"/>
            <path fill-rule="evenodd" clip-rule="evenodd" d="M8.00001 8L-3.27295 8.97088L-3.29855 8.62464L8.00001 8Z" fill="#0253FF"/>
            <path fill-rule="evenodd" clip-rule="evenodd" d="M8.00002 8L-3.29342 8.69376L-3.31006 8.34688L8.00002 8Z" fill="#0153FF"/>
            <path fill-rule="evenodd" clip-rule="evenodd" d="M8.00001 8L-3.30687 8.41664L-3.31519 8.06912L8.00001 8Z" fill="#0052FF"/>
            <path fill-rule="evenodd" clip-rule="evenodd" d="M8.00002 7.99996L-3.3139 8.13884V7.86108L8.00002 7.99996Z" fill="white"/>
        </g>
    </g>
    <defs>
        <clipPath id="clip0_1017_222244">
            <rect width="16" height="16" fill="white"/>
        </clipPath>
    </defs>
</svg>