<svg xmlns="http://www.w3.org/2000/svg" width="390" height="264" viewBox="0 0 390 264" fill="none">
    <path d="M0 131.959V143.352C7.70583 180.352 25.4484 209.466 53.2509 225.517C130.734 270.253 257.011 196.595 335.297 60.9993C346.972 40.7779 356.92 20.3209 365.14 0H362.982C354.858 19.9832 345.053 40.1021 333.565 59.9993C294.564 127.552 243.654 179.588 192.965 209.155C142.22 238.754 92.1028 245.639 54.2509 223.785C24.4202 206.563 6.23827 173.818 0 131.959Z" fill="#FFCB00"/>
    <path d="M23.4059 0C-3.87399 93.1154 9.34271 177.074 63.2505 208.198C135.268 249.777 252.636 181.316 325.4 55.2852C335.981 36.9582 345.036 18.4231 352.564 0H350.403C342.973 18.0855 334.062 36.2827 323.668 54.2852C287.428 117.055 240.126 165.401 193.038 192.867C145.893 220.367 99.3694 226.741 64.2505 206.465C29.1316 186.19 11.3903 142.711 11.6333 88.1335C11.7547 60.8714 16.3718 30.9518 25.4905 0H23.4059Z" fill="#FFCB00"/>
    <path d="M12.9168 0C6.75866 20.6227 2.45348 40.8311 0 60.2115V46.4671C2.52945 31.3387 6.13972 15.7885 10.83 0H12.9168Z" fill="#FFCB00"/>
    <path d="M34.0064 0C8.96505 86.6502 21.4615 164.614 71.6753 193.605C139.088 232.526 248.951 168.442 317.062 50.471C326.721 33.74 335.022 16.8236 341.964 0H339.799C332.958 16.4862 324.802 33.0648 315.33 49.471C281.416 108.211 237.153 153.448 193.099 179.145C148.988 204.875 105.492 210.82 72.6753 191.873C39.859 172.927 23.2592 132.285 23.4866 81.2195C23.5986 56.0787 27.7972 28.5199 36.0887 0H34.0064Z" fill="#FFCB00"/>
    <path d="M45.3254 0C22.6689 79.7487 34.3947 151.318 80.666 178.033C143.164 214.116 245.018 154.705 308.163 45.3335C316.84 30.3055 324.334 15.1161 330.645 0H328.476C322.268 14.7788 314.92 29.6307 306.431 44.3335C275 98.7735 233.981 140.692 193.164 164.501C152.291 188.343 112.025 193.829 81.666 176.301C51.3069 158.773 35.9254 121.159 36.1361 73.841C36.238 50.9643 39.9922 25.9243 47.405 0H45.3254Z" fill="#FFCB00"/>
    <path d="M56.5551 0C36.258 72.904 47.2169 138.137 89.5792 162.595C147.205 195.865 241.119 141.085 299.341 40.2402C307.043 26.9003 313.735 13.4226 319.415 0H317.242C311.667 13.0854 305.123 26.2259 297.609 39.2402C268.64 89.4171 230.836 128.047 193.229 149.983C155.565 171.953 118.502 176.984 90.5792 160.863C62.6562 144.742 48.4825 110.129 48.6767 66.526C48.7685 45.8944 52.0848 23.3504 58.6317 0H56.5551Z" fill="#FFCB00"/>
    <path d="M65.7895 0C47.4261 67.2777 57.7524 127.307 96.9026 149.911C150.525 180.87 237.915 129.895 292.093 36.0554C298.994 24.1024 305.024 12.0305 310.18 0H308.003C302.954 11.6935 297.074 23.4284 290.361 35.0554C263.414 81.7296 228.252 117.656 193.282 138.055C158.255 158.486 123.824 163.144 97.9026 148.178C71.9811 133.213 58.7998 101.066 58.9803 60.5158C59.064 41.7292 62.0229 21.2353 67.8633 0H65.7895Z" fill="#FFCB00"/>
    <path d="M37.4383 0C44.9662 18.4231 54.0214 36.9582 64.6025 55.2852C137.366 181.316 254.734 249.777 326.752 208.198C380.66 177.074 393.876 93.1155 366.596 0H364.512C373.631 30.9518 378.248 60.8715 378.369 88.1336C378.612 142.711 360.871 186.19 325.752 206.466C290.633 226.741 244.109 220.367 196.965 192.867C149.877 165.401 102.575 117.055 66.3345 54.2852C55.9408 36.2827 47.0296 18.0855 39.5996 0H37.4383Z" fill="#FF3756"/>
    <path d="M27.0204 0H24.8623C33.0823 20.3209 43.0305 40.7779 54.7054 60.9993C132.992 196.595 259.268 270.253 336.751 225.518C364.551 209.468 382.292 180.359 390 143.366V131.978C383.759 173.828 365.578 206.565 335.751 223.785C297.9 245.639 247.782 238.755 197.037 209.155C146.349 179.588 95.4388 127.552 56.4374 59.9993C44.9498 40.1021 35.1445 19.9832 27.0204 0Z" fill="#FF3756"/>
    <path d="M390 60.1895C387.546 40.8158 383.241 20.6149 377.086 0H379.172C383.861 15.7827 387.47 31.3273 390 46.4505V60.1895Z" fill="#FF3756"/>
    <path d="M48.0388 0C54.9801 16.8236 63.2812 33.74 72.9408 50.471C141.052 168.442 250.915 232.526 318.327 193.605C368.541 164.615 381.037 86.6503 355.996 0H353.914C362.205 28.52 366.404 56.0787 366.516 81.2195C366.743 132.285 350.143 172.927 317.327 191.873C284.511 210.82 241.014 204.875 196.904 179.145C152.849 153.448 108.586 108.211 74.6729 49.471C65.2007 33.0648 57.0445 16.4862 50.2031 0H48.0388Z" fill="#FF3756"/>
    <path d="M59.3578 0C65.6686 15.1162 73.1628 30.3055 81.8392 45.3336C144.985 154.705 246.839 214.116 309.336 178.033C355.608 151.319 367.334 79.7487 344.677 0H342.597C350.01 25.9243 353.764 50.9644 353.866 73.8411C354.077 121.159 338.696 158.773 308.336 176.301C277.977 193.829 237.712 188.343 196.838 164.501C156.021 140.692 115.002 98.7736 83.5713 44.3336C75.0826 29.6307 67.7345 14.7788 61.526 0H59.3578Z" fill="#FF3756"/>
    <path d="M70.5875 0C76.2678 13.4227 82.9593 26.9004 90.6611 40.2403C148.884 141.085 242.798 195.865 300.423 162.595C342.786 138.137 353.745 72.9041 333.447 0H331.371C337.918 23.3505 341.234 45.8945 341.326 66.5262C341.52 110.129 327.346 144.742 299.423 160.863C271.5 176.984 234.438 171.953 196.774 149.983C159.166 128.047 121.363 89.4172 92.3931 39.2403C84.8793 26.226 78.3354 13.0855 72.7603 0H70.5875Z" fill="#FF3756"/>
    <path d="M79.8221 0C84.979 12.0306 91.0083 24.1025 97.9094 36.0555C152.088 129.895 239.477 180.87 293.1 149.911C332.25 127.307 342.576 67.2778 324.213 0H322.139C327.98 21.2353 330.939 41.7294 331.022 60.516C331.203 101.066 318.021 133.213 292.1 148.179C266.178 163.144 231.748 158.486 196.721 138.055C161.75 117.656 126.589 81.7297 99.6414 35.0555C92.9285 23.4285 87.0481 11.6935 81.9992 0H79.8221Z" fill="#FF3756"/>
    <path d="M0 95.3134V97.5904C50.8149 125.115 119.457 141.999 195.001 141.999C270.544 141.999 339.185 125.116 390 97.5915V95.3145C339.435 122.959 270.746 139.999 195.001 139.999C119.255 139.999 50.5655 122.959 0 95.3134Z" fill="#5F1BEC"/>
    <path d="M0 81.2699C48.1998 111.558 117.715 130.571 195.001 130.571C272.286 130.571 341.8 111.558 390 81.2711V78.9055C386.871 80.8956 383.647 82.8389 380.332 84.7332C333.001 111.779 267.481 128.571 195.001 128.571C122.521 128.571 57.0007 111.779 9.67014 84.7332C6.35451 82.8385 3.12997 80.8948 0 78.9042V81.2699Z" fill="#5F1BEC"/>
    <path d="M0 66.3155C45.1208 99.5519 115.689 120.943 195.001 120.943C274.312 120.943 344.879 99.5525 390 66.317V63.8278C383.371 68.7904 376.16 73.5004 368.417 77.9249C324.136 103.229 262.828 118.943 195.001 118.943C127.174 118.943 65.866 103.229 21.5846 77.9249C13.8409 73.5 6.62927 68.7895 0 63.8264V66.3155Z" fill="#5F1BEC"/>
    <path d="M0 48.2829C40.2198 85.7076 112.509 110.668 195.001 110.668C277.491 110.668 349.78 85.7084 390 48.2848V45.5394C380.432 54.6794 368.904 63.116 355.703 70.6594C314.675 94.1036 257.863 108.668 195.001 108.668C132.139 108.668 75.3267 94.1037 34.2993 70.6594C21.0973 63.1154 9.56819 54.6782 0 45.5375V48.2829Z" fill="#5F1BEC"/>
    <path d="M0 25.9021C31.5893 69.6733 106.999 100.481 195.001 100.481C283.001 100.481 358.409 69.6747 390 25.905V22.4165C379.532 37.8511 363.485 51.8063 343.098 63.4564C305.296 85.0573 252.94 98.4813 195.001 98.4813C137.062 98.4813 84.706 85.0573 46.9045 63.4564C26.5154 51.8055 10.4682 37.8492 0 22.4134V25.9021Z" fill="#5F1BEC"/>
    <path d="M1.91733 0C18.4228 52.3752 98.5911 92.1118 195.001 92.1118C291.411 92.1118 371.579 52.3752 388.085 0H385.981C378.801 22.0627 359.935 41.9989 332.741 57.5383C297.59 77.6246 248.896 90.1118 195.001 90.1118C141.106 90.1118 92.4123 77.6246 57.2613 57.5383C30.0675 41.999 11.2008 22.0627 4.021 0L1.91733 0Z" fill="#5F1BEC"/>
</svg>