<svg width="117" height="100" viewBox="0 0 117 100" fill="none" xmlns="http://www.w3.org/2000/svg">
<g id="Frame" clip-path="url(#clip0_371_1613)">
<g id="Clip path group">
<mask id="mask0_371_1613" style="mask-type:luminance" maskUnits="userSpaceOnUse" x="30" y="0" width="63" height="83">
<g id="clip0_338_1980">
<path id="Vector" d="M86.4592 2.92568e-05L30.5742 4.07422L36.3508 82.6586L92.2357 78.5844L86.4592 2.92568e-05Z" fill="white"/>
</g>
</mask>
<g mask="url(#mask0_371_1613)">
<g id="Group">
<path id="Vector_2" d="M83.7771 0.195745L33.2571 3.87881C31.7756 3.98682 30.6625 5.27041 30.771 6.74579L36.1548 79.9872C36.2633 81.4627 37.5523 82.5711 39.0338 82.4631L89.5536 78.7801C91.0352 78.672 92.1482 77.3885 92.0398 75.9131L86.656 2.6716C86.5475 1.19622 85.2587 0.0877392 83.7771 0.195745Z" fill="white"/>
<path id="Vector_3" d="M78.4452 10.2084L40.22 12.9952C38.7384 13.1032 37.6254 14.3868 37.7339 15.8622L37.8975 18.0884C38.006 19.5637 39.2948 20.6722 40.7763 20.5642L79.0017 17.7775C80.483 17.6695 81.5961 16.3859 81.4878 14.9105L81.324 12.6843C81.2157 11.2089 79.9267 10.1004 78.4452 10.2084Z" fill="#D9D9D9"/>
<path id="Vector_4" d="M41.1954 23.2192L40.972 23.2355C39.4904 23.3433 38.3773 24.627 38.4858 26.1024L38.6494 28.3286C38.7579 29.804 40.0469 30.9125 41.5283 30.8045L41.752 30.7882C43.2333 30.6801 44.3464 29.3964 44.2381 27.9212L44.0743 25.6949C43.966 24.2196 42.677 23.1112 41.1954 23.2192Z" fill="#D9D9D9"/>
<path id="Vector_5" d="M51.256 22.4858L51.0325 22.5021C49.5509 22.6101 48.4379 23.8938 48.5464 25.369L48.71 27.5954C48.8185 29.0706 50.1075 30.1791 51.5888 30.0711L51.8125 30.0548C53.2938 29.9469 54.4069 28.6632 54.2984 27.1878L54.1348 24.9617C54.0265 23.4862 52.7375 22.3778 51.256 22.4858Z" fill="#D9D9D9"/>
<path id="Vector_6" d="M79.1979 20.4487L61.0911 21.7687C59.6095 21.8767 58.4965 23.1603 58.605 24.6357L58.7686 26.8618C58.8771 28.3373 60.1659 29.4458 61.6474 29.3377L79.7542 28.0176C81.2357 27.9096 82.3488 26.6261 82.2403 25.1507L82.0767 22.9246C81.9682 21.4491 80.6792 20.3407 79.1979 20.4487Z" fill="#D9D9D9"/>
<path id="Vector_7" d="M45.3024 33.2153L41.7256 33.476C40.2443 33.584 39.1312 34.8675 39.2397 36.343L39.5015 39.9048C39.61 41.3802 40.8988 42.4887 42.3803 42.3807L45.9569 42.12C47.4385 42.0119 48.5515 40.7284 48.4431 39.253L48.1813 35.6909C48.0728 34.2157 46.784 33.1072 45.3024 33.2153Z" fill="#D9D9D9"/>
<path id="Vector_8" d="M56.5911 32.3926L50.8909 32.808C49.9033 32.8801 49.1612 33.7359 49.2334 34.7193C49.3058 35.703 50.1651 36.4419 51.1527 36.37L56.8529 35.9544C57.8407 35.8823 58.5826 35.0267 58.5104 34.043C58.438 33.0595 57.5787 32.3205 56.5911 32.3926Z" fill="#D9D9D9"/>
<path id="Vector_9" d="M56.9661 37.5126L51.2659 37.9283C50.2781 38.0004 49.5362 38.8559 49.6084 39.8397C49.6808 40.8231 50.5399 41.5622 51.5277 41.4901L57.2279 41.0747C58.2155 41.0026 58.9576 40.1468 58.8852 39.1633C58.813 38.1796 57.9537 37.4408 56.9661 37.5126Z" fill="#D9D9D9"/>
<path id="Vector_10" d="M69.5563 31.4472L65.9795 31.7079C64.4982 31.816 63.3851 33.0997 63.4936 34.5749L63.7554 38.1369C63.8639 39.6122 65.1527 40.7206 66.6342 40.6126L70.2108 40.3519C71.6924 40.2439 72.8054 38.9604 72.697 37.4849L72.4352 33.9231C72.3267 32.4477 71.0377 31.3392 69.5563 31.4472Z" fill="#D9D9D9"/>
<path id="Vector_11" d="M80.845 30.624L75.1448 31.0396C74.1572 31.1115 73.4151 31.9673 73.4873 32.951C73.5597 33.9345 74.419 34.6736 75.4066 34.6015L81.1068 34.1858C82.0946 34.1139 82.8365 33.2581 82.7643 32.2747C82.6919 31.291 81.8326 30.5519 80.845 30.624Z" fill="#D9D9D9"/>
<path id="Vector_12" d="M81.222 35.7446L75.5217 36.1602C74.534 36.2321 73.7921 37.0879 73.8642 38.0714C73.9366 39.0551 74.7957 39.7939 75.7835 39.7221L81.4838 39.3064C82.4714 39.2343 83.2135 38.3788 83.1411 37.395C83.0689 36.4116 82.2096 35.6725 81.222 35.7446Z" fill="#D9D9D9"/>
<path id="Vector_13" d="M57.1069 43.9929L40.3414 45.2152C40.0944 45.2333 39.909 45.4471 39.927 45.6931L40.3526 51.4811C40.3705 51.727 40.5855 51.9119 40.8323 51.8938L57.5978 50.6715C57.8448 50.6536 58.0302 50.4395 58.0122 50.1938L57.5868 44.4056C57.5687 44.1596 57.3539 43.975 57.1069 43.9929Z" fill="#D9D9D9"/>
<path id="Vector_14" d="M66.0479 43.3411L60.236 43.7647C59.989 43.7828 59.8034 43.9966 59.8215 44.2426L60.247 50.0308C60.2651 50.2766 60.4798 50.4614 60.7268 50.4433L66.539 50.0196C66.7857 50.0016 66.9713 49.7877 66.9532 49.5417L66.5277 43.7538C66.5096 43.5078 66.2949 43.323 66.0479 43.3411Z" fill="#D9D9D9"/>
<path id="Vector_15" d="M74.542 42.7219L68.7299 43.1456C68.4831 43.1637 68.2975 43.3775 68.3157 43.6235L68.7411 49.4114C68.759 49.6574 68.974 49.842 69.2208 49.8242L75.0329 49.4005C75.2799 49.3824 75.4652 49.1686 75.4473 48.9226L75.0217 43.1344C75.0037 42.8887 74.7888 42.7038 74.542 42.7219Z" fill="#D9D9D9"/>
<path id="Vector_16" d="M83.0381 42.1023L77.2262 42.5262C76.9792 42.544 76.7936 42.7581 76.8118 43.0038L77.2372 48.792C77.2553 49.0378 77.4701 49.2226 77.7171 49.2047L83.529 48.7808C83.776 48.763 83.9615 48.5489 83.9434 48.3032L83.518 42.515C83.4998 42.269 83.2851 42.0844 83.0381 42.1023Z" fill="#D9D9D9"/>
<path id="Vector_17" d="M81.4881 51.6152L43.263 54.402C41.7814 54.51 40.6684 55.7935 40.7768 57.269L40.9405 59.4951C41.0489 60.9705 42.3377 62.079 43.8193 61.971L82.0447 59.1844C83.526 59.0763 84.6391 57.7926 84.5308 56.3172L84.367 54.0911C84.2587 52.6156 82.9697 51.5071 81.4881 51.6152Z" fill="#D9D9D9"/>
<path id="Vector_18" d="M44.2406 64.6264L44.0169 64.6427C42.5353 64.7507 41.4223 66.0342 41.5307 67.5097L41.6944 69.736C41.8028 71.2112 43.0919 72.3197 44.5734 72.2117L44.7969 72.1954C46.2784 72.0876 47.3915 70.8039 47.283 69.3284L47.1194 67.1023C47.0109 65.6269 45.7219 64.5184 44.2406 64.6264Z" fill="#D9D9D9"/>
<path id="Vector_19" d="M54.2989 63.893L54.0755 63.9093C52.5939 64.0173 51.4809 65.3008 51.5893 66.7763L51.753 69.0024C51.8614 70.4778 53.1505 71.5863 54.6318 71.4783L54.8555 71.462C56.3368 71.354 57.4499 70.0705 57.3416 68.595L57.1778 66.3689C57.0695 64.8935 55.7805 63.785 54.2989 63.893Z" fill="#D9D9D9"/>
<path id="Vector_20" d="M82.2428 61.8559L64.136 63.1758C62.6545 63.2838 61.5414 64.5675 61.6499 66.0427L61.8135 68.2691C61.922 69.7443 63.2108 70.8528 64.6923 70.745L82.7991 69.4249C84.2806 69.3168 85.3937 68.0331 85.2852 66.5579L85.1216 64.3316C85.0131 62.8563 83.7241 61.7479 82.2428 61.8559Z" fill="#D9D9D9"/>
</g>
</g>
</g>
<g id="Clip path group_2">
<mask id="mask1_371_1613" style="mask-type:luminance" maskUnits="userSpaceOnUse" x="0" y="28" width="66" height="63">
<g id="clip1_338_1980">
<path id="Vector_21" d="M49.8974 28.1637L0.107422 45.2783L15.7571 90.4322L65.5471 73.3176L49.8974 28.1637Z" fill="white"/>
</g>
</mask>
<g mask="url(#mask1_371_1613)">
<g id="Group_2">
<path id="Vector_22" d="M47.3557 29.0374L2.65072 44.4042C1.24656 44.8868 0.501152 46.4118 0.985809 47.81L14.8804 87.8999C15.3651 89.2984 16.8963 90.0406 18.3004 89.558L63.0055 74.1912C64.4097 73.7086 65.155 72.1836 64.6704 70.7854L50.7759 30.6955C50.2911 29.297 48.76 28.5548 47.3557 29.0374Z" fill="white"/>
<path id="Vector_23" d="M11.7419 46.0024L8.3519 47.1675C6.94772 47.6501 6.20233 49.1751 6.68698 50.5736L7.85705 53.9495C8.3417 55.3479 9.8729 56.0901 11.2771 55.6075L14.667 54.4423C16.0712 53.9595 16.8166 52.4347 16.3319 51.0363L15.1619 47.6604C14.6772 46.262 13.146 45.5195 11.7419 46.0024Z" fill="#D9D9D9"/>
<path id="Vector_24" d="M22.4394 42.3247L17.0367 44.1819C16.1006 44.5037 15.6036 45.5202 15.9267 46.4524C16.2498 47.3848 17.2706 47.8796 18.2068 47.5577L23.6094 45.7008C24.5456 45.379 25.0426 44.3624 24.7193 43.4301C24.3964 42.4979 23.3756 42.0031 22.4394 42.3247Z" fill="#D9D9D9"/>
<path id="Vector_25" d="M24.123 47.1772L18.7203 49.0344C17.7842 49.3563 17.2872 50.3728 17.6103 51.3051C17.9334 52.2373 18.9542 52.7322 19.8903 52.4105L25.293 50.5534C26.2293 50.2315 26.7262 49.215 26.403 48.2828C26.08 47.3505 25.059 46.8556 24.123 47.1772Z" fill="#D9D9D9"/>
<path id="Vector_26" d="M34.728 38.1004L31.3382 39.2658C29.934 39.7484 29.1887 41.2734 29.6733 42.6716L30.8433 46.0477C31.3281 47.4461 32.8592 48.1883 34.2634 47.7057L37.6533 46.5406C39.0575 46.0578 39.803 44.533 39.3182 43.1345L38.1482 39.7586C37.6636 38.3602 36.1323 37.6178 34.728 38.1004Z" fill="#D9D9D9"/>
<path id="Vector_27" d="M45.4278 34.4225L40.025 36.2796C39.0888 36.6013 38.5919 37.618 38.9151 38.5502C39.2381 39.4825 40.259 39.9774 41.195 39.6555L46.5978 37.7984C47.5338 37.4767 48.0308 36.46 47.7078 35.5278C47.3846 34.5955 46.3638 34.1006 45.4278 34.4225Z" fill="#D9D9D9"/>
<path id="Vector_28" d="M47.1112 39.2754L41.7086 41.1325C40.7724 41.4544 40.2755 42.4709 40.5987 43.4033C40.9216 44.3354 41.9426 44.8303 42.8786 44.5087L48.2814 42.6515C49.2174 42.3296 49.7144 41.3131 49.3914 40.3808C49.0682 39.4486 48.0474 38.9537 47.1112 39.2754Z" fill="#D9D9D9"/>
<path id="Vector_29" d="M25.9249 53.4059L10.0346 58.8679C9.80053 58.9485 9.67631 59.2025 9.75707 59.4356L11.6584 64.9215C11.7392 65.1547 11.9944 65.2784 12.2284 65.1978L28.1188 59.7358C28.353 59.6554 28.4772 59.4012 28.3963 59.1681L26.4949 53.6822C26.4142 53.4492 26.1589 53.3255 25.9249 53.4059Z" fill="#D9D9D9"/>
<path id="Vector_30" d="M34.4008 50.4928L28.8919 52.3863C28.6579 52.4669 28.5338 52.7209 28.6145 52.9539L30.5158 58.4401C30.5967 58.6731 30.8518 58.7968 31.0858 58.7164L36.5947 56.8229C36.8287 56.7423 36.9528 56.4883 36.8722 56.2551L34.9708 50.7691C34.8899 50.5361 34.6348 50.4124 34.4008 50.4928Z" fill="#D9D9D9"/>
<path id="Vector_31" d="M42.4516 47.7252L36.9427 49.6187C36.7087 49.6991 36.5846 49.9533 36.6652 50.1864L38.5666 55.6723C38.6475 55.9053 38.9026 56.0292 39.1366 55.9486L44.6454 54.0551C44.8794 53.9748 45.0036 53.7205 44.9229 53.4875L43.0216 48.0015C42.9407 47.7685 42.6856 47.6448 42.4516 47.7252Z" fill="#D9D9D9"/>
<path id="Vector_32" d="M50.5021 44.9577L44.9935 46.8512C44.7595 46.9316 44.6353 47.1858 44.716 47.4189L46.6174 52.9048C46.6983 53.1378 46.9534 53.2615 47.1874 53.1811L52.6962 51.2876C52.9302 51.2073 53.0544 50.953 52.9737 50.72L51.0723 45.234C50.9914 45.001 50.7364 44.8771 50.5021 44.9577Z" fill="#D9D9D9"/>
<path id="Vector_33" d="M51.4552 54.5477L15.2249 67.0012C13.8208 67.4838 13.0754 69.0088 13.56 70.4073L14.2913 72.5171C14.776 73.9155 16.3072 74.6579 17.7113 74.1754L53.9415 61.7216C55.3458 61.239 56.091 59.7142 55.6064 58.3158L54.8751 56.2057C54.3905 54.8073 52.8594 54.0651 51.4552 54.5477Z" fill="#D9D9D9"/>
<path id="Vector_34" d="M18.8001 76.6347L18.5882 76.7074C17.1841 77.19 16.4387 78.715 16.9233 80.1132L17.6546 82.2233C18.1393 83.6217 19.6705 84.3641 21.0746 83.8813L21.2865 83.8086C22.6906 83.326 23.4361 81.801 22.9515 80.4025L22.2201 78.2927C21.7355 76.8943 20.2043 76.1519 18.8001 76.6347Z" fill="#D9D9D9"/>
<path id="Vector_35" d="M28.3354 73.3572L28.1233 73.4302C26.7193 73.9128 25.9738 75.4376 26.4584 76.836L27.1898 78.9461C27.6744 80.3445 29.2057 81.0867 30.6097 80.6041L30.8217 80.5313C32.2259 80.0485 32.9712 78.5237 32.4866 77.1253L31.7552 75.0153C31.2707 73.6171 29.7394 72.8746 28.3354 73.3572Z" fill="#D9D9D9"/>
<path id="Vector_36" d="M54.8183 64.2538L37.6565 70.1529C36.2525 70.6355 35.507 72.1603 35.9916 73.5587L36.723 75.6688C37.2076 77.0672 38.7389 77.8094 40.1431 77.3268L57.3047 71.4277C58.7089 70.9451 59.4542 69.4201 58.9696 68.0219L58.2382 65.9119C57.7536 64.5134 56.2225 63.771 54.8183 64.2538Z" fill="#D9D9D9"/>
</g>
</g>
</g>
<g id="Clip path group_3">
<mask id="mask2_371_1613" style="mask-type:luminance" maskUnits="userSpaceOnUse" x="44" y="12" width="73" height="88">
<g id="clip2_338_1980">
<path id="Vector_37" d="M114.179 21.9392L60.7993 12.3486C59.3374 12.086 57.9385 13.0532 57.6748 14.5091L44.5824 86.7798C44.3187 88.2357 45.2899 89.6288 46.7518 89.8914L100.131 99.482C101.593 99.7447 102.992 98.7774 103.256 97.3216L116.348 25.0508C116.612 23.595 115.641 22.2019 114.179 21.9392Z" fill="white"/>
</g>
</mask>
<g mask="url(#mask2_371_1613)">
<g id="Group_3">
<path id="Vector_38" d="M114.179 21.9392L60.7993 12.3486C59.3374 12.086 57.9385 13.0532 57.6748 14.5091L44.5824 86.7798C44.3187 88.2357 45.2899 89.6288 46.7518 89.8914L100.131 99.482C101.593 99.7447 102.992 98.7774 103.256 97.3216L116.348 25.0508C116.612 23.595 115.641 22.2019 114.179 21.9392Z" fill="white"/>
<path id="Vector_39" d="M59.3276 17.9629C59.3917 17.6087 59.6795 17.3639 59.9704 17.4162L113.179 26.976C113.47 27.0282 113.654 27.3579 113.589 27.712L110.03 47.3617C109.766 48.8175 108.367 49.7847 106.905 49.522L57.9373 40.724C56.4754 40.4615 55.504 39.0682 55.7678 37.6124L59.3276 17.9629Z" fill="#D9D9D9"/>
<path id="Vector_40" d="M130.743 68.4643L112.841 65.2478C111.376 64.9846 109.974 65.9514 109.711 67.4074L109.313 69.604C109.049 71.0598 110.023 72.4534 111.487 72.7165L129.39 75.933C130.855 76.1962 132.256 75.2295 132.52 73.7737L132.918 71.5768C133.182 70.121 132.208 68.7275 130.743 68.4643Z" fill="#D9D9D9"/>
<path id="Vector_41" d="M105.273 53.5231L58.334 45.0897C57.408 44.9234 56.4438 45.9687 56.18 47.4245L55.7819 49.6211C55.5183 51.0772 56.0549 52.3921 56.9808 52.5584L103.92 60.9919C104.845 61.1582 105.81 60.1129 106.074 58.6571L106.472 56.4604C106.735 55.0046 106.198 53.6894 105.273 53.5231Z" fill="#D9D9D9"/>
<path id="Vector_42" d="M75.3406 58.5788L57.4739 55.3687C56.0121 55.106 54.6132 56.0732 54.3494 57.529L53.9514 59.7259C53.6878 61.1817 54.659 62.5747 56.1208 62.8375L73.9875 66.0475C75.4493 66.31 76.8484 65.3428 77.112 63.887L77.51 61.6904C77.7736 60.2346 76.8024 58.8415 75.3406 58.5788Z" fill="#D9D9D9"/>
<path id="Vector_43" d="M102.913 63.5329L85.046 60.3228C83.5842 60.0601 82.1853 61.0275 81.9217 62.4833L81.5237 64.68C81.2599 66.1358 82.2313 67.5288 83.6931 67.7916L101.56 71.0016C103.022 71.2643 104.42 70.2969 104.684 68.8411L105.082 66.6445C105.346 65.1887 104.375 63.7956 102.913 63.5329Z" fill="#D9D9D9"/>
<path id="Vector_44" d="M59.1716 66.1078L55.6424 65.4737C54.1805 65.211 52.7817 66.1784 52.5179 67.6342L51.8811 71.1487C51.6173 72.6047 52.5887 73.9978 54.0505 74.2603L57.5798 74.8945C59.0416 75.1572 60.4405 74.1898 60.7043 72.734L61.3408 69.2192C61.6047 67.7634 60.6335 66.3703 59.1716 66.1078Z" fill="#D9D9D9"/>
<path id="Vector_45" d="M79.4647 69.7538L64.6859 67.0985C63.7113 66.9235 62.7789 67.5683 62.603 68.5389C62.4273 69.5094 63.0748 70.4382 64.0493 70.6132L78.8279 73.2686C79.8024 73.4436 80.7351 72.7987 80.911 71.8282C81.0867 70.8576 80.4392 69.9288 79.4647 69.7538Z" fill="#D9D9D9"/>
<path id="Vector_46" d="M78.5506 74.8059L63.7718 72.1508C62.7973 71.9756 61.8649 72.6204 61.6889 73.591C61.5132 74.5615 62.1607 75.4903 63.1353 75.6655L77.9138 78.3207C78.8884 78.4959 79.821 77.851 79.997 76.8805C80.1727 75.9099 79.5251 74.9811 78.5506 74.8059Z" fill="#D9D9D9"/>
<path id="Vector_47" d="M92.2595 72.052L88.7302 71.418C87.2684 71.1553 85.8695 72.1225 85.6057 73.5783L84.9689 77.093C84.7053 78.5488 85.6765 79.9421 87.1384 80.2046L90.6676 80.8388C92.1295 81.1015 93.5283 80.1341 93.7921 78.6783L94.4289 75.1636C94.6925 73.7078 93.7213 72.3147 92.2595 72.052Z" fill="#D9D9D9"/>
<path id="Vector_48" d="M102.586 73.9076L96.7101 72.8518C96.3226 72.7821 95.866 73.5125 95.6901 74.4832C95.5144 75.4538 95.6858 76.2969 96.0734 76.3665L101.949 77.4223C102.337 77.4919 102.793 76.7616 102.969 75.791C103.145 74.8203 102.973 73.9772 102.586 73.9076Z" fill="#D9D9D9"/>
<path id="Vector_49" d="M101.67 78.9603L95.7941 77.9045C95.4066 77.8349 94.95 78.5652 94.7741 79.5357C94.5984 80.5063 94.7698 81.3496 95.1574 81.4192L101.033 82.4748C101.421 82.5445 101.877 81.8141 102.053 80.8436C102.229 79.873 102.057 79.0297 101.67 78.9603Z" fill="#D9D9D9"/>
<path id="Vector_50" d="M101.025 85.4219L51.3405 76.4951C51.1119 76.454 50.8909 76.6174 50.847 76.86L49.8123 82.5714C49.7684 82.8141 49.9181 83.0442 50.1467 83.0853L99.8307 92.0118C100.059 92.0529 100.28 91.8895 100.324 91.6469L101.359 85.9355C101.403 85.6929 101.253 85.4629 101.025 85.4219Z" fill="#D9D9D9"/>
<path id="Vector_51" d="M113.361 87.5694L107.614 86.537C107.37 86.493 107.137 86.6542 107.093 86.8968L106.058 92.6082C106.014 92.8509 106.176 93.0832 106.42 93.127L112.167 94.1596C112.411 94.2033 112.645 94.0422 112.689 93.7995L113.723 88.0881C113.767 87.8455 113.605 87.6134 113.361 87.5694Z" fill="#D9D9D9"/>
<path id="Vector_52" d="M121.759 89.0783L116.013 88.0457C115.768 88.002 115.535 88.1629 115.491 88.4056L114.456 94.117C114.412 94.3596 114.575 94.5919 114.819 94.6357L120.565 95.6683C120.81 95.712 121.043 95.5511 121.087 95.3082L122.122 89.5971C122.166 89.3544 122.003 89.1221 121.759 89.0783Z" fill="#D9D9D9"/>
</g>
</g>
</g>
</g>
<defs>
<clipPath id="clip0_371_1613">
<rect width="117" height="100" fill="white"/>
</clipPath>
</defs>
</svg>
