<svg xmlns="http://www.w3.org/2000/svg" width="216" height="90" viewBox="0 0 216 90" fill="none">
    <path d="M216 10H0V90H216V10Z" fill="#FFBF14"/>
    <path opacity="0.2" d="M200 0H16L0 8H216L200 0Z" fill="#FFBF14"/>
    <g clip-path="url(#clip0_110_13546)">
        <path d="M111.712 57.0222C113.868 54.3867 117.537 53.6139 120.775 54.1221L121.452 54.2282L121.038 54.7744C118.976 57.4995 115.171 58.3449 111.947 57.6831L111.282 57.5471L111.712 57.0222Z" fill="white"/>
        <path d="M112.552 37.6291C114.823 39.4547 116.179 42.4818 115.616 45.3928L115.492 46.0312L114.97 45.6448C112.642 43.9225 111.069 40.7255 111.901 37.8352L112.072 37.243L112.552 37.6291Z" fill="white"/>
        <path d="M121.909 46.9993C121.463 50.1666 119.188 53.3808 115.944 54.0964L115.343 54.2294L115.453 53.6229C116.03 50.4454 118.245 47.5415 121.38 46.5515L122 46.3555L121.909 46.9993Z" fill="white"/>
        <path d="M118.528 40.0404C119.73 42.814 119.365 46.1694 117.511 48.5706L117.075 49.1343L116.806 48.4748C115.673 45.6914 115.956 42.3503 117.828 39.9516L118.253 39.4073L118.528 40.0404Z" fill="white"/>
        <path d="M98.1713 39.9517C100.044 42.3504 100.326 45.6915 99.1933 48.4749L98.9245 49.1346L98.4891 48.571C96.6352 46.1693 96.2703 42.8142 97.4721 40.0403L97.7468 39.4072L98.1713 39.9517Z" fill="white"/>
        <path d="M104.054 57.683C100.829 58.3449 97.0244 57.4996 94.962 54.7742L94.5485 54.228L95.2252 54.1219C98.4639 53.6137 102.132 54.3865 104.289 57.022L104.718 57.5467L104.054 57.683Z" fill="white"/>
        <path d="M104.099 37.8355C104.931 40.7256 103.359 43.9227 101.031 45.6449L100.508 46.0313L100.385 45.3929C99.8218 42.4816 101.178 39.4546 103.448 37.6292L103.929 37.2434L104.099 37.8355Z" fill="white"/>
        <path d="M94.6202 46.5516C97.7545 47.5417 99.9703 50.4454 100.548 53.623L100.658 54.2294L100.056 54.0965C96.8116 53.3808 94.5366 50.1667 94.0907 46.9994L94 46.3553L94.6202 46.5516Z" fill="white"/>
        <path d="M110.275 59.9633C110.803 60.5244 111.352 61.0646 111.985 61.4916L112.42 61.7844L112.03 62.1361C111.868 62.2811 111.709 62.4273 111.55 62.5748L111.354 62.7571L111.108 62.6508C109.6 61.9995 109.171 60.3794 108 59.6153C106.829 60.3794 106.401 61.9995 104.892 62.6512L104.646 62.7576L104.45 62.575C104.291 62.4272 104.132 62.2813 103.971 62.1365L103.58 61.7849L104.016 61.492C104.649 61.065 105.198 60.5249 105.725 59.9638C105.002 60.3216 104.285 60.7341 103.461 60.8884C101.991 61.1354 100.418 61.2235 99.0206 60.6137L98.345 60.3194L98.9517 59.9008C100.334 58.9476 101.817 58.0592 103.536 57.9225C104.888 57.8483 106.26 57.8816 107.586 58.1871L107.603 58.1911L107.62 58.197C107.87 58.2779 108.131 58.2779 108.382 58.197L108.398 58.1911L108.416 58.1871C109.741 57.8816 111.113 57.8483 112.47 57.9225C114.185 58.0592 115.668 58.9479 117.049 59.9008L117.656 60.3194L116.98 60.6137C115.583 61.2238 114.009 61.1353 112.536 60.8878C111.714 60.7335 110.997 60.3213 110.275 59.9635L110.275 59.9633Z" fill="white"/>
        <path d="M109.598 54.0002H107.61V47.6442H105.146V46.1462C105.492 46.1555 105.823 46.1322 106.14 46.0762C106.467 46.0109 106.756 45.9035 107.008 45.7542C107.27 45.5955 107.489 45.3902 107.666 45.1382C107.844 44.8862 107.96 44.5735 108.016 44.2002H109.598V54.0002Z" fill="white"/>
    </g>
    <defs>
        <clipPath id="clip0_110_13546">
            <rect width="28" height="28" fill="white" transform="translate(94 36)"/>
        </clipPath>
    </defs>
</svg>