<svg width="216" height="74" viewBox="0 0 216 74" fill="none" xmlns="http://www.w3.org/2000/svg">
<path d="M216 10H0V74H216V10Z" fill="#ADACAE"/>
<path opacity="0.2" d="M200 0H16L0 8H216L200 0Z" fill="#ADACAE"/>
<g clip-path="url(#clip0_110_13537)">
<path d="M111.712 49.0222C113.868 46.3867 117.537 45.6139 120.775 46.1221L121.452 46.2282L121.038 46.7744C118.976 49.4995 115.171 50.3449 111.947 49.6831L111.282 49.5471L111.712 49.0222Z" fill="white"/>
<path d="M112.552 29.6291C114.823 31.4547 116.179 34.4818 115.616 37.3928L115.492 38.0312L114.97 37.6448C112.642 35.9225 111.069 32.7255 111.901 29.8352L112.072 29.243L112.552 29.6291Z" fill="white"/>
<path d="M121.909 38.9993C121.463 42.1666 119.188 45.3808 115.944 46.0964L115.343 46.2294L115.453 45.6229C116.03 42.4454 118.245 39.5415 121.38 38.5515L122 38.3555L121.909 38.9993Z" fill="white"/>
<path d="M118.528 32.0404C119.73 34.814 119.365 38.1694 117.511 40.5706L117.075 41.1343L116.806 40.4748C115.673 37.6914 115.956 34.3503 117.828 31.9516L118.253 31.4073L118.528 32.0404Z" fill="white"/>
<path d="M98.1713 31.9517C100.044 34.3504 100.326 37.6915 99.1933 40.4749L98.9245 41.1346L98.4891 40.571C96.6352 38.1693 96.2703 34.8142 97.4721 32.0403L97.7468 31.4072L98.1713 31.9517Z" fill="white"/>
<path d="M104.054 49.683C100.829 50.3449 97.0244 49.4996 94.962 46.7742L94.5485 46.228L95.2252 46.1219C98.4639 45.6137 102.132 46.3865 104.289 49.022L104.718 49.5467L104.054 49.683Z" fill="white"/>
<path d="M104.099 29.8355C104.931 32.7256 103.359 35.9227 101.031 37.6449L100.508 38.0313L100.385 37.3929C99.8218 34.4816 101.178 31.4546 103.448 29.6292L103.929 29.2434L104.099 29.8355Z" fill="white"/>
<path d="M94.6202 38.5516C97.7545 39.5417 99.9703 42.4454 100.548 45.623L100.658 46.2294L100.056 46.0965C96.8116 45.3808 94.5366 42.1667 94.0907 38.9994L94 38.3553L94.6202 38.5516Z" fill="white"/>
<path d="M110.275 51.9633C110.803 52.5244 111.352 53.0646 111.985 53.4916L112.42 53.7844L112.03 54.1361C111.868 54.2811 111.709 54.4273 111.55 54.5748L111.354 54.7571L111.108 54.6508C109.6 53.9995 109.171 52.3794 108 51.6153C106.829 52.3794 106.401 53.9995 104.892 54.6512L104.646 54.7576L104.45 54.575C104.291 54.4272 104.132 54.2813 103.971 54.1365L103.58 53.7849L104.016 53.492C104.649 53.065 105.198 52.5249 105.725 51.9638C105.002 52.3216 104.285 52.7341 103.461 52.8884C101.991 53.1354 100.418 53.2235 99.0206 52.6137L98.345 52.3194L98.9517 51.9008C100.334 50.9476 101.817 50.0592 103.536 49.9225C104.888 49.8483 106.26 49.8816 107.586 50.1871L107.603 50.1911L107.62 50.197C107.87 50.2779 108.131 50.2779 108.382 50.197L108.398 50.1911L108.416 50.1871C109.741 49.8816 111.113 49.8483 112.47 49.9225C114.185 50.0592 115.668 50.9479 117.049 51.9008L117.656 52.3194L116.98 52.6137C115.583 53.2238 114.009 53.1353 112.536 52.8878C111.714 52.7335 110.997 52.3213 110.275 51.9635L110.275 51.9633Z" fill="white"/>
<path d="M104.628 39.9659C104.61 39.4059 104.675 38.8879 104.824 38.4119C104.974 37.9266 105.198 37.5066 105.496 37.1519C105.795 36.7879 106.168 36.5079 106.616 36.3119C107.074 36.1066 107.596 36.0039 108.184 36.0039C108.632 36.0039 109.057 36.0739 109.458 36.2139C109.869 36.3539 110.228 36.5546 110.536 36.8159C110.844 37.0772 111.087 37.3992 111.264 37.7819C111.451 38.1646 111.544 38.5939 111.544 39.0699C111.544 39.5646 111.465 39.9892 111.306 40.3439C111.148 40.6986 110.938 41.0159 110.676 41.2959C110.415 41.5666 110.116 41.8139 109.78 42.0379C109.454 42.2619 109.122 42.4859 108.786 42.7099C108.45 42.9246 108.124 43.1579 107.806 43.4099C107.489 43.6619 107.209 43.9559 106.966 44.2919H111.6V45.9999H104.404C104.404 45.4306 104.484 44.9359 104.642 44.5159C104.81 44.0959 105.034 43.7226 105.314 43.3959C105.594 43.0599 105.921 42.7519 106.294 42.4719C106.677 42.1919 107.078 41.9072 107.498 41.6179C107.713 41.4686 107.942 41.3192 108.184 41.1699C108.427 41.0112 108.646 40.8386 108.842 40.6519C109.048 40.4652 109.216 40.2552 109.346 40.0219C109.486 39.7886 109.556 39.5226 109.556 39.2239C109.556 38.7479 109.416 38.3792 109.136 38.1179C108.866 37.8472 108.516 37.7119 108.086 37.7119C107.797 37.7119 107.55 37.7819 107.344 37.9219C107.148 38.0526 106.99 38.2299 106.868 38.4539C106.747 38.6686 106.658 38.9112 106.602 39.1819C106.556 39.4432 106.532 39.7046 106.532 39.9659H104.628Z" fill="white"/>
</g>
<defs>
<clipPath id="clip0_110_13537">
<rect width="28" height="28" fill="white" transform="translate(94 28)"/>
</clipPath>
</defs>
</svg>
