<svg xmlns="http://www.w3.org/2000/svg" width="15" height="16" viewBox="0 0 15 16" fill="none">
    <path d="M1.57895 15.1052C1.14474 15.1052 0.773026 14.9506 0.463816 14.6414C0.154605 14.3322 0 13.9605 0 13.5263V2.47366C0 2.03945 0.154605 1.66774 0.463816 1.35853C0.773026 1.04932 1.14474 0.894714 1.57895 0.894714H12.6316C13.0658 0.894714 13.4375 1.04932 13.7467 1.35853C14.0559 1.66774 14.2105 2.03945 14.2105 2.47366V4.44735H12.6316V2.47366H1.57895V13.5263H12.6316V11.5526H14.2105V13.5263C14.2105 13.9605 14.0559 14.3322 13.7467 14.6414C13.4375 14.9506 13.0658 15.1052 12.6316 15.1052H1.57895ZM7.89474 11.9473C7.46053 11.9473 7.08882 11.7927 6.77961 11.4835C6.4704 11.1743 6.31579 10.8026 6.31579 10.3684V5.63156C6.31579 5.19735 6.4704 4.82564 6.77961 4.51643C7.08882 4.20721 7.46053 4.05261 7.89474 4.05261H13.4211C13.8553 4.05261 14.227 4.20721 14.5362 4.51643C14.8454 4.82564 15 5.19735 15 5.63156V10.3684C15 10.8026 14.8454 11.1743 14.5362 11.4835C14.227 11.7927 13.8553 11.9473 13.4211 11.9473H7.89474ZM13.4211 10.3684V5.63156H7.89474V10.3684H13.4211Z" fill="currentColor"/>
</svg>