<svg xmlns="http://www.w3.org/2000/svg" viewBox="0 0 528 528" fill="none">
  <path fill-rule="evenodd" clip-rule="evenodd" d="M527.992 261.933C527.427 188.284 496.705 121.815 447.565 74.2631C447.323 74.029 447.08 73.7953 446.837 73.5621C422.816 50.4932 394.438 31.9255 363.062 19.2154C362.752 19.0897 362.441 18.9646 362.131 18.8401C345.532 12.19 328.1 7.17676 310.036 4.00013C305.166 3.14372 300.25 2.42079 295.292 1.83527C295.292 1.83523 295.292 1.83531 295.292 1.83527C294.96 1.7961 294.628 1.75743 294.296 1.71949C294.296 1.71945 294.296 1.71953 294.296 1.71949C284.355 0.583642 274.246 0.00012207 264 0.00012207C249.813 0.00012207 235.887 1.11921 222.306 3.27394C222.306 3.2739 222.306 3.27398 222.306 3.27394C221.976 3.32627 221.646 3.37909 221.317 3.43264C221.317 3.4326 221.317 3.43268 221.317 3.43264C198.214 7.18828 176.117 13.9426 155.438 23.283C155.134 23.4204 154.83 23.5583 154.527 23.6968C147.501 26.9027 140.64 30.4077 133.961 34.1954C122.829 40.5083 112.201 47.6067 102.152 55.4153C102.152 55.4153 102.152 55.4153 102.152 55.4153C101.888 55.62 101.625 55.825 101.363 56.0306C101.363 56.0306 101.363 56.0306 101.363 56.0306C70.5094 80.1928 45.1687 111.072 27.5413 146.467C11.5357 178.606 1.8894 214.468 0.250007 252.406C0.0839068 256.25 0 260.115 0 264C0 348.454 39.656 423.645 101.363 471.97C101.625 472.175 101.888 472.38 102.152 472.585C118.23 485.079 135.791 495.754 154.527 504.303C154.83 504.442 155.134 504.58 155.438 504.717C176.117 514.058 198.214 520.812 221.317 524.568C221.647 524.621 221.976 524.674 222.306 524.726C235.887 526.881 249.813 528 264 528C274.246 528 284.355 527.417 294.296 526.281C294.628 526.243 294.96 526.204 295.292 526.165C353.814 519.254 406.474 493.2 446.837 454.438C447.08 454.205 447.323 453.971 447.565 453.737C496.705 406.186 527.427 339.716 527.992 266.068C527.997 265.452 527.999 264.835 528 264.218C528 264.146 528 264.073 528 264C528 263.927 528 263.855 528 263.782C527.999 263.165 527.997 262.549 527.992 261.933ZM519.801 263.5C506.834 262.963 493.978 261.997 481.247 260.615C481.108 261.559 481.026 262.522 481.005 263.5H519.801ZM480.005 263.5C480.026 262.486 480.11 261.486 480.252 260.506C448.753 257.032 418.02 251.013 388.263 242.66C386.191 249.245 385.052 256.243 385.002 263.5H480.005ZM385.002 264.5H480.005C480.026 265.515 480.11 266.514 480.252 267.494C448.753 270.968 418.02 276.987 388.263 285.34C386.191 278.756 385.052 271.757 385.002 264.5ZM384.002 263.5C384.052 256.149 385.203 249.06 387.3 242.389C357.707 234.026 329.084 223.353 301.637 210.577C293.622 226.502 289.079 244.474 289.001 263.5H384.002ZM289.001 264.5H384.002C384.052 271.851 385.203 278.941 387.3 285.611C357.707 293.975 329.084 304.648 301.637 317.423C293.622 301.498 289.079 283.526 289.001 264.5ZM288.001 263.5C288.079 244.323 292.656 226.208 300.73 210.154C274.012 197.661 248.414 183.174 224.126 166.884C204.623 194.122 193.106 227.469 193.001 263.5H288.001ZM193.001 264.5H288.001C288.079 283.677 292.656 301.793 300.73 317.846C274.012 330.339 248.414 344.827 224.126 361.116C204.623 333.878 193.106 300.531 193.001 264.5ZM192.001 263.5C192.106 227.262 203.685 193.724 223.296 166.326C200.061 150.684 178.032 133.391 157.374 114.615C120.104 153.185 97.1322 205.66 97.0006 263.5H192.001ZM97.0006 264.5H192.001C192.106 300.738 203.685 334.276 223.296 361.674C200.061 377.316 178.032 394.609 157.374 413.385C120.104 374.816 97.1322 322.34 97.0006 264.5ZM96.0006 263.5C96.1322 205.401 119.202 152.689 156.635 113.941C137.204 96.2189 118.994 77.1818 102.145 56.9708C40.8289 104.975 1.37889 179.628 1.22269 263.5H96.0006ZM1.22269 264.5H96.0006C96.1322 322.6 119.202 375.311 156.635 414.059C137.205 431.781 118.994 450.818 102.145 471.029C40.8289 423.025 1.37889 348.373 1.22269 264.5ZM481.005 264.5H519.801C506.834 265.037 493.978 266.003 481.247 267.385C481.108 266.441 481.026 265.478 481.005 264.5ZM157.331 414.777C137.934 432.467 119.755 451.47 102.934 471.645C118.941 484.079 136.425 494.704 155.078 503.211C165.686 482.245 177.939 462.253 191.668 443.404C179.247 435.057 167.741 425.454 157.331 414.777ZM155.989 503.625C176.576 512.919 198.575 519.638 221.576 523.371C225.793 504.028 231.707 485.32 239.154 467.408C222.571 461.469 206.925 453.559 192.5 443.961C178.801 462.764 166.575 482.708 155.989 503.625ZM264 526.778C274.227 526.778 284.318 526.194 294.24 525.057C294.081 521.391 294 517.705 294 514C294 502.275 294.807 490.739 296.369 479.443C276.773 478.042 257.9 474.026 240.097 467.744C232.671 485.598 226.773 504.248 222.565 523.53C236.062 525.668 249.901 526.778 264 526.778ZM295.236 524.941C353.513 518.038 405.945 492.065 446.117 453.435C443.01 449.063 440.188 444.473 437.679 439.693C402.273 465.065 358.881 480 312 480C307.083 480 302.204 479.836 297.369 479.512C295.807 490.785 295 502.298 295 514C295 517.666 295.079 521.313 295.236 524.941ZM446.845 452.733C483.96 416.768 510.499 369.954 521.348 317.403C508.711 367.09 478.852 409.9 438.499 439.103C440.98 443.843 443.771 448.395 446.845 452.733ZM526.757 267.357C526.761 266.985 526.765 266.612 526.768 266.239C512.547 268.301 499.14 272.879 487.013 279.507C491.219 284.111 497.272 287 504 287C515.562 287 525.132 278.469 526.757 267.357ZM446.845 75.2675C483.96 111.232 510.499 158.047 521.348 210.597C508.711 160.911 478.852 118.101 438.499 88.8977C440.98 84.1574 443.771 79.605 446.845 75.2675ZM446.117 74.5649C422.207 51.5729 393.954 33.0644 362.711 20.392C359.649 30.7606 357.453 41.5004 356.206 52.5277C386.093 58.7433 413.715 71.1347 437.679 88.3073C440.188 83.5275 443.01 78.9376 446.117 74.5649ZM361.779 20.0161C340.799 11.6007 318.483 5.81282 295.236 3.05952C295.079 6.68681 295 10.3342 295 14.0001C295 25.7021 295.807 37.2156 297.369 48.4878C302.204 48.1644 307.083 48.0001 312 48.0001C326.803 48.0001 341.257 49.4891 355.223 52.3255C356.482 41.2382 358.695 30.4404 361.779 20.0161ZM264 1.22235C249.901 1.22235 236.062 2.33265 222.565 4.47059C226.773 23.7522 232.671 42.4019 240.097 60.2566C257.9 53.9739 276.773 49.9584 296.369 48.557C294.807 37.2616 294 25.7251 294 14.0001C294 10.2952 294.081 6.60911 294.24 2.94349C284.318 1.80658 274.227 1.22235 264 1.22235ZM221.576 4.6292C198.575 8.36255 176.576 15.0816 155.989 24.3756C166.575 45.2918 178.801 65.2363 192.5 84.0395C206.925 74.4415 222.571 66.5317 239.154 60.5921C231.707 42.6807 225.793 23.9718 221.576 4.6292ZM191.668 84.5959C177.939 65.7475 165.686 45.7554 155.078 24.7893C136.425 33.2963 118.941 43.9207 102.934 56.3555C119.755 76.5302 137.934 95.533 157.331 113.223C167.741 102.546 179.247 92.9433 191.668 84.5959ZM526.768 261.762C526.765 261.389 526.761 261.016 526.757 260.643C525.132 249.532 515.562 241 504 241C497.272 241 491.219 243.889 487.013 248.493C499.14 255.121 512.547 259.699 526.768 261.762ZM356.096 53.5264C385.856 59.7297 413.359 72.0858 437.213 89.2039C433.719 95.9989 430.855 103.171 428.697 110.642C407.726 101.233 384.474 96.0001 360 96.0001C358.754 96.0001 357.511 96.0137 356.271 96.0407C355.432 88.8104 355 81.4557 355 74.0001C355 67.0824 355.372 60.2516 356.096 53.5264ZM297.509 49.4808C302.298 49.162 307.13 49.0001 312 49.0001C326.766 49.0001 341.184 50.4886 355.112 53.3237C354.377 60.1149 354 67.0135 354 74.0001C354 81.4636 354.43 88.8265 355.268 96.0655C340.063 96.486 325.363 98.9268 311.426 103.129C304.885 86.0697 300.166 68.1075 297.509 49.4808ZM240.483 61.181C258.208 54.931 276.998 50.9388 296.508 49.5497C299.171 68.2536 303.904 86.2907 310.467 103.421C297.138 107.528 284.516 113.249 272.831 120.356C260.126 101.904 249.256 82.0914 240.483 61.181ZM193.09 84.848C207.453 75.2961 223.029 67.4253 239.539 61.5164C248.335 82.4927 259.236 102.368 271.977 120.879C261.819 127.139 252.378 134.451 243.805 142.662C225.258 124.94 208.277 105.592 193.09 84.848ZM158.071 113.897C168.436 103.27 179.892 93.7118 192.258 85.4042C207.477 106.198 224.496 125.592 243.084 143.357C236.062 150.163 229.633 157.577 223.88 165.514C200.686 149.901 178.694 132.639 158.071 113.897ZM523.545 225.402C511.552 174.393 476.313 132.348 429.618 111.059C431.748 103.649 434.579 96.536 438.034 89.7957C482.027 121.679 513.469 169.82 523.545 225.402ZM523.545 302.599C513.47 358.18 482.027 406.321 438.034 438.205C434.579 431.464 431.748 424.351 429.618 416.942C476.313 395.652 511.552 353.607 523.545 302.599ZM437.213 438.796C433.719 432.001 430.855 424.83 428.697 417.358C407.726 426.767 384.474 432 360 432C343.111 432 326.804 429.508 311.426 424.871C304.885 441.931 300.166 459.893 297.509 478.519C302.298 478.838 307.13 479 312 479C358.715 479 401.95 464.101 437.213 438.796ZM296.508 478.451C299.171 459.747 303.904 441.71 310.467 424.579C297.138 420.472 284.516 414.751 272.831 407.645C260.126 426.096 249.256 445.909 240.483 466.819C258.208 473.069 276.998 477.061 296.508 478.451ZM239.539 466.484C248.335 445.508 259.236 425.632 271.977 407.122C261.819 400.861 252.378 393.549 243.805 385.338C225.258 403.06 208.277 422.408 193.09 443.152C207.453 452.704 223.029 460.575 239.539 466.484ZM192.258 442.596C207.477 421.802 224.496 402.408 243.084 384.643C236.062 377.837 229.633 370.423 223.88 362.486C200.686 378.099 178.694 395.361 158.071 414.103C168.436 424.731 179.892 434.288 192.258 442.596ZM224.711 361.928C230.432 369.818 236.826 377.187 243.809 383.953C263.952 364.79 285.927 347.536 309.444 332.479C306.398 328.102 303.635 323.513 301.183 318.738C274.512 331.208 248.957 345.668 224.711 361.928ZM244.53 384.647C253.055 392.809 262.444 400.076 272.546 406.298C287.143 385.227 304.131 365.938 323.116 348.822C318.329 344.032 313.945 338.839 310.02 333.298C286.555 348.318 264.628 365.53 244.53 384.647ZM273.4 406.82C285.021 413.882 297.573 419.565 310.828 423.643C318.999 402.572 329.944 382.884 343.215 365.027C336.222 360.533 329.726 355.333 323.827 349.528C304.896 366.588 287.957 385.816 273.4 406.82ZM360 431C384.38 431 407.54 425.776 428.421 416.386C425.54 406.084 424 395.222 424 384C424 383.647 424.002 383.294 424.005 382.942C418.769 383.64 413.427 384 408 384C384.496 384 362.571 377.243 344.06 365.565C330.838 383.346 319.932 402.952 311.787 423.935C327.052 428.531 343.238 431 360 431ZM429.343 415.968C478.595 393.457 515.001 347.708 524.536 292.743C512.976 339.77 473.693 375.898 425.006 382.804C425.002 383.202 425 383.601 425 384C425 395.074 426.513 405.795 429.343 415.968ZM425.006 145.196C473.693 152.103 512.976 188.23 524.536 235.258C515.001 180.293 478.595 134.543 429.343 112.032C426.513 122.205 425 132.926 425 144C425 144.399 425.002 144.798 425.006 145.196ZM360 97.0001C358.794 97.0001 357.59 97.0129 356.39 97.0384C358.647 115.612 363.599 133.355 370.842 149.864C382.542 146.058 395.031 144 408 144C413.427 144 418.769 144.36 424.005 145.058C424.004 144.965 424.003 144.873 424.003 144.78C424.002 144.666 424.001 144.552 424.001 144.438C424 144.292 424 144.146 424 144C424 132.779 425.54 121.917 428.421 111.615C407.54 102.224 384.38 97.0001 360 97.0001ZM355.386 97.0626C340.265 97.4728 325.647 99.8928 311.787 104.065C319.932 125.048 330.838 144.654 344.06 162.435C352.079 157.377 360.737 153.241 369.888 150.179C362.614 133.578 357.645 115.738 355.386 97.0626ZM310.828 104.357C297.573 108.435 285.021 114.118 273.4 121.18C287.957 142.184 304.896 161.412 323.827 178.473C329.726 172.667 336.222 167.467 343.215 162.973C329.944 145.117 318.999 125.428 310.828 104.357ZM272.546 121.703C262.444 127.924 253.055 135.191 244.53 143.353C264.628 162.47 286.555 179.682 310.02 194.702C313.945 189.162 318.329 183.969 323.116 179.178C304.131 162.063 287.143 142.774 272.546 121.703ZM309.444 195.521C285.927 180.465 263.952 163.21 243.809 144.048C236.826 150.813 230.432 158.182 224.711 166.072C248.957 182.332 274.512 196.792 301.183 209.262C303.635 204.487 306.398 199.898 309.444 195.521ZM481.415 268.373C482.278 268.279 483.141 268.188 484.004 268.098C483.446 268.175 482.887 268.253 482.329 268.332L482.126 268.361C481.895 268.394 481.663 268.427 481.432 268.46L481.415 268.373ZM388.57 286.293C418.281 277.955 448.967 271.948 480.418 268.482L480.43 268.549L480.441 268.604C449.315 273.154 419.258 280.996 390.634 291.765C389.874 289.978 389.185 288.152 388.57 286.293ZM302.091 318.315C329.49 305.564 358.065 294.911 387.606 286.564C388.229 288.452 388.927 290.304 389.698 292.119C361.74 302.712 335.156 316.099 310.288 331.94C307.265 327.601 304.524 323.05 302.091 318.315ZM481.432 259.54C482.289 259.663 483.146 259.784 484.004 259.902C483.141 259.813 482.278 259.721 481.415 259.627L481.432 259.54ZM480.441 259.396L480.431 259.447L480.418 259.518C448.967 256.052 418.281 250.046 388.57 241.707C389.185 239.848 389.874 238.023 390.634 236.235C419.258 247.004 449.315 254.846 480.441 259.396ZM302.09 209.685C329.49 222.437 358.065 233.089 387.607 241.436C388.229 239.549 388.927 237.696 389.698 235.881C361.74 225.289 335.156 211.901 310.288 196.06C307.265 200.4 304.524 204.95 302.09 209.685ZM481.647 269.44C485.041 268.952 488.448 268.503 491.868 268.095C488.479 268.633 485.107 269.222 481.754 269.862C481.717 269.722 481.681 269.581 481.647 269.44ZM391.033 292.684C419.597 281.941 449.592 274.12 480.653 269.584C480.69 269.74 480.729 269.896 480.769 270.052C450.348 275.955 421.418 286.037 394.601 299.676C393.288 297.422 392.096 295.088 391.033 292.684ZM310.864 332.759C335.676 316.957 362.2 303.603 390.095 293.038C391.172 295.477 392.379 297.844 393.709 300.132C368.347 313.128 344.889 329.311 323.861 348.153C319.111 343.403 314.76 338.254 310.864 332.759ZM481.754 258.138C485.107 258.778 488.479 259.368 491.868 259.906C488.449 259.497 485.041 259.048 481.647 258.561C481.681 258.419 481.717 258.278 481.754 258.138ZM480.693 258.249C480.68 258.305 480.666 258.361 480.653 258.417C449.592 253.881 419.597 246.059 391.033 235.316C392.096 232.912 393.288 230.579 394.601 228.324C421.418 241.963 450.348 252.045 480.769 257.949C480.743 258.049 480.718 258.149 480.693 258.249ZM310.864 195.241C335.676 211.043 362.2 224.397 390.095 234.962C391.172 232.524 392.379 230.156 393.709 227.868C368.347 214.872 344.889 198.689 323.861 179.848C319.111 184.597 314.76 189.747 310.864 195.241ZM482.03 270.828C487.545 269.777 493.108 268.863 498.716 268.091C493.181 269.104 487.71 270.299 482.31 271.669C482.211 271.391 482.118 271.111 482.03 270.828ZM395.111 300.539C421.855 286.944 450.705 276.897 481.042 271.017C481.135 271.32 481.233 271.621 481.337 271.918C452.153 279.451 425.034 292.121 401.004 308.908C398.847 306.269 396.876 303.473 395.111 300.539ZM324.573 348.858C345.54 330.077 368.931 313.947 394.218 300.995C396.004 303.971 397.999 306.807 400.183 309.484C378.64 324.66 359.603 343.154 343.814 364.223C336.874 359.769 330.427 354.614 324.573 348.858ZM482.31 256.331C487.71 257.702 493.181 258.897 498.716 259.909C493.108 259.137 487.545 258.224 482.03 257.173C482.118 256.89 482.211 256.609 482.31 256.331ZM481.337 256.082C481.233 256.38 481.135 256.68 481.042 256.983C450.705 251.104 421.855 241.057 395.111 227.461C396.876 224.527 398.847 221.731 401.004 219.093C425.034 235.879 452.153 248.549 481.337 256.082ZM324.573 179.142C345.54 197.923 368.931 214.053 394.218 227.006C396.004 224.03 397.999 221.193 400.183 218.517C378.64 203.34 359.603 184.846 343.814 163.777C336.874 168.231 330.427 173.386 324.573 179.142ZM482.666 272.611C495.59 269.337 508.916 267.074 522.556 265.911C509.648 268.239 497.458 272.632 486.339 278.735C484.816 276.912 483.57 274.849 482.666 272.611ZM401.644 309.68C425.59 292.965 452.611 280.353 481.689 272.861C482.612 275.184 483.888 277.328 485.45 279.229C463.933 291.279 446.508 309.765 435.783 332.08C422.29 328.08 410.475 320.177 401.644 309.68ZM344.661 364.761C360.393 343.781 379.36 325.366 400.822 310.256C409.75 320.896 421.699 328.915 435.348 332.995C428.345 347.888 424.313 364.455 424.017 381.931C418.779 382.636 413.432 383 408 383C384.721 383 363.003 376.316 344.661 364.761ZM483.244 254.079C490.135 256.403 497.202 258.342 504.421 259.872C497.057 258.696 489.8 257.197 482.666 255.389C482.845 254.946 483.038 254.508 483.244 254.079ZM482.291 253.754C482.076 254.209 481.875 254.67 481.689 255.14C452.611 247.648 425.59 235.035 401.644 218.32C404.378 215.071 407.397 212.07 410.664 209.357C430.702 229.098 455.104 244.423 482.291 253.754ZM344.661 163.239C360.393 184.219 379.36 202.634 400.822 217.744C403.588 214.448 406.644 211.404 409.95 208.65C393.417 192.191 379.899 172.707 370.293 151.098C361.212 154.129 352.619 158.226 344.661 163.239ZM518.616 261.31C507.164 258.844 496.32 254.743 486.339 249.265C485.332 250.47 484.447 251.781 483.701 253.177C494.906 256.947 506.582 259.695 518.616 261.31ZM482.741 252.851C483.505 251.397 484.415 250.031 485.45 248.771C463.933 236.721 446.508 218.235 435.783 195.92C426.796 198.585 418.554 202.98 411.442 208.72C431.392 228.351 455.682 243.585 482.741 252.851ZM410.727 208.012C394.272 191.648 380.814 172.273 371.248 150.784C382.823 147.029 395.174 145 408 145C413.432 145 418.779 145.364 424.017 146.069C424.313 163.546 428.345 180.113 435.348 195.006C426.256 197.723 417.919 202.189 410.727 208.012ZM425.02 146.208C476.533 153.585 517.4 193.955 525.527 245.223C517.267 214.564 489.268 192 456 192C449.177 192 442.575 192.949 436.32 194.723C429.355 179.962 425.335 163.537 425.02 146.208ZM486.114 280.003C464.744 291.923 447.429 310.239 436.757 332.362C442.877 334.081 449.331 335 456 335C492.396 335 522.396 307.614 526.517 272.324C523.133 281.476 514.328 288 504 288C496.894 288 490.508 284.911 486.114 280.003ZM456 336C449.177 336 442.575 335.051 436.32 333.278C429.355 348.039 425.335 364.463 425.02 381.792C476.533 374.415 517.4 334.045 525.527 282.778C517.267 313.436 489.268 336 456 336ZM486.114 247.997C464.744 236.077 447.429 217.761 436.757 195.639C442.877 193.92 449.331 193 456 193C492.396 193 522.396 220.386 526.517 255.676C523.133 246.524 514.328 240 504 240C496.894 240 490.508 243.089 486.114 247.997Z" fill="currentColor"/>
</svg>
