<svg viewBox="0 0 16 16" fill="none" xmlns="http://www.w3.org/2000/svg">
<path d="M10.6667 3.33325H14.6667M12.6667 1.33325V5.33325M14 7.66659V12.6666C14 13.0202 13.8595 13.3593 13.6095 13.6094C13.3594 13.8594 13.0203 13.9999 12.6667 13.9999H3.33333C2.97971 13.9999 2.64057 13.8594 2.39052 13.6094C2.14048 13.3593 2 13.0202 2 12.6666V3.33325C2 2.97963 2.14048 2.64049 2.39052 2.39044C2.64057 2.14039 2.97971 1.99992 3.33333 1.99992H8.33333M14 9.99992L11.9427 7.94259C11.6926 7.69262 11.3536 7.5522 11 7.5522C10.6464 7.5522 10.3074 7.69262 10.0573 7.94259L4 13.9999M7.33333 5.99992C7.33333 6.7363 6.73638 7.33325 6 7.33325C5.26362 7.33325 4.66667 6.7363 4.66667 5.99992C4.66667 5.26354 5.26362 4.66659 6 4.66659C6.73638 4.66659 7.33333 5.26354 7.33333 5.99992Z" stroke="currentColor" stroke-width="1.33333" stroke-linecap="round" stroke-linejoin="round"/>
</svg>
