<svg xmlns="http://www.w3.org/2000/svg" width="16" height="16" viewBox="0 0 16 16" fill="none">
  <g clip-path="url(#clip0_383_4340)">
    <path d="M12.0002 7.99984V3.33317C12.0002 2.97955 11.8598 2.64041 11.6097 2.39036C11.3597 2.14031 11.0205 1.99984 10.6669 1.99984C10.3133 1.99984 9.97414 2.14031 9.72409 2.39036C9.47404 2.64041 9.33356 2.97955 9.33356 3.33317M9.33356 7.99984V1.99984C9.33356 1.64622 9.19309 1.30708 8.94304 1.05703C8.69299 0.80698 8.35385 0.666504 8.00023 0.666504C7.64661 0.666504 7.30747 0.80698 7.05742 1.05703C6.80737 1.30708 6.6669 1.64622 6.6669 1.99984V3.33317M6.6669 3.33317V7.99984M6.6669 3.33317C6.6669 2.97955 6.52642 2.64041 6.27637 2.39036C6.02633 2.14031 5.68719 1.99984 5.33356 1.99984C4.97994 1.99984 4.6408 2.14031 4.39076 2.39036C4.14071 2.64041 4.00023 2.97955 4.00023 3.33317V9.33317M12.0002 4.6665C12.0002 4.31288 12.1407 3.97374 12.3908 3.72369C12.6408 3.47365 12.9799 3.33317 13.3336 3.33317C13.6872 3.33317 14.0263 3.47365 14.2764 3.72369C14.5264 3.97374 14.6669 4.31288 14.6669 4.6665V9.33317C14.6669 10.7477 14.105 12.7709 13.1048 13.7711C12.1046 14.7713 10.7481 15.3332 9.33356 15.3332H8.00023C6.13356 15.3332 5.00023 14.7598 4.0069 13.7732L1.6069 10.7065C1.37752 10.4525 1.25462 10.1199 1.26365 9.7778C1.27267 9.43565 1.41293 9.11007 1.65538 8.86848C1.89783 8.62688 2.2239 8.48778 2.56608 8.47997C2.90826 8.47215 3.24034 8.59623 3.49356 8.8265L4.6669 9.99984" stroke="#FF3756" stroke-linecap="round" stroke-linejoin="round"/>
  </g>
  <defs>
    <clipPath id="clip0_383_4340">
      <rect width="16" height="16" fill="white"/>
    </clipPath>
  </defs>
</svg>
