<svg width="16" height="16" viewBox="0 0 24 24" fill="none" xmlns="http://www.w3.org/2000/svg">
<path fill-rule="evenodd" clip-rule="evenodd" d="M9.87878 0.87868C10.4414 0.31607 11.2045 0 12.0001 0C12.7958 0 13.5588 0.31607 14.1214 0.87868C14.4939 1.2512 14.7584 1.71159 14.8945 2.21114C15.2431 2.07295 15.6179 2 16.0001 2C16.7958 2 17.5588 2.31607 18.1214 2.87868C18.4939 3.2512 18.7584 3.71159 18.8945 4.21114C19.2431 4.07295 19.6179 4 20.0001 4C20.7958 4 21.5588 4.31607 22.1214 4.87868C22.684 5.44129 23.0001 6.20435 23.0001 7V14C23.0001 15.1783 22.7688 16.5728 22.3411 17.8738C21.9175 19.1625 21.2681 20.4599 20.3641 21.364C18.6762 23.0518 16.3871 24 14.0001 24H12.0001C8.93129 24 6.97932 23.0322 5.30538 21.3695C5.27588 21.3402 5.24823 21.3091 5.2226 21.2763L1.6421 16.7012C1.14259 16.1335 0.875611 15.3975 0.895575 14.6406C0.915881 13.8707 1.23146 13.1382 1.77697 12.5946C2.32248 12.051 3.05614 11.738 3.82605 11.7205C4.23121 11.7112 4.63007 11.7841 5.0001 11.9308V5C5.0001 4.20435 5.31617 3.44129 5.87878 2.87868C6.44139 2.31607 7.20445 2 8.0001 2C8.38235 2 8.75708 2.07295 9.10567 2.21114C9.24183 1.71159 9.50627 1.2512 9.87878 0.87868ZM9.0001 5V12C9.0001 12.5523 9.44782 13 10.0001 13C10.5524 13 11.0001 12.5523 11.0001 12V3C11.0001 2.73478 11.1055 2.48043 11.293 2.29289C11.4805 2.10536 11.7349 2 12.0001 2C12.2653 2 12.5197 2.10536 12.7072 2.29289C12.8947 2.48043 13.0001 2.73478 13.0001 3V12C13.0001 12.5523 13.4478 13 14.0001 13C14.5524 13 15.0001 12.5523 15.0001 12V5C15.0001 4.73478 15.1055 4.48043 15.293 4.29289C15.4805 4.10536 15.7349 4 16.0001 4C16.2653 4 16.5197 4.10536 16.7072 4.29289C16.8947 4.48043 17.0001 4.73478 17.0001 5V12C17.0001 12.5523 17.4478 13 18.0001 13C18.5524 13 19.0001 12.5523 19.0001 12V7C19.0001 6.73478 19.1055 6.48043 19.293 6.29289C19.4805 6.10536 19.7349 6 20.0001 6C20.2653 6 20.5197 6.10536 20.7072 6.29289C20.8947 6.48043 21.0001 6.73478 21.0001 7V14C21.0001 14.9435 20.81 16.1272 20.4412 17.2492C20.0683 18.3834 19.5461 19.3535 18.9499 19.9497C17.6371 21.2625 15.8566 22 14.0001 22H12.0001C9.49692 22 8.05307 21.2644 6.75823 19.9934L3.19761 15.4437C3.18315 15.4252 3.16804 15.4073 3.15232 15.3898C2.98029 15.1993 2.88811 14.9499 2.89488 14.6933C2.90165 14.4367 3.00684 14.1925 3.18868 14.0113C3.37051 13.8301 3.61507 13.7258 3.8717 13.7199C4.12178 13.7142 4.36467 13.8024 4.55265 13.9668L5.29247 14.7066C5.29282 14.7069 5.29317 14.7073 5.29353 14.7076L6.293 15.7071C6.68352 16.0976 7.31669 16.0976 7.70721 15.7071C8.09773 15.3166 8.09773 14.6834 7.70721 14.2929L7.0001 13.5858V5C7.0001 4.73478 7.10546 4.48043 7.293 4.29289C7.48053 4.10536 7.73489 4 8.0001 4C8.26532 4 8.51967 4.10536 8.70721 4.29289C8.89475 4.48043 9.0001 4.73478 9.0001 5Z" fill="currentColor"/>
</svg>
