<svg viewBox="0 0 16 16" fill="none" xmlns="http://www.w3.org/2000/svg">
<path d="M11.3334 14.6667V11.3333M11.3334 4.66668V1.33334M4.66675 14.6667V12.6667M4.66675 3.33334V1.33334M4.00008 3.33334H5.33341C6.06979 3.33334 6.66675 3.9303 6.66675 4.66668V11.3333C6.66675 12.0697 6.06979 12.6667 5.33341 12.6667H4.00008C3.2637 12.6667 2.66675 12.0697 2.66675 11.3333V4.66668C2.66675 3.9303 3.2637 3.33334 4.00008 3.33334ZM10.6667 4.66668H12.0001C12.7365 4.66668 13.3334 5.26363 13.3334 6.00001V10C13.3334 10.7364 12.7365 11.3333 12.0001 11.3333H10.6667C9.93037 11.3333 9.33341 10.7364 9.33341 10V6.00001C9.33341 5.26363 9.93037 4.66668 10.6667 4.66668Z" stroke="currentColor" stroke-width="1.33333" stroke-linecap="round" stroke-linejoin="round"/>
</svg>
