<svg viewBox="0 0 24 24" fill="none" xmlns="http://www.w3.org/2000/svg">
<path fill-rule="evenodd" clip-rule="evenodd" d="M11.9999 19.8C16.3077 19.8 19.7999 16.3078 19.7999 12C19.7999 7.69213 16.3077 4.19995 11.9999 4.19995C7.69207 4.19995 4.19989 7.69213 4.19989 12C4.19989 16.3078 7.69207 19.8 11.9999 19.8ZM16.1786 10.1524C16.4837 9.83282 16.4719 9.32642 16.1523 9.02135C15.8327 8.71628 15.3263 8.72806 15.0212 9.04766L11.0181 13.2414L8.97859 11.1048C8.67352 10.7852 8.16712 10.7734 7.84752 11.0785C7.52792 11.3836 7.51615 11.89 7.82122 12.2096L10.4394 14.9524C10.5904 15.1106 10.7995 15.2 11.0181 15.2C11.2367 15.2 11.4458 15.1106 11.5968 14.9524L16.1786 10.1524Z" fill="currentColor"/>
</svg>
