<svg xmlns="http://www.w3.org/2000/svg" width="16" height="16" viewBox="0 0 16 16" fill="none">
    <path fill-rule="evenodd" clip-rule="evenodd" d="M15 8C15 11.866 11.866 15 8 15C4.13401 15 1 11.866 1 8C1 4.13401 4.13401 1 8 1C11.866 1 15 4.13401 15 8ZM10.7071 7.37312C11.0976 6.9826 11.0976 6.34943 10.7071 5.95891C10.3166 5.56838 9.68342 5.56838 9.29289 5.95891L7.33333 7.91847L6.70711 7.29224C6.31658 6.90172 5.68342 6.90172 5.29289 7.29224C4.90237 7.68277 4.90237 8.31593 5.29289 8.70646L6.62623 10.0398C7.01675 10.4303 7.64992 10.4303 8.04044 10.0398L10.7071 7.37312Z" fill="currentColor"/>
</svg>