<svg xmlns="http://www.w3.org/2000/svg" viewBox="0 0 22 22" fill="none">
  <path d="M5.66688 8.33355H4.33355C3.74418 8.33355 3.17895 8.09942 2.7622 7.68268C2.34545 7.26593 2.11133 6.7007 2.11133 6.11133C2.11133 5.52196 2.34545 4.95673 2.7622 4.53998C3.17895 4.12323 3.74418 3.88911 4.33355 3.88911H5.66688M5.66688 8.33355V2.11133H16.3336V8.33355M5.66688 8.33355C5.66688 9.74804 6.22879 11.1046 7.22898 12.1048C8.22918 13.105 9.58573 13.6669 11.0002 13.6669C12.4147 13.6669 13.7713 13.105 14.7715 12.1048C15.7716 11.1046 16.3336 9.74804 16.3336 8.33355M16.3336 8.33355H17.6669C18.2563 8.33355 18.8215 8.09942 19.2382 7.68268C19.655 7.26593 19.8891 6.7007 19.8891 6.11133C19.8891 5.52196 19.655 4.95673 19.2382 4.53998C18.8215 4.12323 18.2563 3.88911 17.6669 3.88911H16.3336M3.88911 19.8891H18.1113M9.22244 13.3647V15.4447C9.22244 15.9336 8.80466 16.3158 8.36022 16.5202C7.31133 17.0002 6.55577 18.3247 6.55577 19.8891M12.778 13.3647V15.4447C12.778 15.9336 13.1958 16.3158 13.6402 16.5202C14.6891 17.0002 15.4447 18.3247 15.4447 19.8891" stroke="currentColor" stroke-width="1.77333" stroke-linecap="round" stroke-linejoin="round"/>
</svg>
