<svg width="14" height="14" viewBox="0 0 14 14" fill="none" xmlns="http://www.w3.org/2000/svg">
<g clip-path="url(#clip0_179_14026)">
<path fill-rule="evenodd" clip-rule="evenodd" d="M5.58813 9.89236C5.70495 12.0428 7.48572 13.7506 9.66537 13.7506C11.9205 13.7506 13.7487 11.9225 13.7487 9.6673C13.7487 7.48818 12.0417 5.70773 9.89197 5.59015C9.4569 7.75382 7.75209 9.45808 5.58813 9.89236ZM8.5 8.50061C8.5 8.17845 8.76117 7.91728 9.08334 7.91728H9.66667C9.98884 7.91728 10.25 8.17845 10.25 8.50061V10.8339C10.25 11.1561 9.98884 11.4173 9.66667 11.4173C9.3445 11.4173 9.08334 11.1561 9.08334 10.8339V9.08395C8.76117 9.08395 8.5 8.82278 8.5 8.50061Z" fill="currentColor"/>
<path d="M4.66406 8.16699C6.59706 8.16699 8.16406 6.59999 8.16406 4.66699C8.16406 2.734 6.59706 1.16699 4.66406 1.16699C2.73107 1.16699 1.16406 2.734 1.16406 4.66699C1.16406 6.59999 2.73107 8.16699 4.66406 8.16699Z" stroke="currentColor" stroke-width="1.16667" stroke-linecap="round" stroke-linejoin="round"/>
<path fill-rule="evenodd" clip-rule="evenodd" d="M8.16406 4.66699C8.16406 6.59999 6.59706 8.16699 4.66406 8.16699C2.73107 8.16699 1.16406 6.59999 1.16406 4.66699C1.16406 2.734 2.73107 1.16699 4.66406 1.16699C6.59706 1.16699 8.16406 2.734 8.16406 4.66699ZM4.08203 2.91667C3.75987 2.91667 3.4987 3.17783 3.4987 3.5C3.4987 3.82217 3.75987 4.08333 4.08203 4.08333V5.83333C4.08203 6.1555 4.3432 6.41667 4.66536 6.41667C4.98753 6.41667 5.2487 6.1555 5.2487 5.83333V3.5C5.2487 3.17783 4.98753 2.91667 4.66536 2.91667H4.08203Z" fill="currentColor"/>
</g>
<defs>
<clipPath id="clip0_179_14026">
<rect width="14" height="14" fill="white"/>
</clipPath>
</defs>
</svg>
