<svg viewBox="0 0 16 16" fill="none" xmlns="http://www.w3.org/2000/svg">
    <path d="M12.1651 3.76168C11.3767 3.40072 10.5444 3.14465 9.68942 3C9.57243 3.20914 9.46657 3.42432 9.37229 3.64464C8.4616 3.50741 7.53548 3.50741 6.62479 3.64464C6.53046 3.42435 6.4246 3.20917 6.30766 3C5.45215 3.14587 4.61929 3.40255 3.83009 3.76356C2.26332 6.08162 1.8386 8.34211 2.05096 10.5705C2.9685 11.2484 3.99548 11.764 5.08728 12.0948C5.33312 11.7642 5.55065 11.4134 5.73758 11.0462C5.38254 10.9136 5.03986 10.75 4.71352 10.5573C4.79941 10.495 4.88341 10.4308 4.96458 10.3685C5.91417 10.8151 6.9506 11.0466 7.99995 11.0466C9.04931 11.0466 10.0857 10.8151 11.0353 10.3685C11.1174 10.4355 11.2014 10.4997 11.2864 10.5573C10.9594 10.7503 10.6161 10.9142 10.2604 11.0471C10.4471 11.4142 10.6647 11.7646 10.9107 12.0948C12.0035 11.7653 13.0312 11.25 13.949 10.5714C14.1981 7.98723 13.5233 5.74751 12.1651 3.76168ZM6.00657 9.20006C5.41479 9.20006 4.92588 8.66301 4.92588 8.00233C4.92588 7.34164 5.3978 6.79988 6.00469 6.79988C6.61157 6.79988 7.0967 7.34164 7.08632 8.00233C7.07594 8.66301 6.60968 9.20006 6.00657 9.20006ZM9.99334 9.20006C9.40061 9.20006 8.91359 8.66301 8.91359 8.00233C8.91359 7.34164 9.38551 6.79988 9.99334 6.79988C10.6012 6.79988 11.0825 7.34164 11.0721 8.00233C11.0618 8.66301 10.5964 9.20006 9.99334 9.20006Z" fill="currentColor"/>
</svg>
