<svg viewBox="0 0 16 16" fill="none" xmlns="http://www.w3.org/2000/svg">
<g clip-path="url(#clip0_2607_35)">
<path d="M10.6667 5.33326V8.66659C10.6667 9.19702 10.8774 9.70573 11.2525 10.0808C11.6276 10.4559 12.1363 10.6666 12.6667 10.6666C13.1971 10.6666 13.7059 10.4559 14.0809 10.0808C14.456 9.70573 14.6667 9.19702 14.6667 8.66659V7.99992C14.6667 6.49813 14.1596 5.04032 13.2277 3.8627C12.2957 2.68508 10.9934 1.85664 9.53173 1.5116C8.07011 1.16656 6.5348 1.32513 5.17456 1.96163C3.81431 2.59812 2.70882 3.67525 2.0372 5.0185C1.36558 6.36175 1.16717 7.89242 1.47412 9.36251C1.78107 10.8326 2.57539 12.156 3.7284 13.1183C4.88141 14.0805 6.32554 14.6253 7.82683 14.6643C9.32812 14.7034 10.7986 14.2343 12 13.3333M10.6667 7.99992C10.6667 9.47268 9.47281 10.6666 8.00005 10.6666C6.52729 10.6666 5.33338 9.47268 5.33338 7.99992C5.33338 6.52717 6.52729 5.33326 8.00005 5.33326C9.47281 5.33326 10.6667 6.52717 10.6667 7.99992Z" stroke="currentColor" stroke-width="1.33333" stroke-linecap="round" stroke-linejoin="round"/>
</g>
<defs>
<clipPath id="clip0_2607_35">
<rect width="16" height="16" fill="white"/>
</clipPath>
</defs>
</svg>
