<svg width="16" height="16" viewBox="0 0 16 16" fill="none" xmlns="http://www.w3.org/2000/svg">
<path d="M4.12445 2.48926H11.8756V13.5115H10.7378V8.46259H10.7266C10.6009 7.0672 9.42814 5.9737 8 5.9737C6.57187 5.9737 5.39913 7.0672 5.27339 8.46259H5.26223V13.5115H4.12445V2.48926Z" fill="currentColor"/>
<path d="M2.06223 4.0537L2.52445 5.61815H2.91556V11.947C2.71919 11.947 2.56 12.1062 2.56 12.3026V12.7293H2.48889C2.29252 12.7293 2.13334 12.8884 2.13334 13.0848V13.5115H6.11556V13.0848C6.11556 12.8884 5.95637 12.7293 5.76 12.7293H5.68889V12.3026C5.68889 12.1062 5.5297 11.947 5.33334 11.947H4.90667V4.0537H2.06223Z" fill="currentColor"/>
<path d="M10.8089 11.947C10.6125 11.947 10.4533 12.1062 10.4533 12.3026V12.7293H10.3822C10.1859 12.7293 10.0267 12.8884 10.0267 13.0848V13.5115H14.0089V13.0848C14.0089 12.8884 13.8497 12.7293 13.6533 12.7293H13.5822V12.3026C13.5822 12.1062 13.423 11.947 13.2267 11.947V5.61815H13.6178L14.08 4.0537H11.2356V11.947H10.8089Z" fill="currentColor"/>
</svg>
