<svg xmlns="http://www.w3.org/2000/svg" width="12" height="6" viewBox="0 0 12 6" fill="none">
    <path d="M5.32787 3.03197C5.1892 2.8933 5.03453 2.74397 4.86387 2.58397C4.6932 2.42397 4.51187 2.27464 4.31987 2.13597C4.12787 1.9973 3.9252 1.8853 3.71187 1.79997C3.49853 1.70397 3.29053 1.65597 3.08787 1.65597C2.70387 1.65597 2.39987 1.79464 2.17587 2.07197C1.95187 2.33864 1.83987 2.6533 1.83987 3.01597C1.83987 3.41064 1.95187 3.73064 2.17587 3.97597C2.41053 4.2213 2.73053 4.34397 3.13587 4.34397C3.33853 4.34397 3.5412 4.30663 3.74387 4.23197C3.9572 4.14664 4.15453 4.03997 4.33587 3.91197C4.52787 3.78397 4.7092 3.6453 4.87987 3.49597C5.05053 3.33597 5.19987 3.1813 5.32787 3.03197ZM10.5599 3.01597C10.5599 2.6213 10.4479 2.29597 10.2239 2.03997C9.99987 1.7733 9.6852 1.63997 9.27987 1.63997C9.06653 1.63997 8.85853 1.68797 8.65587 1.78397C8.4532 1.8693 8.25587 1.98664 8.06387 2.13597C7.88253 2.27464 7.70653 2.4293 7.53587 2.59997C7.37587 2.75997 7.22653 2.9093 7.08787 3.04797C7.22653 3.1973 7.3812 3.35197 7.55187 3.51197C7.72253 3.6613 7.89853 3.79997 8.07987 3.92797C8.27187 4.05597 8.4692 4.16263 8.67187 4.24797C8.8852 4.32263 9.10387 4.35997 9.32787 4.35997C9.72253 4.35997 10.0265 4.23197 10.2399 3.97597C10.4532 3.7093 10.5599 3.3893 10.5599 3.01597ZM11.9359 2.96797C11.9359 3.3733 11.8772 3.75197 11.7599 4.10397C11.6425 4.4453 11.4665 4.74397 11.2319 4.99997C11.0079 5.25597 10.7305 5.45864 10.3999 5.60797C10.0799 5.7573 9.71187 5.83197 9.29587 5.83197C8.9652 5.83197 8.65587 5.78397 8.36787 5.68797C8.09053 5.5813 7.82387 5.44264 7.56787 5.27197C7.32253 5.1013 7.08253 4.9093 6.84787 4.69597C6.62387 4.48264 6.41053 4.26397 6.20787 4.03997C5.98387 4.26397 5.75987 4.48264 5.53587 4.69597C5.32253 4.9093 5.0932 5.09597 4.84787 5.25597C4.6132 5.41597 4.3572 5.5493 4.07987 5.65597C3.80253 5.75197 3.48787 5.79997 3.13587 5.79997C2.73053 5.79997 2.36253 5.73064 2.03187 5.59197C1.7012 5.44264 1.41853 5.2453 1.18387 4.99997C0.949201 4.75464 0.767867 4.4613 0.639867 4.11997C0.522534 3.77864 0.463867 3.4053 0.463867 2.99997C0.463867 2.6053 0.522534 2.2373 0.639867 1.89597C0.767867 1.55464 0.943867 1.25597 1.16787 0.999969C1.39187 0.743969 1.66387 0.546635 1.98387 0.407969C2.31453 0.258635 2.68253 0.183969 3.08787 0.183969C3.4292 0.183969 3.74387 0.237302 4.03187 0.343968C4.33053 0.450635 4.60253 0.594635 4.84787 0.775969C5.10387 0.946635 5.33853 1.14397 5.55187 1.36797C5.77587 1.59197 5.99453 1.82664 6.20787 2.07197C6.41053 1.8373 6.62387 1.60797 6.84787 1.38397C7.07187 1.1493 7.31187 0.946635 7.56787 0.775969C7.82387 0.594635 8.09587 0.450635 8.38387 0.343968C8.67187 0.226635 8.9812 0.167969 9.31187 0.167969C9.7172 0.167969 10.0799 0.242635 10.3999 0.391969C10.7305 0.530635 11.0079 0.727969 11.2319 0.983969C11.4559 1.2293 11.6265 1.52264 11.7439 1.86397C11.8719 2.2053 11.9359 2.5733 11.9359 2.96797Z" fill="currentColor"/>
</svg>
