<svg viewBox="0 0 24 24" fill="none" xmlns="http://www.w3.org/2000/svg">
<path d="M15.5 7.5L17.8 9.8C17.9869 9.98323 18.2382 10.0859 18.5 10.0859C18.7618 10.0859 19.0131 9.98323 19.2 9.8L21.3 7.7C21.4832 7.51307 21.5859 7.26175 21.5859 7C21.5859 6.73825 21.4832 6.48693 21.3 6.3L19 4" stroke="currentColor" stroke-width="2" stroke-linecap="round" stroke-linejoin="round"/>
<path d="M21 2L11.4 11.6" stroke="currentColor" stroke-width="2" stroke-linecap="round" stroke-linejoin="round"/>
<path d="M7.5 21C10.5376 21 13 18.5376 13 15.5C13 12.4624 10.5376 10 7.5 10C4.46243 10 2 12.4624 2 15.5C2 18.5376 4.46243 21 7.5 21Z" stroke="currentColor" stroke-width="2" stroke-linecap="round" stroke-linejoin="round"/>
</svg>
