<svg viewBox="0 0 24 24" fill="none" xmlns="http://www.w3.org/2000/svg">
<path d="M10 13C10.4295 13.5741 10.9774 14.0492 11.6066 14.3929C12.2357 14.7367 12.9315 14.9411 13.6467 14.9923C14.3618 15.0436 15.0796 14.9404 15.7513 14.6898C16.4231 14.4392 17.0331 14.0471 17.54 13.54L20.54 10.54C21.4508 9.59699 21.9548 8.33398 21.9434 7.023C21.932 5.71201 21.4061 4.45795 20.4791 3.53091C19.5521 2.60387 18.298 2.07803 16.987 2.06663C15.676 2.05524 14.413 2.55921 13.47 3.47L11.75 5.18M14 11C13.5706 10.4259 13.0227 9.95081 12.3935 9.60706C11.7643 9.2633 11.0685 9.05888 10.3534 9.00766C9.63822 8.95645 8.92043 9.05963 8.24867 9.31021C7.57691 9.5608 6.9669 9.95293 6.46002 10.46L3.46002 13.46C2.54923 14.403 2.04525 15.666 2.05665 16.977C2.06804 18.288 2.59388 19.542 3.52092 20.4691C4.44796 21.3961 5.70203 21.922 7.01301 21.9334C8.32399 21.9448 9.58701 21.4408 10.53 20.53L12.24 18.82" stroke="currentColor" stroke-width="2" stroke-linecap="round" stroke-linejoin="round"/>
</svg>
