<svg width="648" height="264" viewBox="0 0 648 264" fill="none" xmlns="http://www.w3.org/2000/svg">
<g clip-path="url(#clip0_1567_39845)">
<path d="M182.751 224.651C144.454 202.541 125.302 155.253 125.564 96.3356C125.827 37.4511 145.499 -32.8256 184.571 -100.501C223.643 -168.176 274.669 -220.351 325.533 -250.02C376.426 -279.706 426.954 -286.764 465.251 -264.653C503.548 -242.542 522.7 -195.254 522.438 -136.337C522.176 -77.4526 502.504 -7.17591 463.431 60.4993C424.359 128.174 373.334 180.349 322.469 210.019C271.577 239.704 221.048 246.762 182.751 224.651Z" stroke="#FFCB00" stroke-width="2" stroke-linecap="round" stroke-linejoin="round"/>
<path d="M192.751 207.332C157.187 186.799 139.39 142.878 139.633 88.1291C139.877 33.4129 158.157 -31.8942 194.468 -94.7867C230.779 -157.679 278.197 -206.164 325.46 -233.733C372.752 -261.318 419.688 -267.866 455.251 -247.333C490.815 -226.8 508.612 -182.879 508.369 -128.131C508.125 -73.4144 489.845 -8.10724 453.534 54.7852C417.223 117.678 369.805 166.162 322.542 193.731C275.25 221.317 228.314 227.864 192.751 207.332Z" stroke="#FFCB00" stroke-width="2" stroke-linecap="round" stroke-linejoin="round"/>
<path d="M201.176 192.739C167.915 173.536 151.259 132.452 151.487 81.215C151.715 30.0107 168.822 -31.1096 202.807 -89.9725C236.791 -148.835 281.169 -194.211 325.4 -220.01C369.658 -245.826 413.566 -251.944 446.827 -232.741C480.088 -213.538 496.744 -172.453 496.516 -121.216C496.288 -70.0121 479.181 -8.89189 445.196 49.971C411.212 108.834 366.833 154.209 322.603 180.009C278.345 205.825 234.437 211.943 201.176 192.739Z" stroke="#FFCB00" stroke-width="2" stroke-linecap="round" stroke-linejoin="round"/>
<path d="M210.166 177.167C179.362 159.382 163.925 121.326 164.136 73.8365C164.348 26.3799 180.203 -30.2723 211.705 -84.835C243.207 -139.398 284.341 -181.455 325.334 -205.366C366.356 -229.294 407.032 -234.953 437.836 -217.169C468.64 -199.384 484.078 -161.327 483.866 -113.838C483.655 -66.3814 467.799 -9.72927 436.298 44.8335C404.796 99.3963 363.661 141.454 322.668 165.365C281.647 189.293 240.97 194.952 210.166 177.167Z" stroke="#FFCB00" stroke-width="2" stroke-linecap="round" stroke-linejoin="round"/>
<path d="M219.08 161.729C190.712 145.351 176.482 110.295 176.677 66.5216C176.872 22.7804 191.486 -29.4421 220.527 -79.7418C249.568 -130.041 287.486 -168.809 325.27 -190.849C363.082 -212.904 400.555 -218.109 428.923 -201.731C457.291 -185.352 471.521 -150.297 471.326 -106.523C471.131 -62.782 456.516 -10.5594 427.476 39.7402C398.435 90.0399 360.517 128.808 322.733 150.847C284.921 172.903 247.448 178.107 219.08 161.729Z" stroke="#FFCB00" stroke-width="2" stroke-linecap="round" stroke-linejoin="round"/>
<path d="M226.403 149.044C200.037 133.822 186.799 101.232 186.981 60.5113C187.162 19.8229 200.757 -28.7601 227.775 -75.5571C254.793 -122.354 290.07 -158.419 325.217 -178.92C360.391 -199.438 395.233 -204.269 421.6 -189.046C447.966 -173.824 461.203 -141.234 461.022 -100.513C460.841 -59.8246 447.246 -11.2415 420.227 35.5554C393.209 82.3523 357.933 118.417 322.786 138.919C287.611 159.436 252.769 164.267 226.403 149.044Z" stroke="#FFCB00" stroke-width="2" stroke-linecap="round" stroke-linejoin="round"/>
<path d="M182.751 -264.653C221.048 -286.764 271.577 -279.706 322.469 -250.02C373.334 -220.351 424.359 -168.176 463.431 -100.501C502.504 -32.8254 522.176 37.4513 522.438 96.3358C522.7 155.253 503.548 202.541 465.251 224.652C426.954 246.762 376.426 239.705 325.533 210.019C274.669 180.349 223.643 128.175 184.571 60.4993C145.499 -7.17588 125.827 -77.4526 125.565 -136.337C125.302 -195.254 144.454 -242.542 182.751 -264.653Z" stroke="#FF3756" stroke-width="2" stroke-linecap="round" stroke-linejoin="round"/>
<path d="M192.751 -247.333C228.315 -267.866 275.25 -261.318 322.542 -233.733C369.806 -206.163 417.223 -157.679 453.534 -94.7865C489.845 -31.8941 508.125 33.4131 508.369 88.1292C508.613 142.878 490.815 186.799 455.252 207.332C419.688 227.864 372.753 221.317 325.461 193.731C278.197 166.162 230.779 117.678 194.468 54.7853C158.157 -8.10717 139.877 -73.4143 139.634 -128.13C139.39 -182.879 157.187 -226.8 192.751 -247.333Z" stroke="#FF3756" stroke-width="2" stroke-linecap="round" stroke-linejoin="round"/>
<path d="M201.176 -232.741C234.437 -251.944 278.345 -245.826 322.603 -220.01C366.833 -194.211 411.211 -148.835 445.196 -89.9724C479.18 -31.1094 496.288 30.0108 496.516 81.2152C496.744 132.452 480.088 173.536 446.827 192.74C413.566 211.943 369.658 205.825 325.399 180.009C281.169 154.209 236.791 108.834 202.807 49.9711C168.822 -8.89181 151.715 -70.0121 151.487 -121.216C151.259 -172.453 167.914 -213.537 201.176 -232.741Z" stroke="#FF3756" stroke-width="2" stroke-linecap="round" stroke-linejoin="round"/>
<path d="M210.166 -217.169C240.97 -234.953 281.647 -229.294 322.668 -205.366C363.661 -181.455 404.796 -139.398 436.297 -84.8349C467.799 -30.2721 483.655 26.3801 483.866 73.8367C484.077 121.326 468.64 159.383 437.836 177.167C407.032 194.952 366.355 189.293 325.334 165.365C284.341 141.454 243.207 99.3964 211.705 44.8336C180.203 -9.72917 164.348 -66.3813 164.136 -113.838C163.925 -161.327 179.362 -199.384 210.166 -217.169Z" stroke="#FF3756" stroke-width="2" stroke-linecap="round" stroke-linejoin="round"/>
<path d="M219.08 -201.73C247.448 -218.109 284.921 -212.904 322.733 -190.848C360.516 -168.809 398.435 -130.041 427.476 -79.7416C456.516 -29.4419 471.131 22.7807 471.326 66.5218C471.52 110.296 457.291 145.351 428.923 161.729C400.555 178.107 363.081 172.903 325.27 150.847C287.486 128.808 249.567 90.0401 220.527 39.7404C191.486 -10.5593 176.872 -62.7818 176.677 -106.523C176.482 -150.297 190.712 -185.352 219.08 -201.73Z" stroke="#FF3756" stroke-width="2" stroke-linecap="round" stroke-linejoin="round"/>
<path d="M226.403 -189.046C252.769 -204.269 287.611 -199.438 322.786 -178.92C357.933 -158.419 393.209 -122.354 420.227 -75.5567C447.246 -28.7598 460.841 19.8233 461.022 60.5117C461.203 101.233 447.966 133.822 421.6 149.045C395.233 164.267 360.391 159.436 325.216 138.919C290.07 118.418 254.793 82.3526 227.775 35.5557C200.757 -11.2413 187.162 -59.8243 186.981 -100.513C186.799 -141.234 200.036 -173.823 226.403 -189.046Z" stroke="#FF3756" stroke-width="2" stroke-linecap="round" stroke-linejoin="round"/>
<path d="M41.5009 -20.0007C41.5009 24.2207 72.8774 64.451 124.032 93.6824C175.159 122.898 245.856 140.999 324.001 140.999C402.146 140.999 472.843 122.898 523.97 93.6823C575.124 64.451 606.501 24.2206 606.501 -20.0007C606.501 -64.2221 575.124 -104.452 523.97 -133.684C472.843 -162.899 402.146 -181.001 324.001 -181.001C245.856 -181.001 175.159 -162.899 124.032 -133.684C72.8774 -104.452 41.5009 -64.222 41.5009 -20.0007Z" stroke="#5F1BEC" stroke-width="2" stroke-linecap="round" stroke-linejoin="round"/>
<path d="M61.5001 -20.0007C61.5001 21.0649 90.6381 58.4382 138.174 85.6015C185.681 112.749 251.379 129.571 324.001 129.571C396.623 129.571 462.32 112.749 509.828 85.6014C557.363 58.4382 586.501 21.0648 586.501 -20.0007C586.501 -61.0662 557.363 -98.4395 509.828 -125.603C462.32 -152.75 396.623 -169.572 324.001 -169.572C251.379 -169.572 185.681 -152.75 138.174 -125.603C90.6381 -98.4395 61.5001 -61.0662 61.5001 -20.0007Z" stroke="#5F1BEC" stroke-width="2" stroke-linecap="round" stroke-linejoin="round"/>
<path d="M78.35 -20.0006C78.35 18.4061 105.602 53.3724 150.089 78.7932C194.547 104.198 256.032 119.943 324.001 119.943C391.97 119.943 453.455 104.198 497.914 78.7932C542.4 53.3723 569.652 18.4061 569.652 -20.0007C569.652 -58.4074 542.4 -93.3737 497.914 -118.795C453.455 -144.199 391.97 -159.944 324.001 -159.944C256.032 -159.944 194.547 -144.199 150.089 -118.795C105.602 -93.3736 78.35 -58.4074 78.35 -20.0006Z" stroke="#5F1BEC" stroke-width="2" stroke-linecap="round" stroke-linejoin="round"/>
<path d="M96.331 -20.0006C96.331 15.5688 121.57 47.9662 162.803 71.5277C204.007 95.073 260.997 109.668 324.001 109.668C387.005 109.668 443.995 95.073 485.199 71.5277C526.431 47.9662 551.671 15.5687 551.671 -20.0007C551.671 -55.57 526.431 -87.9675 485.199 -111.529C443.995 -135.074 387.005 -149.669 324.001 -149.669C260.997 -149.669 204.007 -135.074 162.803 -111.529C121.57 -87.9675 96.331 -55.57 96.331 -20.0006Z" stroke="#5F1BEC" stroke-width="2" stroke-linecap="round" stroke-linejoin="round"/>
<path d="M114.158 -20.0006C114.158 12.7558 137.402 42.6067 175.409 64.3247C213.387 86.0267 265.92 99.4814 324.001 99.4813C382.082 99.4813 434.616 86.0266 472.594 64.3247C510.601 42.6067 533.845 12.7558 533.845 -20.0007C533.845 -52.7571 510.601 -82.608 472.594 -104.326C434.616 -126.028 382.082 -139.483 324.001 -139.483C265.92 -139.483 213.387 -126.028 175.408 -104.326C137.402 -82.608 114.158 -52.7571 114.158 -20.0006Z" stroke="#5F1BEC" stroke-width="2" stroke-linecap="round" stroke-linejoin="round"/>
<path d="M128.804 -20.0006C128.804 10.4447 150.409 38.2031 185.765 58.4066C221.093 78.5939 269.965 91.1118 324.001 91.1118C378.037 91.1118 426.909 78.5939 462.237 58.4066C497.593 38.2031 519.198 10.4447 519.198 -20.0006C519.198 -50.4459 497.593 -78.2043 462.237 -98.4078C426.909 -118.595 378.037 -131.113 324.001 -131.113C269.965 -131.113 221.093 -118.595 185.765 -98.4078C150.409 -78.2043 128.804 -50.4459 128.804 -20.0006Z" stroke="#5F1BEC" stroke-width="2" stroke-linecap="round" stroke-linejoin="round"/>
</g>
<defs>
<clipPath id="clip0_1567_39845">
<rect width="648" height="264" fill="white"/>
</clipPath>
</defs>
</svg>
