<svg width="74" height="74" viewBox="0 0 74 74" fill="none" xmlns="http://www.w3.org/2000/svg">
<g clip-path="url(#clip0_1278_12781)">
<rect width="74" height="74" rx="37" fill="#5098EB"/>
<circle cx="37" cy="37" r="37" fill="white"/>
<path d="M21.2051 64.5893C16.9653 62.1414 14.822 56.8915 14.8513 50.2981C14.8807 43.7128 17.0815 35.8434 21.4599 28.2597C25.8383 20.676 31.5531 14.8354 37.2414 11.5173C42.9368 8.19522 48.555 7.42638 52.7949 9.87425C57.0347 12.3221 59.178 17.5721 59.1486 24.1655C59.1193 30.7507 56.9185 38.6202 52.5401 46.2039C48.1616 53.7875 42.4469 59.6282 36.7586 62.9462C31.0632 66.2683 25.445 67.0372 21.2051 64.5893Z" stroke="#FFCB00" stroke-width="0.5" stroke-linecap="round" stroke-linejoin="round"/>
<path d="M22.3282 62.6442C18.3953 60.3735 16.4042 55.5017 16.4314 49.3765C16.4587 43.2593 18.5031 35.948 22.5714 28.9015C26.6398 21.855 31.9493 16.4288 37.2333 13.3466C42.5243 10.2604 47.7389 9.54884 51.6718 11.8195C55.6047 14.0902 57.5958 18.962 57.5685 25.0872C57.5413 31.2043 55.4968 38.5156 51.4285 45.5622C47.3602 52.6087 42.0507 58.0349 36.7667 61.117C31.4757 64.2033 26.2611 64.9148 22.3282 62.6442Z" stroke="#FFCB00" stroke-width="0.5" stroke-linecap="round" stroke-linejoin="round"/>
<path d="M23.2744 61.0053C19.6001 58.8839 17.7372 54.3307 17.7627 48.5999C17.7882 42.8772 19.7009 36.0361 23.5079 29.4421C27.315 22.8482 32.2832 17.7711 37.2264 14.8877C42.1767 12.0002 47.0513 11.3369 50.7256 13.4583C54.3999 15.5796 56.2628 20.1328 56.2373 25.8637C56.2118 31.5864 54.2991 38.4275 50.4921 45.0214C46.685 51.6154 41.7168 56.6924 36.7736 59.5758C31.8233 62.4634 26.9486 63.1266 23.2744 61.0053Z" stroke="#FFCB00" stroke-width="0.5" stroke-linecap="round" stroke-linejoin="round"/>
<path d="M24.2841 59.2564C20.8858 57.2944 19.1597 53.0812 19.1833 47.7713C19.2069 42.4695 20.9791 36.1302 24.5073 30.0192C28.0355 23.9082 32.6394 19.2038 37.2191 16.5324C41.8058 13.857 46.3176 13.2452 49.7159 15.2072C53.1142 17.1693 54.8403 21.3825 54.8167 26.6924C54.793 31.9942 53.0209 38.3335 49.4927 44.4445C45.9645 50.5555 41.3606 55.2599 36.7809 57.9312C32.1942 60.6067 27.6824 61.2185 24.2841 59.2564Z" stroke="#FFCB00" stroke-width="0.5" stroke-linecap="round" stroke-linejoin="round"/>
<path d="M25.2851 57.5226C22.1604 55.7185 20.57 51.8424 20.5918 46.9497C20.6135 42.0652 22.2463 36.2234 25.4981 30.5912C28.7498 24.9589 32.9926 20.624 37.2118 18.1629C41.4381 15.6977 45.5901 15.137 48.7149 16.9411C51.8396 18.7451 53.43 22.6213 53.4082 27.5139C53.3865 32.3984 51.7537 38.2402 48.5019 43.8725C45.2502 49.5047 41.0074 53.8396 36.7882 56.3007C32.5619 58.7659 28.4099 59.3266 25.2851 57.5226Z" stroke="#FFCB00" stroke-width="0.5" stroke-linecap="round" stroke-linejoin="round"/>
<path d="M26.1076 56.098C23.2077 54.4237 21.7287 50.8245 21.749 46.2747C21.7692 41.7331 23.2875 36.3 26.3121 31.0612C29.3368 25.8223 33.2828 21.7909 37.2059 19.5026C41.136 17.2101 44.9925 16.6914 47.8924 18.3657C50.7923 20.0399 52.2713 23.6391 52.251 28.1889C52.2308 32.7306 50.7125 38.1636 47.6879 43.4025C44.6632 48.6413 40.7172 52.6727 36.7941 54.961C32.864 57.2535 29.0076 57.7722 26.1076 56.098Z" stroke="#FFCB00" stroke-width="0.5" stroke-linecap="round" stroke-linejoin="round"/>
<path d="M21.2051 9.87427C25.445 7.4264 31.0632 8.19524 36.7586 11.5174C42.4469 14.8354 48.1617 20.6761 52.5401 28.2597C56.9185 35.8434 59.1193 43.7129 59.1487 50.2981C59.178 56.8915 57.0347 62.1415 52.7949 64.5893C48.555 67.0372 42.9368 66.2684 37.2414 62.9463C31.5531 59.6282 25.8383 53.7875 21.4599 46.2039C17.0815 38.6202 14.8807 30.7508 14.8514 24.1655C14.822 17.5721 16.9653 12.3221 21.2051 9.87427Z" stroke="#FF3756" stroke-width="0.5" stroke-linecap="round" stroke-linejoin="round"/>
<path d="M22.3282 11.8195C26.2611 9.54881 31.4757 10.2604 36.7667 13.3466C42.0507 16.4288 47.3602 21.855 51.4285 28.9015C55.4968 35.948 57.5413 43.2593 57.5685 49.3764C57.5958 55.5017 55.6047 60.3735 51.6718 62.6441C47.7389 64.9148 42.5243 64.2033 37.2333 61.117C31.9493 58.0349 26.6398 52.6086 22.5714 45.5621C18.5031 38.5156 16.4587 31.2043 16.4314 25.0872C16.4042 18.9619 18.3953 14.0901 22.3282 11.8195Z" stroke="#FF3756" stroke-width="0.5" stroke-linecap="round" stroke-linejoin="round"/>
<path d="M23.2744 13.4583C26.9487 11.3369 31.8233 12.0002 36.7736 14.8877C41.7169 17.7712 46.6851 22.8482 50.4921 29.4422C54.2991 36.0361 56.2118 42.8772 56.2373 48.5999C56.2628 54.3308 54.3999 58.884 50.7256 61.0053C47.0513 63.1267 42.1767 62.4634 37.2264 59.5759C32.2832 56.6924 27.315 51.6154 23.5079 45.0215C19.7009 38.4275 17.7882 31.5864 17.7627 25.8637C17.7372 20.1329 19.6001 15.5797 23.2744 13.4583Z" stroke="#FF3756" stroke-width="0.5" stroke-linecap="round" stroke-linejoin="round"/>
<path d="M24.2841 15.2072C27.6824 13.2452 32.1942 13.8569 36.7809 16.5324C41.3606 19.2037 45.9645 23.9081 49.4927 30.0191C53.0209 36.1301 54.7931 42.4694 54.8167 47.7712C54.8403 53.0812 53.1142 57.2944 49.7159 59.2564C46.3176 61.2184 41.8058 60.6066 37.2191 57.9312C32.6394 55.2598 28.0355 50.5555 24.5073 44.4444C20.9791 38.3334 19.207 31.9941 19.1834 26.6923C19.1597 21.3824 20.8858 17.1692 24.2841 15.2072Z" stroke="#FF3756" stroke-width="0.5" stroke-linecap="round" stroke-linejoin="round"/>
<path d="M25.2851 16.9411C28.4099 15.137 32.5619 15.6977 36.7882 18.1629C41.0074 20.624 45.2502 24.959 48.5019 30.5912C51.7537 36.2234 53.3865 42.0652 53.4082 46.9497C53.43 51.8424 51.8396 55.7185 48.7149 57.5226C45.5901 59.3267 41.4381 58.7659 37.2118 56.3007C32.9926 53.8396 28.7498 49.5047 25.4981 43.8725C22.2463 38.2402 20.6135 32.3984 20.5918 27.5139C20.57 22.6213 22.1604 18.7452 25.2851 16.9411Z" stroke="#FF3756" stroke-width="0.5" stroke-linecap="round" stroke-linejoin="round"/>
<path d="M26.1076 18.3656C29.0076 16.6913 32.864 17.2101 36.7941 19.5026C40.7172 21.7909 44.6632 25.8223 47.6879 31.0611C50.7125 36.3 52.2308 41.733 52.251 46.2747C52.2713 50.8245 50.7923 54.4237 47.8924 56.098C44.9925 57.7722 41.136 57.2535 37.2059 54.961C33.2828 52.6727 29.3368 48.6413 26.3121 43.4024C23.2875 38.1636 21.7692 32.7305 21.749 28.1889C21.7287 23.6391 23.2077 20.0399 26.1076 18.3656Z" stroke="#FF3756" stroke-width="0.5" stroke-linecap="round" stroke-linejoin="round"/>
<path d="M5.41023 37.2318C5.41023 42.1276 8.88519 46.6087 14.6099 49.88C20.3276 53.1472 28.2431 55.176 37 55.176C45.7569 55.176 53.6724 53.1472 59.3901 49.88C65.1148 46.6087 68.5898 42.1276 68.5898 37.2318C68.5898 32.3361 65.1148 27.855 59.3901 24.5837C53.6724 21.3165 45.7569 19.2877 37 19.2877C28.2431 19.2877 20.3276 21.3165 14.6099 24.5837C8.88519 27.855 5.41023 32.3361 5.41023 37.2318Z" stroke="#5F1BEC" stroke-width="0.5" stroke-linecap="round" stroke-linejoin="round"/>
<path d="M7.65635 37.2318C7.65635 41.7731 10.8799 45.9334 16.1982 48.9724C21.5094 52.0074 28.8634 53.8925 37 53.8925C45.1366 53.8925 52.4906 52.0074 57.8018 48.9724C63.1201 45.9334 66.3436 41.7731 66.3436 37.2318C66.3436 32.6905 63.1201 28.5303 57.8018 25.4912C52.4906 22.4563 45.1366 20.5712 37 20.5712C28.8634 20.5712 21.5094 22.4563 16.1982 25.4912C10.8799 28.5303 7.65635 32.6905 7.65635 37.2318Z" stroke="#5F1BEC" stroke-width="0.5" stroke-linecap="round" stroke-linejoin="round"/>
<path d="M9.5487 37.2319C9.5487 41.4746 12.5604 45.3645 17.5363 48.2078C22.505 51.0471 29.3859 52.8112 37 52.8112C44.614 52.8112 51.495 51.0471 56.4637 48.2078C61.4395 45.3645 64.4513 41.4746 64.4513 37.2319C64.4513 32.9892 61.4395 29.0992 56.4637 26.2559C51.495 23.4166 44.614 21.6526 37 21.6526C29.3859 21.6526 22.505 23.4166 17.5363 26.2559C12.5604 29.0992 9.5487 32.9892 9.5487 37.2319Z" stroke="#5F1BEC" stroke-width="0.5" stroke-linecap="round" stroke-linejoin="round"/>
<path d="M11.5682 37.2318C11.5682 41.1559 14.3539 44.7573 18.9642 47.3918C23.5675 50.0223 29.9436 51.6572 37 51.6572C44.0564 51.6572 50.4325 50.0223 55.0357 47.3918C59.6461 44.7573 62.4318 41.1559 62.4318 37.2318C62.4318 33.3078 59.6461 29.7064 55.0357 27.0719C50.4325 24.4414 44.0564 22.8065 37 22.8065C29.9436 22.8065 23.5675 24.4414 18.9642 27.0719C14.3539 29.7064 11.5682 33.3078 11.5682 37.2318Z" stroke="#5F1BEC" stroke-width="0.5" stroke-linecap="round" stroke-linejoin="round"/>
<path d="M13.5703 37.2318C13.5703 40.8399 16.1319 44.1554 20.3799 46.5828C24.6209 49.0062 30.4965 50.5131 37 50.5131C43.5035 50.5131 49.3791 49.0062 53.6201 46.5828C57.8681 44.1554 60.4297 40.8399 60.4297 37.2318C60.4297 33.6237 57.8681 30.3083 53.6201 27.8808C49.3791 25.4574 43.5035 23.9505 37 23.9505C30.4965 23.9505 24.6209 25.4574 20.3799 27.8808C16.1319 30.3083 13.5703 33.6237 13.5703 37.2318Z" stroke="#5F1BEC" stroke-width="0.5" stroke-linecap="round" stroke-linejoin="round"/>
<path d="M15.2152 37.2318C15.2152 40.5804 17.5927 43.6608 21.5431 45.9182C25.4864 48.1715 30.9507 49.5731 37 49.5731C43.0493 49.5731 48.5136 48.1715 52.4569 45.9182C56.4073 43.6608 58.7848 40.5804 58.7848 37.2318C58.7848 33.8833 56.4073 30.8029 52.4569 28.5455C48.5136 26.2922 43.0493 24.8905 37 24.8905C30.9507 24.8905 25.4864 26.2922 21.5431 28.5455C17.5927 30.8029 15.2152 33.8833 15.2152 37.2318Z" stroke="#5F1BEC" stroke-width="0.5" stroke-linecap="round" stroke-linejoin="round"/>
</g>
<defs>
<clipPath id="clip0_1278_12781">
<rect width="74" height="74" rx="37" fill="white"/>
</clipPath>
</defs>
</svg>
