<svg width="14" height="14" viewBox="0 0 14 14" fill="none" xmlns="http://www.w3.org/2000/svg">
<g clip-path="url(#clip0_179_14044)">
<path d="M6.9974 4.08366C7.80281 4.08366 8.45573 3.43074 8.45573 2.62533C8.45573 1.81991 7.80281 1.16699 6.9974 1.16699C6.19198 1.16699 5.53906 1.81991 5.53906 2.62533C5.53906 3.43074 6.19198 4.08366 6.9974 4.08366Z" stroke="currentColor" stroke-width="1.16667" stroke-linecap="round" stroke-linejoin="round"/>
<path d="M6.9974 4.08366C7.80281 4.08366 8.45573 3.43074 8.45573 2.62533C8.45573 1.81991 7.80281 1.16699 6.9974 1.16699C6.19198 1.16699 5.53906 1.81991 5.53906 2.62533C5.53906 3.43074 6.19198 4.08366 6.9974 4.08366Z" fill="currentColor"/>
<path d="M5.95078 3.67505L3.67578 5.95005" stroke="currentColor" stroke-width="1.16667" stroke-linecap="round" stroke-linejoin="round"/>
<path d="M2.6224 8.45866C3.42781 8.45866 4.08073 7.80574 4.08073 7.00033C4.08073 6.19491 3.42781 5.54199 2.6224 5.54199C1.81698 5.54199 1.16406 6.19491 1.16406 7.00033C1.16406 7.80574 1.81698 8.45866 2.6224 8.45866Z" stroke="currentColor" stroke-width="1.16667" stroke-linecap="round" stroke-linejoin="round"/>
<path d="M2.6224 8.45866C3.42781 8.45866 4.08073 7.80574 4.08073 7.00033C4.08073 6.19491 3.42781 5.54199 2.6224 5.54199C1.81698 5.54199 1.16406 6.19491 1.16406 7.00033C1.16406 7.80574 1.81698 8.45866 2.6224 8.45866Z" fill="currentColor"/>
<path d="M4.08594 7H9.91927" stroke="currentColor" stroke-width="1.16667" stroke-linecap="round" stroke-linejoin="round"/>
<path d="M11.3724 8.45866C12.1778 8.45866 12.8307 7.80574 12.8307 7.00033C12.8307 6.19491 12.1778 5.54199 11.3724 5.54199C10.567 5.54199 9.91406 6.19491 9.91406 7.00033C9.91406 7.80574 10.567 8.45866 11.3724 8.45866Z" stroke="currentColor" stroke-width="1.16667" stroke-linecap="round" stroke-linejoin="round"/>
<path d="M11.3724 8.45866C12.1778 8.45866 12.8307 7.80574 12.8307 7.00033C12.8307 6.19491 12.1778 5.54199 11.3724 5.54199C10.567 5.54199 9.91406 6.19491 9.91406 7.00033C9.91406 7.80574 10.567 8.45866 11.3724 8.45866Z" fill="currentColor"/>
<path d="M8.05078 10.325L10.3258 8.04999" stroke="currentColor" stroke-width="1.16667" stroke-linecap="round" stroke-linejoin="round"/>
<path d="M6.9974 12.8337C7.80281 12.8337 8.45573 12.1807 8.45573 11.3753C8.45573 10.5699 7.80281 9.91699 6.9974 9.91699C6.19198 9.91699 5.53906 10.5699 5.53906 11.3753C5.53906 12.1807 6.19198 12.8337 6.9974 12.8337Z" stroke="currentColor" stroke-width="1.16667" stroke-linecap="round" stroke-linejoin="round"/>
<path d="M6.9974 12.8337C7.80281 12.8337 8.45573 12.1807 8.45573 11.3753C8.45573 10.5699 7.80281 9.91699 6.9974 9.91699C6.19198 9.91699 5.53906 10.5699 5.53906 11.3753C5.53906 12.1807 6.19198 12.8337 6.9974 12.8337Z" fill="currentColor"/>
</g>
<defs>
<clipPath id="clip0_179_14044">
<rect width="14" height="14" fill="white"/>
</clipPath>
</defs>
</svg>
