<svg xmlns="http://www.w3.org/2000/svg" viewBox="0 0 16 16" fill="none">
  <g clip-path="url(#clip0_4300_10068)">
    <path d="M9.33398 5.99967C9.33398 6.3533 9.19351 6.69243 8.94346 6.94248C8.69341 7.19253 8.35427 7.33301 8.00065 7.33301H4.00065L1.33398 9.99967V2.66634C1.33398 1.93301 1.93398 1.33301 2.66732 1.33301H8.00065C8.35427 1.33301 8.69341 1.47348 8.94346 1.72353C9.19351 1.97358 9.33398 2.31272 9.33398 2.66634V5.99967Z" stroke="currentColor" stroke-width="1.33333" stroke-linecap="round" stroke-linejoin="round"/>
    <path d="M11.9993 6H13.3327C13.6863 6 14.0254 6.14048 14.2755 6.39052C14.5255 6.64057 14.666 6.97971 14.666 7.33333V14.6667L11.9993 12H7.99935C7.64573 12 7.30659 11.8595 7.05654 11.6095C6.80649 11.3594 6.66602 11.0203 6.66602 10.6667V10" stroke="currentColor" stroke-width="1.33333" stroke-linecap="round" stroke-linejoin="round"/>
  </g>
  <defs>
    <clipPath id="clip0_4300_10068">
      <rect width="16" height="16" fill="white"/>
    </clipPath>
  </defs>
</svg>
