<svg width="16" height="16" viewBox="0 0 16 16" fill="none" xmlns="http://www.w3.org/2000/svg">
<path d="M2.66663 13.0007V3.00065C2.66663 2.55862 2.84222 2.1347 3.15478 1.82214C3.46734 1.50958 3.89127 1.33398 4.33329 1.33398H12.6666C12.8434 1.33398 13.013 1.40422 13.138 1.52925C13.2631 1.65427 13.3333 1.82384 13.3333 2.00065V14.0007C13.3333 14.1775 13.2631 14.347 13.138 14.4721C13.013 14.5971 12.8434 14.6673 12.6666 14.6673H4.33329C3.89127 14.6673 3.46734 14.4917 3.15478 14.1792C2.84222 13.8666 2.66663 13.4427 2.66663 13.0007ZM2.66663 13.0007C2.66663 12.5586 2.84222 12.1347 3.15478 11.8221C3.46734 11.5096 3.89127 11.334 4.33329 11.334H13.3333" stroke="currentColor" stroke-width="1.33333" stroke-linecap="round" stroke-linejoin="round"/>
</svg>
