<svg width="12" height="12" viewBox="0 0 12 12" fill="none" xmlns="http://www.w3.org/2000/svg">
<circle cx="6" cy="6" r="5.5" fill="currentColor" fill-opacity="0.1" stroke="currentColor"/>
<path d="M6 0C6.94686 1.12912e-08 7.88028 0.224094 8.72394 0.653961C9.5676 1.08383 10.2975 1.70726 10.8541 2.47329C11.4107 3.23932 11.778 4.12619 11.9261 5.06139C12.0743 5.9966 11.9989 6.95358 11.7063 7.8541C11.4137 8.75462 10.9122 9.57311 10.2426 10.2426C9.57311 10.9122 8.75462 11.4137 7.8541 11.7063C6.95358 11.9989 5.9966 12.0743 5.0614 11.9261C4.12619 11.778 3.23932 11.4107 2.47329 10.8541L6 6L6 0Z" fill="currentColor"/>
</svg>
