<svg viewBox="0 0 16 16" fill="none" xmlns="http://www.w3.org/2000/svg">
<path d="M10.9174 2.41473C11.1828 2.14934 11.5427 2.00024 11.9181 2.00024C12.2934 2.00024 12.6533 2.14934 12.9187 2.41473C13.1841 2.68013 13.3332 3.04008 13.3332 3.4154C13.3332 3.79072 13.1841 4.15067 12.9187 4.41607L4.91207 12.4234C4.75346 12.582 4.55741 12.698 4.34207 12.7607L2.4274 13.3194C2.37003 13.3361 2.30923 13.3371 2.25134 13.3223C2.19345 13.3075 2.14062 13.2774 2.09836 13.2351C2.05611 13.1929 2.02599 13.14 2.01116 13.0821C1.99633 13.0242 1.99733 12.9634 2.01407 12.9061L2.57273 10.9914C2.63555 10.7763 2.75156 10.5805 2.91007 10.4221L10.9174 2.41473Z" stroke="currentColor" stroke-width="1.33333" stroke-linecap="round" stroke-linejoin="round"/>
<path d="M10 3.33325L12 5.33325" stroke="currentColor" stroke-width="1.33333" stroke-linecap="round" stroke-linejoin="round"/>
</svg>
