<svg viewBox="0 0 14 14" fill="none" xmlns="http://www.w3.org/2000/svg">
<path d="M12.3721 9.26924C12.001 10.1469 11.4205 10.9202 10.6815 11.5217C9.94248 12.1231 9.06737 12.5344 8.13267 12.7195C7.19798 12.9047 6.23216 12.858 5.31967 12.5836C4.40718 12.3093 3.57578 11.8155 2.89818 11.1456C2.22058 10.4757 1.71739 9.65002 1.43262 8.74071C1.14785 7.83141 1.09016 6.86619 1.2646 5.92945C1.43904 4.9927 1.84029 4.11294 2.43328 3.36709C3.02627 2.62124 3.79293 2.03201 4.66625 1.65091M12.2496 7.00008C12.5716 7.00008 12.8358 6.73816 12.8038 6.41791C12.6693 5.07867 12.0758 3.82715 11.1239 2.87551C10.1721 1.92387 8.92043 1.33068 7.58117 1.19649C7.26033 1.16441 6.999 1.42866 6.999 1.75066V6.41733C6.999 6.57204 7.06046 6.72041 7.16986 6.8298C7.27925 6.9392 7.42762 7.00066 7.58233 7.00066L12.2496 7.00008Z" stroke="currentColor" stroke-width="1.16667" stroke-linecap="round" stroke-linejoin="round"/>
</svg>
