<svg width="16" height="16" viewBox="0 0 16 16" fill="none" xmlns="http://www.w3.org/2000/svg">
<path d="M7.99979 8.66659V1.33325L13.3331 3.99992L7.99979 6.66659M13.7071 6.81459C14.0619 7.90801 14.0951 9.08034 13.8028 10.1921C13.5104 11.3038 12.9049 12.3082 12.0582 13.0857C11.2114 13.8632 10.1592 14.3811 9.02661 14.5778C7.89402 14.7745 6.72877 14.6417 5.66949 14.1952C4.61021 13.7487 3.70149 13.0073 3.05145 12.0592C2.4014 11.1111 2.03739 9.99622 2.00273 8.8472C1.96807 7.69819 2.26421 6.5634 2.85592 5.57784C3.44764 4.59229 4.31001 3.79746 5.34045 3.28792M5.33445 6.66459C5.00039 7.10927 4.78291 7.63047 4.70182 8.18071C4.62073 8.73095 4.67861 9.29274 4.87019 9.81489C5.06177 10.337 5.38096 10.8029 5.79867 11.1702C6.21639 11.5374 6.71935 11.7943 7.26174 11.9174C7.80413 12.0405 8.3687 12.0259 8.90402 11.875C9.43934 11.7241 9.92838 11.4416 10.3266 11.0533C10.7248 10.665 11.0195 10.1833 11.1839 9.65193C11.3483 9.1206 11.3772 8.55658 11.2678 8.01125" stroke="currentColor" stroke-width="1.33333" stroke-linecap="round" stroke-linejoin="round"/>
</svg>
