<svg width="16" height="16" viewBox="0 0 16 16" fill="none" xmlns="http://www.w3.org/2000/svg">
<g clip-path="url(#clip0_368_55406)">
<path d="M6.06004 6.00001C6.21678 5.55446 6.52614 5.17875 6.93334 4.93943C7.34055 4.70012 7.8193 4.61264 8.28483 4.69248C8.75035 4.77233 9.17259 5.01436 9.47676 5.3757C9.78093 5.73703 9.94741 6.19436 9.94671 6.66668C9.94671 8.00001 7.94671 8.66668 7.94671 8.66668M8.00004 11.3333H8.00671M14.6667 8.00001C14.6667 11.6819 11.6819 14.6667 8.00004 14.6667C4.31814 14.6667 1.33337 11.6819 1.33337 8.00001C1.33337 4.31811 4.31814 1.33334 8.00004 1.33334C11.6819 1.33334 14.6667 4.31811 14.6667 8.00001Z" stroke="currentColor" stroke-linecap="round" stroke-linejoin="round"/>
</g>
<defs>
<clipPath id="clip0_368_55406">
<rect width="16" height="16" fill="white"/>
</clipPath>
</defs>
</svg>
