<svg xmlns="http://www.w3.org/2000/svg" width="16" height="16" viewBox="0 0 16 16" fill="none">
  <path d="M8.14667 1.33301H7.85333C7.49971 1.33301 7.16057 1.47348 6.91053 1.72353C6.66048 1.97358 6.52 2.31272 6.52 2.66634V2.78634C6.51976 3.02016 6.45804 3.2498 6.34103 3.45223C6.22401 3.65466 6.05583 3.82277 5.85333 3.93967L5.56667 4.10634C5.36398 4.22337 5.13405 4.28497 4.9 4.28497C4.66595 4.28497 4.43603 4.22337 4.23333 4.10634L4.13333 4.05301C3.82738 3.87652 3.46389 3.82864 3.12267 3.91988C2.78145 4.01112 2.49037 4.23403 2.31333 4.53967L2.16667 4.79301C1.99018 5.09896 1.9423 5.46245 2.03354 5.80367C2.12478 6.1449 2.34769 6.43597 2.65333 6.61301L2.75333 6.67967C2.95485 6.79601 3.12241 6.96307 3.23937 7.16423C3.35632 7.36539 3.4186 7.59366 3.42 7.82634V8.16634C3.42093 8.40129 3.35977 8.63231 3.2427 8.83601C3.12563 9.03972 2.95681 9.20887 2.75333 9.32634L2.65333 9.38634C2.34769 9.56337 2.12478 9.85445 2.03354 10.1957C1.9423 10.5369 1.99018 10.9004 2.16667 11.2063L2.31333 11.4597C2.49037 11.7653 2.78145 11.9882 3.12267 12.0795C3.46389 12.1707 3.82738 12.1228 4.13333 11.9463L4.23333 11.893C4.43603 11.776 4.66595 11.7144 4.9 11.7144C5.13405 11.7144 5.36398 11.776 5.56667 11.893L5.85333 12.0597C6.05583 12.1766 6.22401 12.3447 6.34103 12.5471C6.45804 12.7495 6.51976 12.9792 6.52 13.213V13.333C6.52 13.6866 6.66048 14.0258 6.91053 14.2758C7.16057 14.5259 7.49971 14.6663 7.85333 14.6663H8.14667C8.50029 14.6663 8.83943 14.5259 9.08948 14.2758C9.33953 14.0258 9.48 13.6866 9.48 13.333V13.213C9.48024 12.9792 9.54196 12.7495 9.65898 12.5471C9.77599 12.3447 9.94418 12.1766 10.1467 12.0597L10.4333 11.893C10.636 11.776 10.866 11.7144 11.1 11.7144C11.3341 11.7144 11.564 11.776 11.7667 11.893L11.8667 11.9463C12.1726 12.1228 12.5361 12.1707 12.8773 12.0795C13.2186 11.9882 13.5096 11.7653 13.6867 11.4597L13.8333 11.1997C14.0098 10.8937 14.0577 10.5302 13.9665 10.189C13.8752 9.84778 13.6523 9.55671 13.3467 9.37967L13.2467 9.32634C13.0432 9.20887 12.8744 9.03972 12.7573 8.83601C12.6402 8.63231 12.5791 8.40129 12.58 8.16634V7.83301C12.5791 7.59806 12.6402 7.36704 12.7573 7.16334C12.8744 6.95963 13.0432 6.79048 13.2467 6.67301L13.3467 6.61301C13.6523 6.43597 13.8752 6.1449 13.9665 5.80367C14.0577 5.46245 14.0098 5.09896 13.8333 4.79301L13.6867 4.53967C13.5096 4.23403 13.2186 4.01112 12.8773 3.91988C12.5361 3.82864 12.1726 3.87652 11.8667 4.05301L11.7667 4.10634C11.564 4.22337 11.3341 4.28497 11.1 4.28497C10.866 4.28497 10.636 4.22337 10.4333 4.10634L10.1467 3.93967C9.94418 3.82277 9.77599 3.65466 9.65898 3.45223C9.54196 3.2498 9.48024 3.02016 9.48 2.78634V2.66634C9.48 2.31272 9.33953 1.97358 9.08948 1.72353C8.83943 1.47348 8.50029 1.33301 8.14667 1.33301Z" stroke="#848484" stroke-width="1.33333" stroke-linecap="round" stroke-linejoin="round"/>
  <path d="M8 9.99967C9.10457 9.99967 10 9.10424 10 7.99967C10 6.8951 9.10457 5.99967 8 5.99967C6.89543 5.99967 6 6.8951 6 7.99967C6 9.10424 6.89543 9.99967 8 9.99967Z" stroke="#848484" stroke-width="1.33333" stroke-linecap="round" stroke-linejoin="round"/>
</svg>
