<svg xmlns="http://www.w3.org/2000/svg"  viewBox="0 0 16 16" fill="none">
  <path d="M2 7.33331H4C4.35362 7.33331 4.69276 7.47379 4.94281 7.72384C5.19286 7.97389 5.33333 8.31302 5.33333 8.66665V10.6666C5.33333 11.0203 5.19286 11.3594 4.94281 11.6095C4.69276 11.8595 4.35362 12 4 12H3.33333C2.97971 12 2.64057 11.8595 2.39052 11.6095C2.14048 11.3594 2 11.0203 2 10.6666V7.33331ZM2 7.33331C2 6.54538 2.15519 5.76517 2.45672 5.03721C2.75825 4.30926 3.20021 3.64782 3.75736 3.09067C4.31451 2.53352 4.97595 2.09156 5.7039 1.79004C6.43185 1.48851 7.21207 1.33331 8 1.33331C8.78793 1.33331 9.56815 1.48851 10.2961 1.79004C11.0241 2.09156 11.6855 2.53352 12.2426 3.09067C12.7998 3.64782 13.2417 4.30926 13.5433 5.03721C13.8448 5.76517 14 6.54538 14 7.33331M14 7.33331V10.6666C14 11.0203 13.8595 11.3594 13.6095 11.6095C13.3594 11.8595 13.0203 12 12.6667 12H12C11.6464 12 11.3072 11.8595 11.0572 11.6095C10.8071 11.3594 10.6667 11.0203 10.6667 10.6666V8.66665C10.6667 8.31302 10.8071 7.97389 11.0572 7.72384C11.3072 7.47379 11.6464 7.33331 12 7.33331H14Z" stroke="currentColor" stroke-width="1.33333" stroke-linecap="round" stroke-linejoin="round"/>
  <path d="M14 10.6667V12C14 12.7073 13.719 13.3855 13.219 13.8856C12.7189 14.3857 12.0406 14.6667 11.3333 14.6667H8" stroke="currentColor" stroke-width="1.33333" stroke-linecap="round" stroke-linejoin="round"/>
</svg>
