<svg width="16" height="16" viewBox="0 0 16 16" fill="none" xmlns="http://www.w3.org/2000/svg">
<path d="M6.66732 6C6.13688 6 5.62818 6.21071 5.2531 6.58579C4.87803 6.96086 4.66732 7.46957 4.66732 8C4.66732 8.53043 4.87803 9.03914 5.2531 9.41421C5.62818 9.78929 6.13688 10 6.66732 10M1.33398 8H2.00065M9.33398 14V2M6.66732 2.66667V2M6.66732 14V13.3333M2.42732 12.24L2.89398 11.7733M2.89398 4.22667L2.42732 3.76M9.96879 4.53569C10.4982 4.37619 11.0593 4.33904 11.609 4.4299C12.3178 4.54705 12.976 4.87177 13.5003 5.36299C12.8194 5.38516 12.1752 5.6769 11.7095 6.17403C11.2437 6.67116 10.9945 7.33296 11.0166 8.01384C11.0388 8.69471 11.3306 9.33889 11.8277 9.80466C12.3248 10.2704 12.9866 10.5196 13.6675 10.4975C13.1763 11.0218 12.5406 11.3886 11.8409 11.5516C11.221 11.6961 10.5755 11.6748 9.96879 11.492" stroke="currentColor" stroke-width="1.3" stroke-linecap="round" stroke-linejoin="round"/>
</svg>
