<svg xmlns="http://www.w3.org/2000/svg" width="16" height="16" viewBox="0 0 16 16" fill="none">
  <path d="M8.33398 8.66699C8.88627 8.66699 9.33398 8.21928 9.33398 7.66699C9.33398 7.11471 8.88627 6.66699 8.33398 6.66699C7.7817 6.66699 7.33398 7.11471 7.33398 7.66699C7.33398 8.21928 7.7817 8.66699 8.33398 8.66699Z" fill="black"/>
  <path d="M13 8.66699C13.5523 8.66699 14 8.21928 14 7.66699C14 7.11471 13.5523 6.66699 13 6.66699C12.4477 6.66699 12 7.11471 12 7.66699C12 8.21928 12.4477 8.66699 13 8.66699Z" fill="black"/>
  <path d="M3.66602 8.66699C4.2183 8.66699 4.66602 8.21928 4.66602 7.66699C4.66602 7.11471 4.2183 6.66699 3.66602 6.66699C3.11373 6.66699 2.66602 7.11471 2.66602 7.66699C2.66602 8.21928 3.11373 8.66699 3.66602 8.66699Z" fill="black"/>
</svg>
