<svg viewBox="0 0 24 24" fill="none" xmlns="http://www.w3.org/2000/svg">
<path d="M6.99902 9.99902V21.999" stroke="currentColor" stroke-width="2" stroke-linecap="round" stroke-linejoin="round"/>
<path d="M14.9999 5.88098L13.9999 10.001H19.8299C20.1404 10.001 20.4466 10.0733 20.7243 10.2121C21.002 10.351 21.2436 10.5526 21.4299 10.801C21.6162 11.0494 21.7421 11.3377 21.7976 11.6432C21.8532 11.9487 21.8368 12.2629 21.7499 12.561L19.4199 20.561C19.2987 20.9764 19.0461 21.3413 18.6999 21.601C18.3537 21.8606 17.9326 22.001 17.4999 22.001H3.99988C3.46944 22.001 2.96074 21.7903 2.58566 21.4152C2.21059 21.0401 1.99988 20.5314 1.99988 20.001V12.001C1.99988 11.4705 2.21059 10.9618 2.58566 10.5868C2.96074 10.2117 3.46944 10.001 3.99988 10.001H6.75988C7.13196 10.0008 7.49661 9.89679 7.81283 9.7007C8.12905 9.50461 8.3843 9.22419 8.54988 8.89098L11.9999 2.00098C12.4715 2.00682 12.9356 2.11915 13.3577 2.32957C13.7797 2.54 14.1488 2.84308 14.4373 3.21618C14.7258 3.58928 14.9262 4.02274 15.0236 4.48418C15.121 4.94562 15.1129 5.42311 14.9999 5.88098Z" stroke="currentColor" stroke-width="2" stroke-linecap="round" stroke-linejoin="round"/>
</svg>
