<svg xmlns="http://www.w3.org/2000/svg" viewBox="0 0 16 16" fill="none">
  <path d="M7.70796 2.17732C7.73673 2.12506 7.77901 2.08148 7.83037 2.05113C7.88173 2.02077 7.9403 2.00476 7.99996 2.00476C8.05962 2.00476 8.11818 2.02077 8.16955 2.05113C8.22091 2.08148 8.26318 2.12506 8.29196 2.17732L10.26 5.91332C10.3069 5.99983 10.3724 6.07488 10.4518 6.13307C10.5311 6.19126 10.6224 6.23116 10.719 6.2499C10.8156 6.26863 10.9152 6.26575 11.0106 6.24144C11.106 6.21714 11.1948 6.17202 11.2706 6.10932L14.122 3.66666C14.1767 3.62214 14.2441 3.59614 14.3146 3.59239C14.3851 3.58865 14.4549 3.60735 14.514 3.64582C14.5732 3.68429 14.6186 3.74053 14.6437 3.80645C14.6689 3.87237 14.6725 3.94457 14.654 4.01266L12.7646 10.8433C12.7261 10.9831 12.643 11.1065 12.528 11.1948C12.413 11.2831 12.2723 11.3315 12.1273 11.3327H3.87329C3.72818 11.3316 3.58736 11.2833 3.47222 11.195C3.35707 11.1067 3.27389 10.9832 3.23529 10.8433L1.34662 4.01332C1.32812 3.94524 1.3317 3.87304 1.35685 3.80712C1.382 3.7412 1.42741 3.68495 1.48656 3.64649C1.5457 3.60802 1.61553 3.58931 1.68598 3.59306C1.75644 3.5968 1.82389 3.6228 1.87862 3.66732L4.72929 6.10999C4.80516 6.17268 4.89396 6.2178 4.98933 6.24211C5.0847 6.26641 5.18427 6.2693 5.28089 6.25056C5.37751 6.23183 5.46878 6.19193 5.54815 6.13374C5.62752 6.07554 5.69303 6.0005 5.73996 5.91399L7.70796 2.17732Z" stroke="currentColor" stroke-width="1.33333" stroke-linecap="round" stroke-linejoin="round"/>
  <path d="M3.33325 14H12.6666" stroke="currentColor" stroke-width="1.33333" stroke-linecap="round" stroke-linejoin="round"/>
</svg>
