<svg viewBox="0 0 24 24" fill="none" xmlns="http://www.w3.org/2000/svg">
<path d="M6 9H4.5C3.83696 9 3.20107 8.73661 2.73223 8.26777C2.26339 7.79893 2 7.16304 2 6.5C2 5.83696 2.26339 5.20107 2.73223 4.73223C3.20107 4.26339 3.83696 4 4.5 4H6" stroke="currentColor" stroke-width="2" stroke-linecap="round" stroke-linejoin="round"/>
<path d="M18 9H19.5C20.163 9 20.7989 8.73661 21.2678 8.26777C21.7366 7.79893 22 7.16304 22 6.5C22 5.83696 21.7366 5.20107 21.2678 4.73223C20.7989 4.26339 20.163 4 19.5 4H18" stroke="currentColor" stroke-width="2" stroke-linecap="round" stroke-linejoin="round"/>
<path d="M4 22H20" stroke="currentColor" stroke-width="2" stroke-linecap="round" stroke-linejoin="round"/>
<path d="M10 14.66V17C10 17.55 9.53 17.98 9.03 18.21C7.85 18.75 7 20.24 7 22" stroke="currentColor" stroke-width="2" stroke-linecap="round" stroke-linejoin="round"/>
<path d="M14 14.66V17C14 17.55 14.47 17.98 14.97 18.21C16.15 18.75 17 20.24 17 22" stroke="currentColor" stroke-width="2" stroke-linecap="round" stroke-linejoin="round"/>
<path d="M18 2H6V9C6 10.5913 6.63214 12.1174 7.75736 13.2426C8.88258 14.3679 10.4087 15 12 15C13.5913 15 15.1174 14.3679 16.2426 13.2426C17.3679 12.1174 18 10.5913 18 9V2Z" stroke="currentColor" stroke-width="2" stroke-linecap="round" stroke-linejoin="round"/>
</svg>
