<svg width="28" height="28" viewBox="0 0 28 28" fill="none" xmlns="http://www.w3.org/2000/svg">
<g clip-path="url(#clip0_110_14368)">
<path d="M17.7121 21.0222C19.868 18.3867 23.5366 17.6139 26.775 18.1221L27.4517 18.2282L27.0385 18.7744C24.9758 21.4995 21.1713 22.3449 17.9467 21.6831L17.2825 21.547L17.7121 21.0222Z" fill="#ADACAE"/>
<path d="M18.5521 1.62912C20.8226 3.45468 22.1792 6.48176 21.6157 9.39283L21.4922 10.0312L20.97 9.64482C18.6418 7.92254 17.0692 4.72546 17.901 1.83516L18.0718 1.24298L18.5521 1.62912Z" fill="#ADACAE"/>
<path d="M27.909 10.9993C27.4632 14.1666 25.1881 17.3808 21.9439 18.0964L21.3427 18.2294L21.4527 17.6229C22.03 14.4454 24.2452 11.5415 27.38 10.5515L27.9996 10.3555L27.909 10.9993Z" fill="#ADACAE"/>
<path d="M24.528 4.04041C25.7297 6.81405 25.3646 10.1694 23.511 12.5706L23.0753 13.1343L22.8062 12.4748C21.6734 9.69137 21.9559 6.35027 23.8283 3.95161L24.2533 3.40729L24.528 4.04041Z" fill="#ADACAE"/>
<path d="M4.17127 3.95173C6.04424 6.3504 6.32615 9.6915 5.1933 12.4749L4.9245 13.1346L4.4891 12.571C2.63519 10.1693 2.27033 6.8142 3.47209 4.04033L3.74679 3.40723L4.17127 3.95173Z" fill="#ADACAE"/>
<path d="M10.0536 21.683C6.82893 22.3449 3.02443 21.4996 0.961999 18.7742L0.548462 18.228L1.22522 18.1219C4.46389 17.6137 8.13189 18.3865 10.2886 21.022L10.7178 21.5467L10.0536 21.683Z" fill="#ADACAE"/>
<path d="M10.0992 1.83549C10.9313 4.72556 9.35916 7.92269 7.03084 9.64493L6.50785 10.0313L6.38462 9.39293C5.8218 6.48163 7.17786 3.45459 9.44829 1.62922L9.92882 1.24341L10.0992 1.83549Z" fill="#ADACAE"/>
<path d="M0.620174 10.5516C3.75454 11.5417 5.97027 14.4454 6.54754 17.623L6.65755 18.2294L6.05609 18.0965C2.81159 17.3808 0.53659 14.1667 0.0906897 10.9994L0 10.3553L0.620174 10.5516Z" fill="#ADACAE"/>
<path d="M16.2755 23.9633C16.8033 24.5244 17.3515 25.0646 17.9845 25.4916L18.4205 25.7844L18.0296 26.1361C17.868 26.2811 17.7086 26.4273 17.55 26.5748L17.354 26.7571L17.1082 26.6508C15.5995 25.9995 15.1714 24.3794 13.9999 23.6153C12.8287 24.3794 12.4009 25.9995 10.8922 26.6512L10.6458 26.7576L10.4498 26.575C10.2913 26.4272 10.1317 26.2813 9.97078 26.1365L9.58048 25.7849L10.0162 25.492C10.649 25.065 11.1975 24.5249 11.7252 23.9638C11.0023 24.3216 10.2847 24.7341 9.46143 24.8884C7.99143 25.1354 6.41807 25.2235 5.02063 24.6137L4.34497 24.3194L4.95173 23.9008C6.33351 22.9476 7.81683 22.0592 9.53556 21.9225C10.8883 21.8483 12.2597 21.8816 13.5855 22.1871L13.6026 22.1911L13.6196 22.197C13.8699 22.2779 14.1309 22.2779 14.3815 22.197L14.3983 22.1911L14.416 22.1871C15.7409 21.8816 17.1126 21.8483 18.4704 21.9225C20.1851 22.0592 21.668 22.9479 23.0491 23.9008L23.6555 24.3194L22.9802 24.6137C21.5827 25.2238 20.0093 25.1353 18.5356 24.8878C17.7144 24.7335 16.9973 24.3213 16.2752 23.9635L16.2755 23.9633Z" fill="#ADACAE"/>
<path d="M10.6283 11.9659C10.6096 11.4059 10.675 10.8879 10.8243 10.4119C10.9736 9.92657 11.1976 9.50657 11.4963 9.15191C11.795 8.78791 12.1683 8.50791 12.6163 8.31191C13.0736 8.10657 13.5963 8.00391 14.1843 8.00391C14.6323 8.00391 15.057 8.07391 15.4583 8.21391C15.869 8.35391 16.2283 8.55457 16.5363 8.81591C16.8443 9.07724 17.087 9.39924 17.2643 9.78191C17.451 10.1646 17.5443 10.5939 17.5443 11.0699C17.5443 11.5646 17.465 11.9892 17.3063 12.3439C17.1476 12.6986 16.9376 13.0159 16.6763 13.2959C16.415 13.5666 16.1163 13.8139 15.7803 14.0379C15.4536 14.2619 15.1223 14.4859 14.7863 14.7099C14.4503 14.9246 14.1236 15.1579 13.8063 15.4099C13.489 15.6619 13.209 15.9559 12.9663 16.2919H17.6003V17.9999H10.4043C10.4043 17.4306 10.4836 16.9359 10.6423 16.5159C10.8103 16.0959 11.0343 15.7226 11.3143 15.3959C11.5943 15.0599 11.921 14.7519 12.2943 14.4719C12.677 14.1919 13.0783 13.9072 13.4983 13.6179C13.713 13.4686 13.9416 13.3192 14.1843 13.1699C14.427 13.0112 14.6463 12.8386 14.8423 12.6519C15.0476 12.4652 15.2156 12.2552 15.3463 12.0219C15.4863 11.7886 15.5563 11.5226 15.5563 11.2239C15.5563 10.7479 15.4163 10.3792 15.1363 10.1179C14.8656 9.84724 14.5156 9.71191 14.0863 9.71191C13.797 9.71191 13.5496 9.78191 13.3443 9.92191C13.1483 10.0526 12.9896 10.2299 12.8683 10.4539C12.747 10.6686 12.6583 10.9112 12.6023 11.1819C12.5556 11.4432 12.5323 11.7046 12.5323 11.9659H10.6283Z" fill="#ADACAE"/>
</g>
<defs>
<clipPath id="clip0_110_14368">
<rect width="28" height="28" fill="white"/>
</clipPath>
</defs>
</svg>
