<svg width="28" height="28" viewBox="0 0 28 28" fill="none" xmlns="http://www.w3.org/2000/svg">
<g clip-path="url(#clip0_110_14351)">
<path d="M17.7121 21.0222C19.868 18.3867 23.5366 17.6139 26.775 18.1221L27.4517 18.2282L27.0385 18.7744C24.9758 21.4995 21.1713 22.3449 17.9467 21.6831L17.2825 21.5471L17.7121 21.0222Z" fill="#FFBF14"/>
<path d="M18.5521 1.62912C20.8226 3.45468 22.1792 6.48176 21.6157 9.39283L21.4922 10.0312L20.97 9.64482C18.6418 7.92254 17.0692 4.72546 17.901 1.83516L18.0718 1.24298L18.5521 1.62912Z" fill="#FFBF14"/>
<path d="M27.909 10.9993C27.4632 14.1666 25.1881 17.3808 21.9439 18.0964L21.3427 18.2294L21.4527 17.6229C22.03 14.4454 24.2452 11.5415 27.38 10.5515L27.9996 10.3555L27.909 10.9993Z" fill="#FFBF14"/>
<path d="M24.528 4.04041C25.7297 6.81405 25.3646 10.1694 23.511 12.5706L23.0753 13.1343L22.8062 12.4748C21.6734 9.69137 21.9559 6.35027 23.8283 3.95161L24.2533 3.40729L24.528 4.04041Z" fill="#FFBF14"/>
<path d="M4.17127 3.95173C6.04424 6.3504 6.32615 9.6915 5.1933 12.4749L4.9245 13.1346L4.4891 12.571C2.63519 10.1693 2.27033 6.8142 3.47209 4.04033L3.74679 3.40723L4.17127 3.95173Z" fill="#FFBF14"/>
<path d="M10.0536 21.683C6.82893 22.3449 3.02443 21.4996 0.961999 18.7742L0.548462 18.228L1.22522 18.1219C4.46389 17.6137 8.13189 18.3865 10.2886 21.022L10.7178 21.5467L10.0536 21.683Z" fill="#FFBF14"/>
<path d="M10.0992 1.83549C10.9313 4.72556 9.35916 7.92269 7.03084 9.64493L6.50785 10.0313L6.38462 9.39293C5.8218 6.48163 7.17786 3.45459 9.44829 1.62922L9.92882 1.24341L10.0992 1.83549Z" fill="#FFBF14"/>
<path d="M0.620174 10.5516C3.75454 11.5417 5.97027 14.4454 6.54754 17.623L6.65755 18.2294L6.05609 18.0965C2.81159 17.3808 0.53659 14.1667 0.0906897 10.9994L0 10.3553L0.620174 10.5516Z" fill="#FFBF14"/>
<path d="M16.2755 23.9633C16.8033 24.5244 17.3515 25.0646 17.9845 25.4916L18.4205 25.7844L18.0296 26.1361C17.868 26.2811 17.7086 26.4273 17.55 26.5748L17.354 26.7571L17.1082 26.6508C15.5995 25.9995 15.1714 24.3794 13.9999 23.6153C12.8287 24.3794 12.4009 25.9995 10.8922 26.6512L10.6458 26.7576L10.4498 26.575C10.2913 26.4272 10.1317 26.2813 9.97078 26.1365L9.58048 25.7849L10.0162 25.492C10.649 25.065 11.1975 24.5249 11.7252 23.9638C11.0023 24.3216 10.2847 24.7341 9.46143 24.8884C7.99143 25.1354 6.41807 25.2235 5.02063 24.6137L4.34497 24.3194L4.95173 23.9008C6.33351 22.9476 7.81683 22.0592 9.53556 21.9225C10.8883 21.8483 12.2597 21.8816 13.5855 22.1871L13.6026 22.1911L13.6196 22.197C13.8699 22.2779 14.1309 22.2779 14.3815 22.197L14.3983 22.1911L14.416 22.1871C15.7409 21.8816 17.1126 21.8483 18.4704 21.9225C20.1851 22.0592 21.668 22.9479 23.0491 23.9008L23.6555 24.3194L22.9802 24.6137C21.5827 25.2238 20.0093 25.1353 18.5356 24.8878C17.7144 24.7335 16.9973 24.3213 16.2752 23.9635L16.2755 23.9633Z" fill="#FFBF14"/>
<path d="M15.5982 18.0002H13.6102V11.6442H11.1462V10.1462C11.4916 10.1555 11.8229 10.1322 12.1402 10.0762C12.4669 10.0109 12.7562 9.90353 13.0082 9.7542C13.2696 9.59553 13.4889 9.3902 13.6662 9.1382C13.8436 8.8862 13.9602 8.57353 14.0162 8.2002H15.5982V18.0002Z" fill="#FFBF14"/>
</g>
<defs>
<clipPath id="clip0_110_14351">
<rect width="28" height="28" fill="white"/>
</clipPath>
</defs>
</svg>
