<svg xmlns="http://www.w3.org/2000/svg" viewBox="0 0 16 16" fill="none">
  <path d="M5.66683 9.66667C6.10886 9.66667 6.53278 9.49107 6.84534 9.17851C7.1579 8.86595 7.3335 8.44203 7.3335 8C7.3335 7.08 7.00016 6.66667 6.66683 6C5.95216 4.57133 6.5175 3.29733 8.00016 2C8.3335 3.66667 9.3335 5.26667 10.6668 6.33333C12.0002 7.4 12.6668 8.66667 12.6668 10C12.6668 10.6128 12.5461 11.2197 12.3116 11.7859C12.0771 12.352 11.7333 12.8665 11.3 13.2998C10.8667 13.7332 10.3522 14.0769 9.78602 14.3114C9.21983 14.546 8.613 14.6667 8.00016 14.6667C7.38733 14.6667 6.78049 14.546 6.21431 14.3114C5.64812 14.0769 5.13367 13.7332 4.70033 13.2998C4.26699 12.8665 3.92325 12.352 3.68872 11.7859C3.4542 11.2197 3.3335 10.6128 3.3335 10C3.3335 9.23133 3.62216 8.47067 4.00016 8C4.00016 8.44203 4.17576 8.86595 4.48832 9.17851C4.80088 9.49107 5.2248 9.66667 5.66683 9.66667Z" stroke="currentColor" stroke-width="1.3" stroke-linecap="round" stroke-linejoin="round"/>
</svg>
