<svg width="16" height="16" viewBox="0 0 16 16" fill="none" xmlns="http://www.w3.org/2000/svg">
<path opacity="0.5" d="M3 5C3 4.44772 3.44772 4 4 4H12C12.5523 4 13 4.44772 13 5C13 5.55228 12.5523 6 12 6H4C3.44772 6 3 5.55228 3 5Z" fill="#0079FF"/>
<path opacity="0.5" d="M5 2C5 1.44772 5.44772 1 6 1H10C10.5523 1 11 1.44772 11 2C11 2.55228 10.5523 3 10 3H6C5.44772 3 5 2.55228 5 2Z" fill="#0079FF"/>
<path d="M1 9C1 7.89543 1.89543 7 3 7H13C14.1046 7 15 7.89543 15 9V13C15 14.1046 14.1046 15 13 15H3C1.89543 15 1 14.1046 1 13V9Z" fill="#0079FF"/>
</svg>
