<svg xmlns="http://www.w3.org/2000/svg" viewBox="0 0 16 16" fill="none">
  <path d="M11.3332 14.6663V11.333M11.3332 4.66634V1.33301M4.6665 14.6663V12.6663M4.6665 3.33301V1.33301M3.99984 3.33301H5.33317C6.06955 3.33301 6.6665 3.92996 6.6665 4.66634V11.333C6.6665 12.0694 6.06955 12.6663 5.33317 12.6663H3.99984C3.26346 12.6663 2.6665 12.0694 2.6665 11.333V4.66634C2.6665 3.92996 3.26346 3.33301 3.99984 3.33301ZM10.6665 4.66634H11.9998C12.7362 4.66634 13.3332 5.26329 13.3332 5.99967V9.99967C13.3332 10.7361 12.7362 11.333 11.9998 11.333H10.6665C9.93012 11.333 9.33317 10.7361 9.33317 9.99967V5.99967C9.33317 5.26329 9.93012 4.66634 10.6665 4.66634Z" stroke="currentColor" stroke-width="1.3" stroke-linecap="round" stroke-linejoin="round"/>
</svg>

