<svg xmlns="http://www.w3.org/2000/svg"  viewBox="0 0 16 16" fill="none">
  <path d="M4 7.33301H6.66667" stroke="currentColor" stroke-width="1.3" stroke-linecap="round" stroke-linejoin="round"/>
  <path d="M5.3335 6V8.66667" stroke="currentColor" stroke-width="1.3" stroke-linecap="round" stroke-linejoin="round"/>
  <path d="M10 8H10.0067" stroke="currentColor" stroke-width="1.3" stroke-linecap="round" stroke-linejoin="round"/>
  <path d="M12 6.66699H12.0067" stroke="currentColor" stroke-width="1.3" stroke-linecap="round" stroke-linejoin="round"/>
  <path d="M11.5468 3.33301H4.4535C3.79368 3.33316 3.15735 3.57793 2.66752 4.01998C2.17768 4.46204 1.86913 5.07 1.8015 5.72634C1.7975 5.76101 1.79483 5.79367 1.79016 5.82767C1.73616 6.27701 1.3335 9.63701 1.3335 10.6663C1.3335 11.1968 1.54421 11.7055 1.91928 12.0806C2.29436 12.4556 2.80306 12.6663 3.3335 12.6663C4.00016 12.6663 4.3335 12.333 4.66683 11.9997L5.6095 11.057C5.85949 10.8069 6.19857 10.6664 6.55216 10.6663H9.44816C9.80176 10.6664 10.1408 10.8069 10.3908 11.057L11.3335 11.9997C11.6668 12.333 12.0002 12.6663 12.6668 12.6663C13.1973 12.6663 13.706 12.4556 14.081 12.0806C14.4561 11.7055 14.6668 11.1968 14.6668 10.6663C14.6668 9.63634 14.2642 6.27701 14.2102 5.82767C14.2055 5.79434 14.2028 5.76101 14.1988 5.72701C14.1314 5.07055 13.8229 4.46243 13.333 4.02023C12.8432 3.57804 12.2067 3.33318 11.5468 3.33301Z" stroke="currentColor" stroke-width="1.3" stroke-linecap="round" stroke-linejoin="round"/>
</svg>

