<svg width="16" height="16" viewBox="0 0 16 16" fill="none" xmlns="http://www.w3.org/2000/svg">
<path opacity="0.5" d="M9 3C9 1.89543 9.89543 1 11 1H13C14.1046 1 15 1.89543 15 3V5C15 6.10457 14.1046 7 13 7H11C9.89543 7 9 6.10457 9 5V3Z" fill="#0079FF"/>
<path d="M9 11C9 9.89543 9.89543 9 11 9H13C14.1046 9 15 9.89543 15 11V13C15 14.1046 14.1046 15 13 15H11C9.89543 15 9 14.1046 9 13V11Z" fill="#0079FF"/>
<path d="M1 3C1 1.89543 1.89543 1 3 1H5C6.10457 1 7 1.89543 7 3V5C7 6.10457 6.10457 7 5 7H3C1.89543 7 1 6.10457 1 5V3Z" fill="#0079FF"/>
<path d="M1 11C1 9.89543 1.89543 9 3 9H5C6.10457 9 7 9.89543 7 11V13C7 14.1046 6.10457 15 5 15H3C1.89543 15 1 14.1046 1 13V11Z" fill="#0079FF"/>
</svg>
