<svg width="16" height="16" viewBox="0 0 16 16" fill="none" xmlns="http://www.w3.org/2000/svg">
<g clip-path="url(#clip0_6166_6370)">
<path d="M10.5858 1.1716C11.3668 0.39055 12.6332 0.39055 13.4142 1.1716L14.8284 2.58581C15.6095 3.36686 15.6095 4.63319 14.8284 5.41424L13.4142 6.82845C12.6332 7.6095 11.3668 7.6095 10.5858 6.82845L9.17157 5.41424C8.39052 4.63319 8.39052 3.36686 9.17157 2.58581L10.5858 1.1716Z" fill="#0FC591"/>
<path opacity="0.5" d="M9 11C9 9.89543 9.89543 9 11 9H13C14.1046 9 15 9.89543 15 11V13C15 14.1046 14.1046 15 13 15H11C9.89543 15 9 14.1046 9 13V11Z" fill="#0FC591"/>
<path opacity="0.5" d="M1 3C1 1.89543 1.89543 1 3 1H5C6.10457 1 7 1.89543 7 3V5C7 6.10457 6.10457 7 5 7H3C1.89543 7 1 6.10457 1 5V3Z" fill="#0FC591"/>
<path opacity="0.5" d="M1 11C1 9.89543 1.89543 9 3 9H5C6.10457 9 7 9.89543 7 11V13C7 14.1046 6.10457 15 5 15H3C1.89543 15 1 14.1046 1 13V11Z" fill="#0FC591"/>
</g>
<defs>
<clipPath id="clip0_6166_6370">
<rect width="16" height="16" fill="white"/>
</clipPath>
</defs>
</svg>
