<svg xmlns="http://www.w3.org/2000/svg"  viewBox="0 0 16 16" fill="none">
  <path d="M8.6665 10.667C9.05281 10.6665 9.431 10.7779 9.75537 10.9877C10.0797 11.1975 10.3364 11.4968 10.4943 11.8493C10.6523 12.2018 10.7047 12.5926 10.6454 12.9743C10.586 13.356 10.4174 13.7124 10.1598 14.0003" stroke="currentColor" stroke-width="1.3" stroke-linecap="round" stroke-linejoin="round"/>
  <path d="M12 8H12.0067" stroke="currentColor" stroke-width="1.3" stroke-linecap="round" stroke-linejoin="round"/>
  <path d="M12 14.0003H6.66667C5.95942 14.0003 5.28115 13.7193 4.78105 13.2192C4.28095 12.7191 4 12.0408 4 11.3336C4 10.0959 4.49167 8.90894 5.36684 8.03377C6.24201 7.1586 7.42899 6.66694 8.66667 6.66694H8.8L6.4 4.26694C6.27743 4.14437 6.18021 3.99886 6.11387 3.83872C6.04754 3.67858 6.0134 3.50694 6.0134 3.3336C6.0134 2.98354 6.15246 2.64781 6.4 2.40027C6.64754 2.15274 6.98327 2.01367 7.33333 2.01367C7.50667 2.01367 7.67831 2.04781 7.83845 2.11415C7.99859 2.18048 8.1441 2.2777 8.26667 2.40027L10.5333 4.66694H10.6667C12.8667 4.66694 14.6667 6.46694 14.6667 8.66694V9.3336C14.6667 9.68723 14.5262 10.0264 14.2761 10.2764C14.0261 10.5265 13.687 10.6669 13.3333 10.6669H12.6667C12.1362 10.6669 11.6275 10.8777 11.2525 11.2527C10.8774 11.6278 10.6667 12.1365 10.6667 12.6669" stroke="currentColor" stroke-width="1.3" stroke-linecap="round" stroke-linejoin="round"/>
  <path d="M13.3332 5.69301V2.66634C13.3332 2.31272 13.1927 1.97358 12.9426 1.72353C12.6926 1.47348 12.3535 1.33301 11.9998 1.33301C11.6462 1.33301 11.3071 1.47348 11.057 1.72353C10.807 1.97358 10.6665 2.31272 10.6665 2.66634V4.66634" stroke="currentColor" stroke-width="1.3" stroke-linecap="round" stroke-linejoin="round"/>
  <path d="M5.07476 8.34914C4.8873 8.01736 4.60895 7.74605 4.27249 7.56714C3.93603 7.38823 3.55545 7.30916 3.17557 7.33925C2.79569 7.36934 2.43231 7.50734 2.12821 7.73699C1.82411 7.96664 1.59195 8.27839 1.45905 8.63554C1.32616 8.99269 1.29807 9.38037 1.37808 9.75295C1.4581 10.1255 1.64289 10.4675 1.9107 10.7386C2.17851 11.0097 2.5182 11.1986 2.88978 11.2832C3.26136 11.3677 3.64935 11.3443 4.00809 11.2158" stroke="currentColor" stroke-width="1.3" stroke-linecap="round" stroke-linejoin="round"/>
</svg>

