<svg viewBox="0 0 16 16" fill="none" xmlns="http://www.w3.org/2000/svg">
    <g clip-path="url(#clip0_693_31080)">
        <path d="M7.99992 14.6673C11.6818 14.6673 14.6666 11.6825 14.6666 8.00065C14.6666 4.31875 11.6818 1.33398 7.99992 1.33398C4.31802 1.33398 1.33325 4.31875 1.33325 8.00065C1.33325 11.6825 4.31802 14.6673 7.99992 14.6673Z" stroke="currentColor" stroke-width="1.3" stroke-linecap="round" stroke-linejoin="round"/>
        <path d="M4 8.00117C4 6.86784 4.46667 5.86784 5.2 5.20117" stroke="currentColor" stroke-width="1.3" stroke-linecap="round" stroke-linejoin="round"/>
        <path d="M8.00008 9.33268C8.73646 9.33268 9.33341 8.73573 9.33341 7.99935C9.33341 7.26297 8.73646 6.66602 8.00008 6.66602C7.2637 6.66602 6.66675 7.26297 6.66675 7.99935C6.66675 8.73573 7.2637 9.33268 8.00008 9.33268Z" stroke="currentColor" stroke-width="1.3" stroke-linecap="round" stroke-linejoin="round"/>
        <path d="M12 8C12 9.13333 11.5334 10.1333 10.8 10.8" stroke="currentColor" stroke-width="1.3" stroke-linecap="round" stroke-linejoin="round"/>
    </g>
    <defs>
        <clipPath id="clip0_693_31080">
            <rect width="16" height="16" fill="white"/>
        </clipPath>
    </defs>
</svg>
