<svg width="16" height="16" viewBox="0 0 16 16" fill="none" xmlns="http://www.w3.org/2000/svg">
<path d="M1 7C1 5.89543 1.89543 5 3 5H13C14.1046 5 15 5.89543 15 7V13C15 14.1046 14.1046 15 13 15H3C1.89543 15 1 14.1046 1 13V7Z" fill="#0FC591"/>
<path opacity="0.5" d="M5 1C3.89543 1 3 1.89543 3 3V5H5V4C5 3 5 3 6 3H10C11 3 11 3 11 4V5H13V3C13 1.89543 12.1046 1 11 1H5Z" fill="#0FC591"/>
<path d="M9 9C9 9.55228 8.55228 10 8 10C7.44772 10 7 9.55228 7 9C7 8.44772 7.44772 8 8 8C8.55228 8 9 8.44772 9 9Z" fill="#054734"/>
<path fill-rule="evenodd" clip-rule="evenodd" d="M8.00007 11.5C10.7335 11.5 13.1375 10.6582 14.6821 9.38562C15 9 15 9 15 9V10C15 10 15 10.5 15.0001 10.4062C13.2519 11.7056 10.7498 12.5 8.00007 12.5C5.25032 12.5 2.74821 11.7056 1.00001 10.4061C1 10.5 1.00015 10 1.00015 10L1 9C1 9 1.0924 9.19977 1.318 9.38562C2.86267 10.6582 5.26661 11.5 8.00007 11.5Z" fill="#054734"/>
</svg>
