<svg xmlns="http://www.w3.org/2000/svg"  viewBox="0 0 16 16" fill="none">
  <g clip-path="url(#clip0_230_4498)">
    <path d="M9.5999 9.60039L6.3999 6.40039" stroke="currentColor" stroke-width="1.3" stroke-linecap="round" stroke-linejoin="round"/>
    <path d="M12.4378 14.3236C12.1878 14.5737 11.8486 14.7142 11.495 14.7143C11.1414 14.7144 10.8022 14.5739 10.5521 14.3239C10.302 14.0739 10.1615 13.7348 10.1614 13.3812C10.1613 13.0275 10.3018 12.6884 10.5518 12.4383L9.37377 13.6169C9.12367 13.867 8.78446 14.0075 8.43077 14.0075C8.07708 14.0075 7.73787 13.867 7.48777 13.6169C7.23767 13.3668 7.09717 13.0276 7.09717 12.6739C7.09717 12.3202 7.23767 11.981 7.48777 11.7309L11.7304 7.48826C11.9805 7.23816 12.3197 7.09766 12.6734 7.09766C13.0271 7.09766 13.3663 7.23816 13.6164 7.48826C13.8665 7.73836 14.007 8.07757 14.007 8.43126C14.007 8.78495 13.8665 9.12416 13.6164 9.37426L12.4378 10.5523C12.6879 10.3022 13.027 10.1618 13.3807 10.1619C13.7343 10.162 14.0734 10.3025 14.3234 10.5526C14.5734 10.8027 14.7139 11.1419 14.7138 11.4955C14.7137 11.8491 14.5732 12.1882 14.3231 12.4383L12.4378 14.3236Z" stroke="currentColor" stroke-width="1.3" stroke-linecap="round" stroke-linejoin="round"/>
    <path d="M14.3332 14.3337L13.3999 13.4004" stroke="currentColor" stroke-width="1.3" stroke-linecap="round" stroke-linejoin="round"/>
    <path d="M2.59984 2.60033L1.6665 1.66699" stroke="currentColor" stroke-width="1.3" stroke-linecap="round" stroke-linejoin="round"/>
    <path d="M4.2695 8.51217C4.0194 8.76227 3.68019 8.90277 3.3265 8.90277C2.97281 8.90277 2.6336 8.76227 2.3835 8.51217C2.1334 8.26207 1.9929 7.92286 1.9929 7.56917C1.9929 7.21547 2.1334 6.87627 2.3835 6.62617L3.56217 5.44817C3.43833 5.57196 3.29132 5.67015 3.12954 5.73713C2.96776 5.80411 2.79437 5.83857 2.61926 5.83853C2.26563 5.83847 1.92651 5.69793 1.6765 5.44783C1.55271 5.324 1.45452 5.17699 1.38754 5.01521C1.32056 4.85342 1.2861 4.68003 1.28613 4.50493C1.2862 4.1513 1.42673 3.81218 1.67683 3.56217L3.56217 1.67683C3.81218 1.42673 4.1513 1.2862 4.50493 1.28613C4.68003 1.2861 4.85342 1.32056 5.01521 1.38754C5.17699 1.45452 5.324 1.55271 5.44783 1.6765C5.57167 1.80029 5.66991 1.94727 5.73695 2.10902C5.80398 2.27078 5.8385 2.44416 5.83853 2.61926C5.83857 2.79437 5.80411 2.96776 5.73713 3.12954C5.67015 3.29132 5.57196 3.43833 5.44817 3.56217L6.62617 2.3835C6.87627 2.1334 7.21547 1.9929 7.56917 1.9929C7.92286 1.9929 8.26207 2.1334 8.51217 2.3835C8.76227 2.6336 8.90277 2.97281 8.90277 3.3265C8.90277 3.68019 8.76227 4.0194 8.51217 4.2695L4.2695 8.51217Z" stroke="currentColor" stroke-width="1.3" stroke-linecap="round" stroke-linejoin="round"/>
  </g>
  <defs>
    <clipPath id="clip0_230_4498">
      <rect width="16" height="16" fill="white"/>
    </clipPath>
  </defs>
</svg>
