<svg width="16" height="16" viewBox="0 0 16 16" fill="none" xmlns="http://www.w3.org/2000/svg">
<path fill-rule="evenodd" clip-rule="evenodd" d="M4 2C2.89543 2 2 2.89543 2 4V12C2 13.1046 2.89543 14 4 14H12C13.1046 14 14 13.1046 14 12V4C14 2.89543 13.1046 2 12 2H4ZM9 5C9 4.44772 8.55228 4 8 4C7.44772 4 7 4.44772 7 5V7H5C4.44772 7 4 7.44771 4 8C4 8.55228 4.44772 9 5 9H7V11C7 11.5523 7.44771 12 8 12C8.55228 12 9 11.5523 9 11V9H11C11.5523 9 12 8.55228 12 8C12 7.44772 11.5523 7 11 7H9V5Z" fill="#0FC591"/>
</svg>
