<svg xmlns="http://www.w3.org/2000/svg"  viewBox="0 0 16 16" fill="none">
  <path d="M6.6665 13.9997V13.333" stroke="currentColor" stroke-width="1.3" stroke-linecap="round" stroke-linejoin="round"/>
  <path d="M6.6665 2.66667V2" stroke="currentColor" stroke-width="1.3" stroke-linecap="round" stroke-linejoin="round"/>
  <path d="M6.6665 6C6.13607 6 5.62736 6.21071 5.25229 6.58579C4.87722 6.96086 4.6665 7.46957 4.6665 8C4.6665 8.53043 4.87722 9.03914 5.25229 9.41421C5.62736 9.78929 6.13607 10 6.6665 10" stroke="currentColor" stroke-width="1.3" stroke-linecap="round" stroke-linejoin="round"/>
  <path d="M9.3335 13.3337L10.1668 11.667L12.0002 12.0003" stroke="currentColor" stroke-width="1.3" stroke-linecap="round" stroke-linejoin="round"/>
  <path d="M9.3335 2.66699L10.1668 4.33366L12.0002 4.00033" stroke="currentColor" stroke-width="1.3" stroke-linecap="round" stroke-linejoin="round"/>
  <path d="M11.3335 14L9.3335 10L10.3335 8H14.6668" stroke="currentColor" stroke-width="1.3" stroke-linecap="round" stroke-linejoin="round"/>
  <path d="M11.3335 2L9.3335 6L10.3335 8" stroke="currentColor" stroke-width="1.3" stroke-linecap="round" stroke-linejoin="round"/>
  <path d="M1.3335 8H2.00016" stroke="currentColor" stroke-width="1.3" stroke-linecap="round" stroke-linejoin="round"/>
  <path d="M13.3335 6.66699L12.3335 8.00033L13.3335 9.33366" stroke="currentColor" stroke-width="1.3" stroke-linecap="round" stroke-linejoin="round"/>
  <path d="M2.42676 12.2401L2.89342 11.7734" stroke="currentColor" stroke-width="1.3" stroke-linecap="round" stroke-linejoin="round"/>
  <path d="M2.89342 4.22643L2.42676 3.75977" stroke="currentColor" stroke-width="1.3" stroke-linecap="round" stroke-linejoin="round"/>
</svg>

